<?xml version="1.0" standalone="no"?>
<!DOCTYPE svg PUBLIC "-//W3C//DTD SVG 1.1//EN" "http://www.w3.org/Graphics/SVG/1.1/DTD/svg11.dtd" >
<svg xmlns="http://www.w3.org/2000/svg" xmlns:xlink="http://www.w3.org/1999/xlink" version="1.1">
<metadata>
Created by FontForge 20190801 at Sat Oct 12 07:38:28 2019
 By Jimmy Wärting
Copr. Pat Snyder, 1797 Ross Inlet, Coos Bay, OR 97420 Shware $15
</metadata>
<defs>
<font id="SnyderSpeedBrushCyr-Regular" horiz-adv-x="540" >
  <font-face 
    font-family="Snyder Speed Brush Cyr"
    font-weight="400"
    font-stretch="normal"
    units-per-em="1000"
    panose-1="3 6 6 2 4 0 2 6 2 1"
    ascent="800"
    descent="-200"
    x-height="680"
    cap-height="858"
    bbox="-172 -255 1387.33 928"
    underline-thickness="20"
    underline-position="-133"
    unicode-range="U+0020-2122"
  />
<missing-glyph horiz-adv-x="500" 
 />
    <glyph glyph-name=".notdef" horiz-adv-x="500" 
 />
    <glyph glyph-name="space" unicode=" " horiz-adv-x="474" 
 />
    <glyph glyph-name="space" unicode="&#xa0;" horiz-adv-x="474" 
 />
    <glyph glyph-name="numbersign" unicode="#" horiz-adv-x="749" 
d="M212 459q-26 -3 -49.5 -8t-41.5 -9t-29.5 -6t-13.5 0q-9 9 -17.5 24.5t-14 32t-5.5 32.5t7 25q2 3 25.5 8.5t57 12t71.5 13.5t68 13q20 43 35 70.5t22 32.5q12 7 29.5 9t35 0t31.5 -8.5t20 -15.5q2 -4 -6.5 -24t-21.5 -50q23 2 48 5.5t47 4.5q22 42 38 69t23 31
q10 6 24 6t28 -4t26 -10.5t19 -13.5q2 -2 -5 -21t-20 -50h18t9 -1t4 -1.5l3 -1.5q11 -4 21 -15t18 -26.5t13.5 -34.5t7.5 -38q-6 3 -21 2.5t-35.5 -2t-44.5 -4.5t-49 -5q-11 -22 -20.5 -45t-20.5 -46q38 2 68 0t39 -8q30 -20 42 -48t18 -62q-7 1 -31 0.5t-56.5 -2.5
t-69.5 -5t-70 -7q-30 -67 -51 -116.5t-24 -64.5q-32 6 -55.5 18t-32.5 42q-3 10 4.5 38.5t21.5 68.5q-25 -3 -49 -7t-47 -7q-20 -48 -33 -83t-12 -49q-18 2 -35 5.5t-30 9.5t-22.5 17t-12.5 28q-2 5 2 20t12 38q-19 -6 -39.5 -12t-35.5 -1q-9 3 -17 19t-13.5 35t-6 36.5
t6.5 23.5q3 3 18.5 6.5t38 8t48.5 10t51 10.5q9 21 19.5 43t19.5 44zM446 486q-23 -3 -46 -7t-45 -6l-39 -84q23 3 45 6.5t45 5.5q9 21 19.5 42.5t20.5 42.5z" />
    <glyph glyph-name="dollar" unicode="$" horiz-adv-x="240" 
d="M49 259q0 10 6 23.5t13.5 27.5t12.5 27t4 23q-17 17 -32.5 29t-17.5 25q-2 7 0.5 17t7.5 20t12 19.5t14 15.5q7 -20 27.5 -34.5t44 -21t45 -4.5t29.5 16q7 12 -5 24t-30 24t-37 23.5t-25 22.5q-20 32 -18.5 63t18.5 63q19 38 53.5 54t72.5 18q9 6 15.5 18t13.5 25.5
t16 27t23 23.5q0 -13 -3.5 -25.5t-8 -25t-8.5 -24.5t-5 -24q23 -11 35.5 -34t11.5 -37q-2 -10 -22 -21t-43 -25q-6 13 -15 25.5t-19.5 20t-22.5 7t-22 -13.5q-14 -17 -11 -30.5t14 -25t26.5 -21.5t27.5 -20q23 -18 31 -38t5.5 -41t-13 -40.5t-25.5 -35.5
q-25 -28 -56.5 -37.5t-67.5 -5.5q-5 -9 -12.5 -24t-16.5 -30t-20 -27t-23 -16z" />
    <glyph glyph-name="percent" unicode="%" horiz-adv-x="912" 
d="M102 -114q-10 22 -18.5 34.5t-17 24.5t-16 29.5t-14.5 49.5q-2 10 16.5 39t52 71t80 94.5t99 109t109 115.5t111.5 113.5t105 102.5t89.5 83.5t65.5 55.5t34 20q15 -1 31.5 -13.5t29.5 -30.5t20 -38.5t3 -37.5q-2 -10 -33 -45t-81 -86.5t-114 -116t-132.5 -133.5
t-136 -137t-125 -127.5t-99.5 -105.5t-59 -71zM152 522q-35 32 -45.5 69.5t-3.5 75t27 71t46 57.5t62 43t73.5 27.5t73 5t61.5 -24.5q22 -18 38 -48t17.5 -67.5t-17 -81t-65.5 -88.5q-21 -20 -57 -36.5t-75 -24t-75.5 -3.5t-59.5 25zM230 606q4 -5 17.5 -2.5t30 10t33 18.5
t27.5 22q10 11 18.5 24t12.5 26.5t2.5 25.5t-9.5 20q-7 7 -19 5.5t-26 -8.5t-27.5 -17.5t-23.5 -21.5q-11 -11 -20.5 -25.5t-15.5 -29t-6.5 -27t6.5 -20.5zM446 -64q-35 32 -45.5 69.5t-3.5 75t27 71t46 57.5t63.5 43.5t76.5 28.5t75.5 5t60.5 -26q22 -21 36.5 -51t13 -67
t-21.5 -79.5t-67 -87.5q-21 -20 -56 -36.5t-73 -24t-73.5 -3.5t-58.5 25zM524 20q4 -5 15.5 -2.5t26 10t29 18.5t25.5 22q10 11 20.5 24t16.5 26.5t6.5 25.5t-7.5 20q-7 7 -19 5.5t-26 -8.5t-27.5 -17.5t-23.5 -21.5q-11 -11 -20.5 -25.5t-15.5 -29t-6.5 -27t6.5 -20.5z" />
    <glyph glyph-name="ampersand" unicode="&#x26;" horiz-adv-x="924" 
d="M156 -66q-13 7 -18.5 12.5t-9 13t-8.5 18t-18 28.5q-12 17 -20.5 26.5t-16 17t-14 15t-15.5 19.5q-13 18 -8.5 45.5t22 60t45.5 67t62.5 66.5t72.5 59t76 44q-4 63 14 124.5t49.5 115.5t74 97t89 68t93.5 29t88 -20t62.5 -58.5t29 -72.5t3 -76.5t-14.5 -71t-24 -54.5
t-26 -27t-30 -4t-38 6.5t-41.5 14t-40.5 19.5q15 23 30 50.5t24 53t10.5 46.5t-10.5 30q-14 11 -36.5 3.5t-45.5 -26.5t-43.5 -46.5t-30.5 -56.5q-13 -37 -16.5 -76.5t0 -79t13 -79t21.5 -77.5q24 20 43 38.5t34 38t25.5 40t17.5 45.5q38 -17 63.5 -46.5t26.5 -61.5
q0 -10 -12.5 -29.5t-32 -44t-43.5 -51t-47 -49.5q27 -34 54 -53.5t72 -27.5q24 -4 47.5 7t47.5 32.5t47.5 52.5t46.5 67q-22 -62 -53 -112.5t-67 -86t-76 -54.5t-80 -17q-28 1 -49 9t-39.5 21t-36.5 30.5t-40 38.5q-29 -26 -73.5 -50.5t-90 -41t-84.5 -22.5t-55 3zM369 174
q-9 18 -20 42.5t-16 44.5q-18 -12 -45 -33t-50.5 -43.5t-37.5 -43.5t-8 -33q5 -9 25.5 -6t47 14t55 26.5t49.5 31.5z" />
    <glyph glyph-name="quotesingle" unicode="'" horiz-adv-x="258" 
d="M77 623q26 0 51 5.5t45.5 16t35.5 26.5t22 37q9 27 8.5 49.5t-1.5 41.5t1.5 34t17.5 28q10 8 30 1.5t41.5 -20.5t39 -33.5t22.5 -36.5q4 -18 0 -43t-17 -50.5t-34 -48.5t-51 -37t-54.5 -20.5t-48.5 -3.5t-50 16t-58 38z" />
    <glyph glyph-name="parenleft" unicode="(" horiz-adv-x="513" 
d="M186 -72q-19 13 -39.5 18.5t-40 10.5t-36.5 14t-28 29q-10 18 -7.5 59t16 96t37 120t55 133t71.5 134t86 122.5t97 99.5t107 64q22 9 52 -1t53.5 -27t32 -36.5t-11.5 -31.5q-9 -5 -41 -30.5t-75.5 -71.5t-94 -112.5t-96.5 -154t-83 -196.5t-54 -239z" />
    <glyph glyph-name="parenright" unicode=")" horiz-adv-x="546" 
d="M108 -102q-16 2 -34.5 15t-34 32.5t-25.5 43t-8 47.5q1 13 24 40t57.5 68t76.5 98t82 130q37 68 58 129.5t30.5 118t10 108t-2.5 100.5q24 -6 45.5 -12t40.5 -15t35 -22.5t29 -34.5t16 -72t-5.5 -119.5t-30 -147t-58.5 -153.5q-20 -41 -47.5 -84t-58 -82.5t-61.5 -74.5
t-58 -60.5t-48.5 -40t-32.5 -12.5z" />
    <glyph glyph-name="asterisk" unicode="*" horiz-adv-x="721" 
d="M92 448q-13 6 -21 25t-11.5 41.5t-2 44t6.5 31.5q4 9 23 17t44 16t51 16t44 17q-11 12 -28 25t-33 25t-27.5 22.5t-11.5 16.5q-1 6 9.5 22t25 33t30.5 30.5t27 13.5q5 0 18 -7.5t29.5 -19.5t35 -26t33.5 -26q4 14 11.5 32.5t16 34.5t18 27.5t17.5 12.5q6 0 22.5 -5.5
t35.5 -13.5t34 -16.5t18 -13.5q5 -10 0 -27.5t-11.5 -35t-10.5 -29.5t4 -10q22 5 39.5 10t33 8t28.5 3.5t26 -2.5q16 -5 32.5 -20.5t28 -34.5t16 -38t-2.5 -29q-9 1 -28 -3.5t-40.5 -10.5t-42.5 -12l-35 -10q9 -14 19.5 -28t20 -27.5t16 -26t6.5 -23.5q0 -10 -4.5 -24.5
t-13.5 -30t-22.5 -30.5t-30.5 -27q-9 15 -23.5 31.5t-31.5 32.5t-34.5 31t-32.5 27q-5 3 -13 -13.5t-19 -43.5t-23 -60t-24 -61q-5 4 -19 13t-30.5 19.5t-30 22t-16.5 20.5q-8 25 -2 56t13 61q-29 -10 -53.5 -21t-44.5 -19.5t-35 -12.5t-24 0z" />
    <glyph glyph-name="plus" unicode="+" horiz-adv-x="654" 
d="M238 78q-18 15 -37 27.5t-35 24t-28 22.5t-16 23q-3 9 0.5 23.5t10 32t15.5 35.5t18 35q-17 0 -34.5 -0.5t-33 -1t-27.5 0.5t-17 5t-9 22.5t-5.5 41t0 43.5t9.5 29q5 6 25 11t48.5 9t61 7t61.5 5q18 20 37.5 50.5t38 59.5t34 50.5t23.5 23.5q6 1 27.5 -6t45 -19t43 -26.5
t21.5 -27.5q1 -10 -4 -19.5t-12 -20t-14 -22.5t-10 -28q32 -7 62.5 -12t45.5 -20q7 -7 14 -20.5t11.5 -31t5.5 -37.5t-2 -41q-29 7 -64.5 7.5t-70 -3t-62.5 -8.5t-42 -8q-10 -13 -28.5 -41t-39 -62t-39.5 -69.5t-28 -63.5z" />
    <glyph glyph-name="comma" unicode="," horiz-adv-x="216" 
d="M-55 -102q26 13 43.5 30.5t16.5 46.5q-1 14 -9.5 30t-18 31t-16.5 27t-5 18q2 7 17 17.5t33 19.5t36 15t26 4q14 -4 25 -19.5t17 -36.5t5.5 -44.5t-8.5 -43.5t-24.5 -37.5t-38.5 -30.5t-47.5 -20.5t-51.5 -6.5z" />
    <glyph glyph-name="hyphen" unicode="-" horiz-adv-x="480" 
d="M96 322q-2 1 -10 20.5t-16 44.5t-12 50t4 37q4 6 28 10.5t58.5 6t75 1t77.5 -3.5t65.5 -8.5t39.5 -13.5q35 -27 61.5 -56t31.5 -73q-21 3 -59 3t-82.5 -2t-90.5 -5t-84 -5.5t-62 -4.5t-25 -1z" />
    <glyph glyph-name="period" unicode="." horiz-adv-x="174" 
d="M-8 -105q-32 18 -47.5 39.5t-24.5 52.5q-4 15 4.5 39.5t22.5 47.5t29.5 40.5t25.5 18.5q11 1 27 -4.5t31 -14.5t26 -20t12 -21q1 -14 -11.5 -34.5t-30.5 -44.5t-36 -50t-28 -49z" />
    <glyph glyph-name="slash" unicode="/" horiz-adv-x="612" 
d="M22 -114q-10 22 -21 34.5t-21 24.5t-16.5 29t-7.5 50q-1 23 29.5 70t81 108t116 131t134.5 140t137 134.5t123.5 113.5t93.5 78.5t47 28.5q15 -1 30.5 -13.5t28 -30.5t20 -38.5t5.5 -37.5q-1 -10 -31.5 -45t-80 -86.5t-113.5 -116t-133 -133.5l-137 -137t-126 -127.5
t-100 -105.5t-59 -71z" />
    <glyph glyph-name="zero" unicode="0" horiz-adv-x="708" 
d="M84 -42q-36 20 -55 57.5t-24 85.5t2 104.5t23 115t39 116.5t51 109q26 48 62 95t78.5 87.5t89 72.5t93 50t91.5 19.5t84 -18.5q49 -25 76.5 -65.5t38 -91.5t5.5 -109.5t-21.5 -118t-42 -118t-56.5 -109.5q-31 -50 -68.5 -98t-81 -88.5t-90.5 -71t-96.5 -45t-99.5 -11
t-98 31.5zM192 108q19 -14 54.5 3t76 52t80 81.5t65.5 91.5q19 32 38 70.5t35 77.5t26 77t10.5 69.5t-11 53.5t-38.5 30t-61.5 -16t-70 -65.5t-68.5 -93.5t-58 -101q-23 -44 -45.5 -95t-36.5 -98.5t-15.5 -84.5t19.5 -52z" />
    <glyph glyph-name="one" unicode="1" horiz-adv-x="504" 
d="M138 -90q-44 25 -74 53.5t-40 78.5q-3 16 10.5 50.5t36 78.5t49.5 92t49.5 89t36 71t10.5 39q-10 25 -31 38.5t-47 27.5q37 14 73 43t69.5 65t63 74t53 70t40.5 53.5t25 24.5q12 4 34 -3.5t44.5 -21t41.5 -31.5t24 -34q3 -8 -11.5 -40t-40.5 -80.5t-61.5 -110.5
t-75 -129.5t-80.5 -138t-78.5 -136t-69 -123.5t-51.5 -100z" />
    <glyph glyph-name="two" unicode="2" horiz-adv-x="810" 
d="M108 -84q-19 16 -39 32.5t-34.5 34.5t-21.5 38t-1 45q5 20 37 51.5t80 71t107 84t118.5 91t114 92.5t94.5 87.5t59 76t8 58.5q-8 18 -32 21t-58 -5t-74 -25t-81 -39.5t-80.5 -49t-70.5 -52.5q-11 25 -19 50.5t-11.5 49.5t-1 46t13.5 40q13 22 41.5 44t67 41t84 34
t93.5 23t95 8t88.5 -11.5t74 -35t50.5 -61.5q27 -56 17.5 -113.5t-45 -115t-92.5 -115t-125.5 -112t-145 -106t-149.5 -98.5q30 7 66 14.5t73.5 14.5t73.5 13t65 9.5t49.5 4.5t26.5 -2q17 -8 34.5 -20.5t34 -31t31 -44t26.5 -60.5q-68 -3 -139.5 -12.5t-138.5 -21.5
t-128.5 -24t-109.5 -19.5t-81.5 -9t-44.5 8.5z" />
    <glyph glyph-name="three" unicode="3" horiz-adv-x="780" 
d="M43 117q-5 25 -0.5 46t12.5 41.5t18 41.5t16 47q19 -40 52.5 -75t73.5 -60t83.5 -38t82.5 -9t70 27t47 71q11 33 0 54t-35 34.5t-55 20.5t-60.5 12t-51.5 9.5t-28 13.5q-13 19 -15 42.5t0 43.5q3 24 10 48q3 0 19 4t43 10.5t62.5 15t77.5 17.5q38 9 73 24.5t60.5 34
t37.5 38t3 36.5q-11 22 -44 26t-76.5 -6.5t-91 -33.5t-88.5 -55q-7 18 -16 40t-16 43t-11 38.5t-1 27.5q10 35 51.5 62.5t97.5 42t118.5 14t117 -20t92 -61t43.5 -109.5q4 -56 -12 -97.5t-49.5 -71.5t-82.5 -50.5t-111 -35.5q33 -19 60.5 -41t45.5 -52t23 -70.5t-7 -96.5
q-21 -92 -73.5 -146.5t-120.5 -77.5t-142.5 -18t-138.5 31t-109.5 69.5t-54.5 98.5z" />
    <glyph glyph-name="four" unicode="4" horiz-adv-x="828" 
d="M420 -93q-13 19 -31.5 31t-36.5 23t-32.5 25t-19.5 38q-5 21 0 39t13 34.5t17.5 33.5t14.5 37q-29 -5 -68.5 -11t-78.5 -8t-70.5 1.5t-43.5 17.5q-8 9 -12 18.5t-6 20t-4.5 22t-7.5 23.5q-5 11 -10.5 20l-11 18t-9.5 18.5t-5 21.5q-1 11 27.5 39.5t75.5 67.5t107.5 86
t124 94t125 91t111 78.5t82 55.5t37.5 22q12 2 38.5 -11.5t54 -33t48.5 -41t21 -34.5q0 -10 -14 -37.5t-36.5 -64.5t-49 -80t-51.5 -83.5t-45 -75.5t-29 -55q10 -4 19 -8l15 -7.5t11 -8.5q5 -6 10.5 -20t10 -33.5t7.5 -42.5t2 -48q-25 12 -52 16.5t-51 4t-41.5 -5
t-23.5 -9.5q-9 -9 -25 -37.5t-35 -68t-38 -85t-34 -88.5zM417 324q16 20 40.5 56.5t52 77.5t56 82.5t52.5 71.5q-17 -10 -49.5 -32.5t-73 -52t-85.5 -64t-86.5 -67t-77 -61t-57.5 -47.5q48 8 80.5 12.5t57 8t45 6.5t45.5 9z" />
    <glyph glyph-name="five" unicode="5" horiz-adv-x="912" 
d="M30 102q-6 23 -2 41t14 36t23 38t25 47q59 -96 136.5 -136.5t174.5 -36.5q54 2 103.5 23.5t84 52.5t50.5 65t3 62q-11 24 -38 31.5t-61.5 4.5t-73.5 -11t-75 -15t-64.5 -8.5t-41.5 10.5q-32 28 -50 67.5t-16 76.5q1 10 17 42t40 74.5t53.5 90.5t57.5 89t50.5 70.5
t33.5 35.5q9 5 16 1t13.5 -12t14 -17.5t16.5 -13.5q3 -2 27 1.5t59.5 9t78.5 11.5t83 9t73.5 2t50.5 -9q30 -14 57 -50t45 -94q-40 11 -88 12t-98 -4t-97.5 -14.5t-86.5 -20t-65 -20t-33 -13.5q-11 -7 -26.5 -22t-31.5 -35t-31 -44t-25 -49q76 19 151 16.5t131.5 -29
t86 -78.5t15.5 -131q-15 -82 -54 -142t-93 -100.5t-119 -62t-131.5 -26.5t-130.5 5t-116.5 33t-88.5 58t-47 79z" />
    <glyph glyph-name="six" unicode="6" horiz-adv-x="738" 
d="M820 719q3 -15 -2 -37t-16 -47.5t-27.5 -51.5t-35.5 -50q-3 41 -8 71.5t-14.5 50t-26.5 29t-44 8.5q-42 -2 -81 -18t-76.5 -42.5t-74.5 -61t-74 -73.5q27 7 57.5 17t60 16.5t56.5 7t48 -10.5q8 -5 13 -7.5t10 -7t11 -13.5t17 -26q10 -17 18 -24.5t14 -13t9.5 -11
t6.5 -17.5q9 -40 -0.5 -87.5t-33 -96t-59 -96t-78 -87.5t-90 -70.5t-96 -45t-95.5 -11t-88 31.5q-55 37 -75.5 98t-14.5 135.5t36 156.5t76.5 160.5t107.5 149t129 122t140 78.5t141 18q33 -4 61 -21t49 -39t33.5 -45t15.5 -39zM499 413q-10 10 -41.5 3t-67.5 -24t-69.5 -40
t-46.5 -44q-17 -26 -31 -59t-21.5 -64.5t-7 -57.5t14.5 -38q14 -13 41 -6.5t57.5 25.5t60.5 46t51 55q18 25 33 56.5t24 61t10.5 53.5t-7.5 33z" />
    <glyph glyph-name="seven" unicode="7" horiz-adv-x="768" 
d="M120 -96q-17 15 -36.5 32t-34.5 36t-22.5 39t-2.5 43q5 24 34 59t73 77t99 89t113 96t115.5 97t105.5 91.5t83 80.5t49 64q-30 3 -69 -7t-80.5 -25.5t-82.5 -34.5t-75.5 -34t-59.5 -23t-35 -2q-9 5 -17.5 27.5t-14 50t-6 54.5t7.5 42q5 11 38.5 26t81 30.5t103 29t106 21
t88.5 7.5t51 -12q15 -14 25 -27.5t17.5 -28t14.5 -30.5t15 -34q7 -17 17 -25.5t17.5 -18.5t10.5 -26.5t-3 -49.5t-45 -81.5t-99 -107t-135.5 -124.5t-154 -134.5t-154.5 -136.5t-138 -130z" />
    <glyph glyph-name="eight" unicode="8" horiz-adv-x="726" 
d="M186 -54q-50 27 -85 63t-51 78t-11.5 87t33.5 90q24 37 45.5 57.5t45 34.5t50.5 28t60 39q-8 37 -10.5 80t4 86t24.5 84.5t51 76.5q37 39 84 64.5t96.5 34.5t97.5 1.5t88 -34.5q50 -34 67 -75t10 -84.5t-34 -87t-65.5 -82.5t-84.5 -70.5t-91 -50.5q34 -41 55 -82.5
t25.5 -84t-9 -87.5t-47.5 -94q-23 -32 -63 -56.5t-88 -36t-99.5 -7.5t-97.5 28zM612 702q-11 15 -29 13t-38.5 -14t-41 -30t-35.5 -35t-22.5 -34.5t-10.5 -35.5t-2.5 -37t2.5 -40q35 12 73.5 37.5t67.5 56t41.5 62.5t-5.5 57zM369 300q-23 -15 -49.5 -33t-49 -37t-36.5 -38
t-12 -36q3 -30 29 -47.5t58.5 -20.5t63 10t44.5 43q7 17 5.5 39.5t-9 44.5t-19.5 42t-25 33z" />
    <glyph glyph-name="nine" unicode="9" horiz-adv-x="774" 
d="M21 60q-3 15 2 37t16 47.5t27 51.5t36 50q3 -41 8 -71.5t14.5 -50t26.5 -29t44 -8.5q42 2 81 18t76.5 42.5t74 61t74.5 73.5q-27 -8 -57.5 -17.5t-60 -16t-56.5 -7t-48 10.5q-8 4 -13 7t-10 7.5t-11 13.5t-17 26q-11 16 -18.5 24t-13.5 13.5t-9.5 11t-6.5 17.5
q-9 40 0.5 87.5t33 96t59 96t78 87.5t90 70.5t96 45t95.5 11t88 -31.5q55 -37 75.5 -98t14.5 -135.5t-36 -156.5t-76.5 -160.5t-107.5 -149t-129 -122t-140 -78.5t-141 -18q-33 4 -61 21t-49 39t-33.5 45t-15.5 39zM342 366q7 -7 23.5 -6t38.5 8t47 19t47.5 26t41 29
t27.5 29q17 26 31 59t21.5 64.5t6.5 57.5t-14 38q-14 13 -41 6.5t-57.5 -25.5t-60.5 -46t-51 -55q-18 -25 -33 -56.5t-24 -61t-10.5 -53.5t7.5 -33z" />
    <glyph glyph-name="colon" unicode=":" horiz-adv-x="396" 
d="M-76 46q0 13 8.5 37.5t20.5 48.5t25 42t21 19q13 2 31.5 -2t35.5 -13t29 -22.5t14 -31.5q1 -14 -10 -35t-27.5 -47.5t-34.5 -56.5t-30 -61q-23 10 -39 24.5t-25.5 31.5t-14 34t-4.5 32zM236 318q-17 11 -33.5 16.5t-31.5 11.5t-27 16.5t-21 33.5q-4 10 7.5 39t30 61
t39.5 58t36 31q12 3 31.5 -2t39.5 -15t36.5 -22.5t22.5 -23.5q4 -8 -8.5 -30.5t-33 -51.5t-45 -61.5t-43.5 -60.5z" />
    <glyph glyph-name="semicolon" unicode=";" horiz-adv-x="366" 
d="M-103 -19q17 -2 26 0t16 6.5t14 11t20 13.5q17 9 25.5 26t14 34t10 30t12.5 15q13 3 32 0t38 -10.5t35 -20t22 -28.5q4 -11 -2 -27.5t-21 -34t-38 -34.5t-53 -29t-50 -14.5t-35.5 4t-30 21t-35.5 37.5zM284 318q-17 11 -33.5 16.5t-31.5 11.5t-27 16.5t-21 33.5
q-4 10 7.5 39t30 61t39.5 58t36 31q12 3 31.5 -2t39.5 -15t36.5 -22.5t22.5 -23.5q4 -8 -8.5 -30.5t-33 -51.5t-45 -61.5t-43.5 -60.5z" />
    <glyph glyph-name="less" unicode="&#x3c;" horiz-adv-x="870" 
d="M44 383q-3 18 11 50.5t37 60.5q4 -49 14 -73t42 -22q25 1 48.5 11t46 25.5t44.5 36.5t45 44q-17 -5 -35 -10.5t-35.5 -9.5t-34 -4.5t-28.5 6.5q-5 3 -8 4.5t-6 4t-7 8t-10 15.5t-11 15t-8.5 8t-6 6.5t-3.5 10.5q-7 32 5 71t37.5 77.5t60 72t73 53.5t77 22.5t71.5 -19.5
t45.5 -59t9 -81.5t-21.5 -93.5t-46 -96.5t-64.5 -89.5t-77.5 -73t-84 -47t-85 -11q-20 3 -36.5 13t-29 23.5t-20.5 27.5t-9 23zM236 566q6 -6 25 -1.5t41 14.5t41.5 24t27.5 26q10 16 18.5 36t13 39t4 34.5t-8.5 22.5t-24 3.5t-34.5 -15t-36.5 -27.5t-31 -33
q-11 -15 -20 -34t-14 -37t-6 -32t4 -20zM436 383q-3 18 11 50.5t37 60.5q4 -49 14 -73t42 -22q25 1 48.5 11t46 25.5t44.5 36.5t45 44q-17 -5 -35 -10.5t-35.5 -9.5t-34 -4.5t-28.5 6.5q-5 3 -8 4.5t-6 4t-7 8t-10 15.5t-11 15t-8.5 8t-6 6.5t-3.5 10.5q-7 32 5 71
t37.5 77.5t60 72t73 53.5t77 22.5t71.5 -19.5t45.5 -59t9 -81.5t-21.5 -93.5t-46 -96.5t-64.5 -89.5t-77.5 -73t-84 -47t-85 -11q-20 3 -36.5 13t-29 23.5t-20.5 27.5t-9 23zM628 566q6 -6 25 -1.5t41 14.5t41.5 24t27.5 26q10 16 18.5 36t13 39t4 34.5t-8.5 22.5t-24 3.5
t-34.5 -15t-36.5 -27.5t-31 -33q-11 -15 -20 -34t-14 -37t-6 -32t4 -20zM214 94q-11 6 -23.5 19.5t-21.5 29.5t-12 32.5t5 28.5q4 6 27 14t56.5 15t72 12.5t74 8t63.5 0.5t39 -10q18 -14 33.5 -25.5t28 -24.5t20.5 -29t11 -38q-21 3 -54.5 0t-71.5 -8.5t-78 -12t-74.5 -11
t-60 -6t-34.5 4.5z" />
    <glyph glyph-name="equal" unicode="=" horiz-adv-x="510" 
d="M48 219q-7 9 -13.5 23.5t-10.5 30t-4 29.5t6 22q5 7 24.5 13.5t46.5 12t59 8.5t62 3.5t54.5 -3.5t37.5 -12q30 -20 42 -48t18 -62q-15 2 -43.5 0.5t-63.5 -4.5t-72 -7t-68 -6.5t-51.5 -3t-23.5 3.5zM461 404q-16 7 -44.5 8.5t-62.5 -0.5t-70 -5.5t-66.5 -5.5t-52 -2
t-26.5 5q-9 9 -15.5 25.5t-8.5 34.5t0 35t9 26q5 7 25 11t48 5.5t60 1t61 -2.5t51.5 -5.5t31.5 -8.5q17 -9 28 -22t17 -29t9.5 -34t5.5 -37z" />
    <glyph glyph-name="greater" unicode="&#x3e;" horiz-adv-x="894" 
d="M113 311q-32 18 -42 58t-4 90.5t24.5 104.5t43.5 100q23 43 59.5 84t78 69t84 38t77.5 -8q44 -22 60 -65t12 -95t-24 -106.5t-48 -100.5q-27 -45 -64.5 -86.5t-79.5 -68t-87.5 -33t-89.5 18.5zM544 311q-32 18 -42 58t-4 90.5t24.5 104.5t43.5 100q23 43 59.5 84t78 69
t84 38t77.5 -8q44 -22 60 -65t12 -95t-24 -106.5t-48 -100.5q-27 -45 -64.5 -86.5t-79.5 -68t-87.5 -33t-89.5 18.5zM609 401q11 -8 32.5 2t46 31t48 49t39.5 55q17 28 34 64.5t25.5 70t4.5 59t-28 32.5q-17 5 -37.5 -9.5t-41.5 -39t-41 -56t-35 -60.5q-14 -26 -27.5 -57
t-22 -59.5t-9 -50.5t11.5 -31zM178 401q11 -8 33.5 2t48 31t50 49t40.5 55q17 28 33 64.5t23.5 70t2.5 59t-29 32.5q-17 5 -37.5 -9.5t-41.5 -39t-41 -56t-35 -60.5q-14 -26 -27.5 -57t-22 -59.5t-9 -50.5t11.5 -31zM232 94q-11 6 -23.5 19.5t-21.5 29.5t-12 32.5t5 28.5
q4 6 27 14t56.5 15t72 12.5t74 8t63.5 0.5t39 -10q18 -14 33.5 -25.5t28 -24.5t20.5 -29t11 -38q-21 3 -54.5 0t-71.5 -8.5t-78 -12t-74.5 -11t-60 -6t-34.5 4.5z" />
    <glyph glyph-name="question" unicode="?" horiz-adv-x="666" 
d="M186 -84q-19 14 -36 21.5t-30 16t-22.5 21.5t-13.5 37q-4 21 3 45.5t18 46t23 37t19 18.5q9 4 26 -7.5t35 -28.5t32.5 -35t17.5 -28q3 -9 -4.5 -24t-19.5 -34t-25.5 -41.5t-22.5 -44.5zM276 126q-15 22 -31.5 39t-30 32.5t-23 31.5t-11.5 35q-3 24 11.5 51t36 53t46.5 48
t44 34q13 9 39 22t56.5 29t61.5 35t54.5 39t34.5 40.5t3 41.5q-8 20 -34 23t-61.5 -6t-76 -28t-78 -43.5t-68 -51.5t-45.5 -53q-6 31 -17.5 54t-20.5 43t-13.5 41t3.5 48q6 23 32 47t65 46t87 39t98 25t99.5 5.5t90.5 -20t70 -52t40 -90.5q8 -43 -5 -82.5t-38.5 -75t-60 -66
t-69 -55t-65.5 -42t-50 -27.5q-35 -18 -61.5 -39t-47 -46t-36 -56t-29.5 -69z" />
    <glyph glyph-name="A" unicode="A" horiz-adv-x="694" 
d="M-84 78q4 33 27.5 83t59.5 109.5t81.5 124t93.5 128t96.5 121.5t90 103.5t73.5 75t48 35.5q10 4 36 -14.5t60.5 -44t74 -50.5t75.5 -35q-21 -56 -37.5 -104t-30 -95t-26.5 -96t-26 -107q-13 -55 -21.5 -103.5t-15 -96t-13.5 -97t-16 -105.5q-24 3 -42.5 13t-33.5 25
t-27 34.5t-23 41.5q-9 16 -10 31t1 30t4 31t-1 34q-70 -8 -128 -14q-25 -3 -49.5 -6t-45.5 -5.5t-36.5 -4.5t-22.5 -3q-18 -14 -42 -48.5t-45 -71.5q-26 -43 -51 -93q-18 18 -33.5 38t-26.5 42t-16 45.5t-2 48.5zM522 642q-55 -66 -107 -129q-22 -27 -45.5 -56.5t-46.5 -59
t-43.5 -57.5t-36.5 -52q28 5 61 8.5t62 7.5l66 8z" />
    <glyph glyph-name="B" unicode="B" horiz-adv-x="828" 
d="M-36 55q4 25 23 74t47 109.5t62 126t69 123.5q21 36 46.5 76t51.5 79.5t52 76t48.5 65t41 46.5t29.5 21q12 -10 25 -20q11 -9 24 -19t25 -18q23 24 61.5 38t77 20t70 6t41.5 -2q17 -4 38.5 -16t39.5 -29.5t29 -40t6 -48.5q-12 -65 -29.5 -108t-44.5 -76.5t-65.5 -64
t-92.5 -71.5q48 -15 71 -36t30.5 -44.5t5.5 -47.5t-5 -46q-6 -52 -35 -97t-72 -81t-95.5 -62.5t-104.5 -43.5t-100.5 -23t-82.5 -1q-23 3 -41 12.5t-34 23t-30.5 29.5t-30.5 32l-45 -92q-18 13 -38 27t-36 29.5t-25.5 33.5t-6.5 39zM341 428q17 -5 56.5 11t88.5 44t99.5 63
t88.5 68t56.5 60t3.5 38q-11 8 -40.5 0t-67 -24.5t-77 -37t-70.5 -37.5zM177 146q7 -12 32.5 -20.5t58 -11.5t67 -0.5t59.5 10.5q37 12 77.5 32.5t71 44t45 45t-0.5 35.5q-13 11 -33 12t-43.5 -3t-47.5 -11t-44.5 -13t-35 -8.5t-18.5 3.5q-16 12 -30 26q-12 11 -25 26
t-20 29z" />
    <glyph glyph-name="C" unicode="C" horiz-adv-x="672" 
d="M434 462q26 24 49 57.5t38 65.5t19.5 57.5t-6.5 34.5q-17 13 -44.5 -2t-61 -48.5t-70 -82.5t-70.5 -104t-63 -113t-47.5 -110t-23.5 -94.5t9 -66.5q4 -7 25.5 2.5t52 30t66.5 49.5t68.5 61t57.5 64.5t35 60.5q23 -6 45 -24.5t38.5 -40t24.5 -41t3 -28.5
q-29 -52 -72.5 -103.5t-94.5 -92t-105 -64.5t-102 -22q-26 1 -55 10.5t-57 28t-53.5 47t-44.5 68.5q-14 28 -12.5 81t15.5 116.5t40 131t61 125.5q38 64 82 122.5t94 105t106.5 77t119.5 36.5q47 5 82 -1.5t59.5 -24t40.5 -45t26 -64.5q4 -18 0.5 -49t-12 -67t-21.5 -73
t-27.5 -69t-28.5 -54t-25 -28q-35 9 -66 21q-26 11 -53.5 25t-41.5 34z" />
    <glyph glyph-name="D" unicode="D" horiz-adv-x="786" 
d="M92 -18q-3 -8 -9 -15t-12 -13q-7 -7 -15 -14q-9 1 -24 14.5t-29 34.5t-24.5 45.5t-9.5 46.5q0 13 11.5 41t30.5 67t44 85.5t52.5 95.5t56 98.5t54.5 93.5t48 80.5t36 59.5v84q48 20 96 36.5t91.5 26t81.5 9.5t67 -12q49 -21 86 -55t59.5 -76t30 -91.5t-1.5 -101.5
q-9 -49 -33 -109.5t-62.5 -124t-90 -125.5t-115 -113.5t-138 -88t-158.5 -48.5q-18 -3 -33.5 3t-30 16.5t-29 24t-30.5 25.5zM164 80q96 33 170.5 81t129 102t92 110.5t59.5 107t30.5 90.5t7.5 62q-2 21 -19.5 33t-41 15t-48 -1t-38.5 -14q-6 -4 -23 -30t-41 -66.5t-53 -91
t-59 -103t-58 -103t-51 -91.5t-38.5 -68t-18.5 -33z" />
    <glyph glyph-name="E" unicode="E" horiz-adv-x="681" 
d="M483 844q30 1 60.5 5.5t58 8t51 4.5t39.5 -4q63 -22 90 -72t27 -114q-13 3 -22 5t-23 4q-43 5 -81 1.5t-72 -11t-64.5 -16t-58.5 -13.5l-120 -180q28 8 56.5 16t54.5 12.5t48.5 4t38.5 -8.5q35 -19 58.5 -56t19.5 -88q-8 8 -19.5 7.5t-22.5 -1.5q-31 -3 -77.5 -12.5
t-93 -21.5t-86 -24.5t-55.5 -19.5q-24 -11 -40.5 -29t-29 -40.5t-24 -49.5t-26.5 -55q31 12 63 24t61.5 22t55.5 15t45 2q15 -2 32 -16t32 -35t25.5 -46.5t12.5 -52.5q-11 7 -18.5 9t-26.5 3q-8 0 -31 -8t-54.5 -20t-68 -25.5t-70.5 -25t-62.5 -17.5t-43.5 -3
q-46 9 -74.5 31t-48.5 62q-16 32 -20.5 62t5.5 61q15 49 48.5 117t76 143.5t90 151.5t89.5 142t75 114.5t47 69.5q8 2 17 -2.5t18 -11.5t18.5 -12.5t19.5 -5.5z" />
    <glyph glyph-name="F" unicode="F" horiz-adv-x="697" 
d="M425 866q36 -16 62 -27t44 -16q9 -2 32 2t51.5 10t56 11.5t45.5 4.5q23 -1 41 -16t32 -37.5t24.5 -49t19.5 -51.5q-9 2 -15 4t-18 4q-11 1 -47.5 -4t-83 -15t-94 -24t-80.5 -29l-134 -206q21 4 48 10t54 10.5t50 6.5t36 -2q46 -14 67 -51t32 -95q-11 5 -20 4.5t-22 1.5
q-14 2 -43.5 -2.5t-66 -12.5t-75.5 -19t-72.5 -22t-57.5 -21t-29 -16q-25 -31 -49 -68t-46.5 -77.5t-44 -81.5t-40.5 -80q-44 32 -76 75.5t-41 85.5q-1 5 11 33.5t33.5 73.5t51.5 103t65 121.5t74 129.5t78 127t76.5 114t70.5 91z" />
    <glyph glyph-name="G" unicode="G" horiz-adv-x="678" 
d="M230 -78q-50 -6 -94 6t-78 39.5t-56.5 70.5t-29.5 100q-5 41 6.5 105.5t39 138t71.5 150t104.5 141t138 111.5t171.5 62q41 6 85.5 -1t81 -26t60.5 -47t25 -64q0 -21 -9 -58t-23 -74.5t-31 -67t-32 -34.5q-29 -10 -68.5 4.5t-88.5 43.5q13 19 29.5 42t30 44t19.5 38
t-1 23q-27 23 -63 13.5t-75.5 -41t-80.5 -80t-78 -105.5t-67 -116.5t-48 -113t-21.5 -95t13.5 -62.5q8 -10 36 2t63.5 37t71.5 58.5t60 67.5q-11 -2 -28 -6.5t-33.5 -9.5t-29.5 -9t-17 -5q-2 15 -5.5 37t-5 44t-0.5 41t9 28q5 6 24.5 13t46 13t57 11t58.5 8.5t49.5 4
t30.5 -1.5q6 -2 17.5 -19.5t21.5 -41t17 -47t4 -36.5q-2 -11 -19 -39t-44.5 -64t-64 -75t-77.5 -72.5t-85.5 -57t-87.5 -28.5z" />
    <glyph glyph-name="H" unicode="H" horiz-adv-x="870" 
d="M-28 54q3 27 18 71t37 97.5t49.5 112.5t57.5 115q14 27 32 59t37.5 65.5t39.5 67.5t39 66q44 74 92 150q47 -16 80 -34q14 -8 27 -16.5t21.5 -18t11.5 -19.5t-2 -20q-13 -23 -28.5 -51t-32 -58t-33.5 -61t-33 -59q-38 -67 -77 -137l282 60q16 28 38.5 70t47.5 87.5
t50.5 91.5t49 82.5t42.5 59t30 23.5q23 1 48 -13t45 -31q24 -20 45 -46q-25 -41 -53.5 -89.5t-59 -102.5t-61 -110.5t-60.5 -111.5q-34 -63 -61 -117.5t-51 -107.5t-47.5 -109t-50.5 -122q-44 25 -67.5 57t-34.5 81q-6 28 -2 53t13 49t19.5 49t17.5 53l-276 -60l-126 -252
q-21 12 -42.5 24.5t-38.5 26.5t-26.5 32.5t-6.5 42.5z" />
    <glyph glyph-name="I" unicode="I" horiz-adv-x="440" 
d="M84 -98q-20 18 -41 35.5t-37.5 34t-26 31t-6.5 26.5q10 51 33 113t53 128.5t66 135.5t73 133.5t73 121.5t65.5 100.5t51.5 70t31 30.5q9 3 24.5 -2t33.5 -15.5t36 -25t32 -28.5t20.5 -26.5t1.5 -19.5q-16 -23 -49.5 -74.5t-77 -120.5t-93 -151.5t-98 -168.5t-92 -170.5
t-73.5 -157.5z" />
    <glyph glyph-name="J" unicode="J" horiz-adv-x="693" 
d="M170 342q-16 -32 -33 -74t-28 -82t-14 -72t9 -42q7 -7 25.5 -1t40 19.5t43 32.5t35.5 39q39 55 81.5 126t84 146.5t80 148.5t70 131.5t54 96t32.5 41.5q13 5 37 -7t48 -29q28 -20 59 -48q0 -9 -13.5 -43t-37 -84.5t-55.5 -113t-70 -130t-80.5 -134.5t-86.5 -126.5
t-88 -107t-85 -74.5q-47 -31 -94.5 -38.5t-90 3t-77 35t-56.5 57.5q-17 25 -23.5 56.5t-6.5 64.5t6.5 65t15.5 59.5t20 47.5t21 28q12 10 34 16.5t47.5 8.5t51.5 -2t44 -14z" />
    <glyph glyph-name="K" unicode="K" horiz-adv-x="806" 
d="M74 -90q-19 17 -36 30.5t-31.5 27.5t-24 31.5t-13.5 42.5q-2 13 14 54t44.5 100t65.5 130t77 143t79.5 140t73.5 121.5t58.5 86.5t34.5 35q13 3 34.5 -5.5t42 -22t36.5 -29t19 -27.5q4 -15 -12 -47t-41.5 -73.5t-56.5 -89t-58 -93.5l90 65t114 81.5l120 85t110 77
t83.5 56t40.5 22.5q22 3 37.5 -10.5t25 -34.5t12 -46t-2.5 -47q-2 -7 -30.5 -31t-75 -59t-105.5 -78t-120.5 -86.5t-120.5 -85t-106 -74.5q26 -24 60.5 -56.5t65.5 -66t54 -63.5t27 -48q9 -45 -9 -79t-48 -68q-8 11 -15 20.5t-18 18.5q-15 13 -46.5 39.5t-71.5 59.5t-86 68
t-90 64q-10 -9 -17.5 -14t-14 -9t-12.5 -7.5t-13 -8.5q-8 -6 -23 -29.5t-34.5 -57.5t-42 -74.5t-44.5 -78.5z" />
    <glyph glyph-name="L" unicode="L" horiz-adv-x="564" 
d="M504 33q-8 3 -14.5 6t-13 5t-14.5 2.5t-19 -1.5q-18 -3 -48.5 -13.5t-67 -23.5t-76 -26.5t-74.5 -24t-63 -15.5t-42 0q-20 6 -39 28.5t-34.5 52t-26 62t-14.5 59.5q-4 26 11 73t42 105.5t62.5 124.5t73.5 131q89 152 205 328q17 3 41 -6t47 -24.5t41 -35.5t23 -38
q4 -11 -15 -48.5t-51.5 -92t-73.5 -121.5t-82 -137t-77.5 -138t-59.5 -124q37 12 75.5 23t72.5 18.5t61.5 9.5t42.5 -4q17 -7 34.5 -22t32.5 -35.5t26 -45.5t14 -52z" />
    <glyph glyph-name="M" unicode="M" horiz-adv-x="1206" 
d="M-34 18q-8 9 -4 32.5t15 56t28.5 72t37 81t40.5 81t39 73.5q20 37 48 81.5t58.5 90.5t62 91t59 82t48 63t30.5 36q46 -14 86 -32q35 -16 70 -38t54 -50q-32 -100 -59 -191q-12 -39 -23.5 -79.5t-21.5 -78t-17.5 -70t-10.5 -55.5l552 600q40 -11 75.5 -30t62.5 -41
t44 -44.5t22 -40.5q2 -8 -8 -32t-28.5 -58.5t-42.5 -76t-50.5 -84.5t-52 -85.5l-46.5 -77.5q-29 -49 -53.5 -95.5t-48 -92t-46.5 -92.5t-50 -98q-20 9 -41.5 23t-39 31t-27.5 37t-6 41q5 28 20.5 67t37.5 83.5t47 90.5t49 88t43.5 77t30.5 56l-504 -594q-16 14 -31 23
t-28.5 19t-24.5 23.5t-18 36.5q-6 20 -6.5 72.5t5.5 121.5t18.5 146t30.5 146l-336 -588z" />
    <glyph glyph-name="N" unicode="N" horiz-adv-x="960" 
d="M396 833q8 4 27.5 -1t43 -15.5t48.5 -24t45 -27.5t32 -26t10 -19q-47 -135 -72 -226.5t-34.5 -153t-6 -100t13.5 -68.5q29 58 71 131.5t88.5 149.5t93.5 149.5t87.5 132t69.5 97t40 44.5q14 7 34 0t39 -21t33 -31t15 -30q1 -8 -16.5 -41t-47.5 -83t-69.5 -114t-83 -133.5
t-88 -141t-84.5 -137.5t-72.5 -122t-51.5 -95q-65 10 -117 39t-83 89q-21 40 -30 84.5t-9.5 89.5t5 89t13.5 85l-271 -485q-41 23 -71.5 58t-38.5 78q-2 9 13.5 46t42 91.5t61.5 122t73.5 137t77 136t72 119.5t59.5 87.5t38 39.5z" />
    <glyph glyph-name="O" unicode="O" horiz-adv-x="757" 
d="M9 54q-27 54 -27.5 123.5t20 145t58.5 152.5t89 145.5t112 123.5t126.5 87.5t132.5 37t131 -28.5q75 -39 108.5 -99t35.5 -132t-23 -151t-67.5 -156t-97.5 -146.5t-113.5 -122.5t-115 -84.5t-102.5 -32.5q-24 0 -43.5 4t-36 11.5t-32.5 16.5l-32 18q-16 8 -33.5 15.5
t-34 17t-31 22.5t-24.5 33zM189 96q11 -10 34 -4.5t51.5 22t61.5 42t64.5 56.5t59 64.5t47.5 65.5q27 45 55 97t43 101.5t10.5 91t-42.5 64.5q-30 18 -68.5 3.5t-78.5 -48.5t-77 -81.5t-64 -95.5q-28 -50 -53 -109.5t-40.5 -114t-18 -96.5t15.5 -58z" />
    <glyph glyph-name="P" unicode="P" horiz-adv-x="828" 
d="M101 -96q-16 11 -38 26t-42.5 31.5t-36 34t-18.5 34.5q-2 11 14 51t44 98.5t65 129.5t76.5 144.5t79 143.5t72.5 125t56 90.5t31 39.5q9 5 20 1.5t23.5 -11.5t25.5 -18.5t27 -19.5q45 19 92.5 33.5t94.5 13t94 -24t91 -76.5q39 -48 35.5 -114t-37 -135t-89.5 -135
t-122 -114.5t-134.5 -73t-126.5 -10.5q-21 5 -35.5 15t-25.5 23.5t-20.5 30t-20.5 33.5q-9 -10 -25 -35t-35 -59t-39.5 -73t-39.5 -76.5t-34 -70t-22 -52.5zM332 348q2 -7 4 -13.5t8 -10.5q13 -9 40 -2t61 24.5t72.5 44t75 56.5t67.5 62t51 61t26 52.5t-9 37.5
q-19 18 -51.5 18t-66 -7.5t-61.5 -19.5t-37 -18q-3 -2 -15.5 -18t-29.5 -40.5t-37 -55t-39 -61t-35 -59.5t-24 -51z" />
    <glyph glyph-name="Q" unicode="Q" horiz-adv-x="757" 
d="M-19 52q-22 61 -19.5 135.5t24.5 153t61 156t90 145t113 119.5t129 80t137.5 26.5t139.5 -41.5q61 -35 89.5 -91t31 -123t-17 -141.5t-54.5 -147.5t-82 -140t-98 -120q-4 -5 1 -10t15 -9t22.5 -6.5t24.5 -0.5t19 5t13.5 8t14 12.5t21.5 19.5q-1 -16 -4.5 -44.5
t-15.5 -57.5t-36.5 -53.5t-67.5 -31.5q-35 -6 -61 -1.5t-45.5 14.5t-34 21.5t-27.5 19.5q-12 -5 -28.5 -12.5t-34 -15t-33.5 -12.5t-26 -5q-24 0 -43 5.5t-35.5 13.5t-32 17.5t-31.5 19.5q-15 8 -32.5 15t-34 16.5t-30.5 23.5t-22 37zM162 82q6 -4 12 0.5t13.5 12.5t15.5 17
t17 15q22 12 36.5 14.5t25 1t17.5 -4t13 -0.5q10 3 33 23.5t50 48t53 58t41 54.5q19 29 37 65.5t32.5 74t24 74t12 66.5t-4 50.5t-23.5 27.5q-55 20 -105.5 8t-95.5 -46.5t-83.5 -85.5t-67.5 -109t-48.5 -117.5t-27 -110.5t-2.5 -87.5t25 -49.5z" />
    <glyph glyph-name="R" unicode="R" horiz-adv-x="762" 
d="M78 -95q-22 18 -42 35t-36 35t-25 37.5t-8 41.5q1 18 16.5 61t41 101t59 126t69 137t70.5 133.5t65 115t52 82.5t31 35q10 3 22 1t24.5 -7t24.5 -12l24 -14q52 12 97 25t84 11.5t74 -26.5t68 -88q22 -43 19.5 -88.5t-23 -90.5t-56.5 -88.5t-81 -81.5t-96 -69.5
t-101 -52.5q30 -24 58 -53t50.5 -57.5t36.5 -53t16 -40.5q2 -24 -3 -45t-15 -40.5t-24 -38.5t-30 -39q-16 24 -40.5 54.5t-53 63t-59.5 65.5t-60.5 61.5t-55 51.5t-43.5 36q-18 -27 -41.5 -71t-45.5 -91t-39.5 -91t-23.5 -71zM297 375q24 7 62 23.5t79 38.5t80.5 48.5t68 55
t40.5 57.5t-1 56q-8 15 -28.5 18t-46 -2.5t-51 -18.5t-43.5 -30q-20 -20 -42 -48t-43 -61t-40.5 -68t-34.5 -69z" />
    <glyph glyph-name="S" unicode="S" horiz-adv-x="719" 
d="M485 489q27 31 50.5 59.5t37 54.5t13.5 48t-20 40q-14 12 -39 6t-53 -23t-53.5 -40.5t-39.5 -47.5q-15 -24 -23.5 -49.5t-7 -52.5t15 -55t42.5 -56q17 -17 40.5 -31.5t47 -30t45 -35t35 -46.5t15.5 -64t-12 -87q-15 -54 -54 -91t-93.5 -56t-119.5 -20.5t-131 15.5
q-67 17 -111.5 47.5t-71 62.5t-37.5 60.5t-11 40.5q1 12 13.5 28t30.5 33.5t38 35.5t35 33q9 -43 34 -77t58 -58t70 -37.5t70.5 -15.5t59 7t35.5 31q12 25 4.5 43.5t-27 33.5t-46.5 30t-54.5 32t-51.5 39.5t-37 53.5q-31 76 -23 152t43.5 142.5t92 119t120.5 82.5t129.5 32
t119.5 -32q57 -36 79.5 -81.5t23 -93.5t-16.5 -94t-39 -82.5t-44.5 -59.5t-33.5 -24q-26 -4 -44 1.5t-34 17t-32 27t-38 32.5z" />
    <glyph glyph-name="T" unicode="T" horiz-adv-x="638" 
d="M166 -108q-21 18 -45 36t-44 35t-32.5 33t-10.5 28q12 61 47.5 142.5t82 167.5t97.5 170t94 150q-20 3 -52.5 -3t-65.5 -13t-60 -11t-36 2q-8 6 -17.5 26t-17 43t-10 43.5t3.5 26.5q22 22 75 39t120.5 27.5t141.5 16t140 4.5t115.5 -7.5t67.5 -19.5q9 -6 21.5 -22.5
t24.5 -37t21.5 -41.5t12.5 -36q-27 2 -68.5 0.5t-82 -5.5t-72.5 -9t-40 -11q-4 -3 -20 -29t-41 -68.5t-56 -98t-64.5 -117.5t-67.5 -127t-65 -126t-56 -114.5t-41 -93.5z" />
    <glyph glyph-name="U" unicode="U" horiz-adv-x="774" 
d="M-19 73q-8 21 -0.5 65t26 102t45.5 125t58 135t63 131.5t61 114.5t51.5 84.5t34.5 41.5q14 9 39 1t49 -23.5t41.5 -35t17.5 -33.5q-1 -15 -16 -49.5t-38.5 -80.5t-53.5 -100.5t-60 -110.5t-57.5 -109.5t-47 -98.5t-28 -77t-0.5 -45q7 -10 31 5t60.5 49.5t82 85t94.5 111
t98 128t93 135.5t80 134t58 123q24 -11 46.5 -21t41.5 -23t34.5 -29.5t26.5 -41.5q5 -13 -11.5 -55.5t-50 -103.5t-80 -135.5t-101 -150t-113.5 -147t-117 -127.5t-112.5 -90.5t-99.5 -36.5q-21 -1 -38 6t-32.5 18t-31 24t-33.5 25t-34.5 18.5t-31 13.5t-26 17.5t-19.5 30.5
z" />
    <glyph glyph-name="V" unicode="V" horiz-adv-x="746" 
d="M134 -96q-27 10 -54 29t-49 40t-36.5 41.5t-16.5 33.5q-5 29 1 78.5t19.5 111t32.5 130t40.5 136t44 129.5t42.5 110t36 77.5t24 31.5q12 3 36 -1t49.5 -14.5t47 -26.5t29.5 -36q2 -7 -7.5 -34t-27 -69.5t-40 -96.5t-44.5 -114.5t-41.5 -124.5t-31.5 -125
q59 77 126.5 154.5t135 150t131 136t115 112t87 78.5t47.5 35t34 -9.5t43 -37t35.5 -47.5t10.5 -41q-1 -5 -25.5 -30.5t-66 -67t-96.5 -96t-118.5 -117t-131.5 -130t-135 -136t-130 -135t-116 -125.5z" />
    <glyph glyph-name="W" unicode="W" horiz-adv-x="1161" 
d="M126 -75q-29 7 -54 24.5t-44.5 37.5t-31.5 38.5t-14 28.5t6.5 49t24.5 96t38 127t45.5 142t48 140.5t45.5 122.5t37.5 88.5t24.5 38.5q9 4 32 -2t47 -16.5t42 -22.5t17 -19q-2 -12 -13 -41.5t-27.5 -72.5t-37.5 -96t-42 -111t-40.5 -118.5t-34.5 -118.5q16 27 53.5 77.5
t87 112.5t106 129t109.5 126.5t98 106t71 66.5q25 -16 48 -29t41 -25.5t29.5 -26.5t13.5 -33q1 -11 -11 -46t-31 -83.5t-42 -106t-44 -113.5t-38 -105t-23 -80q37 52 93.5 121t120.5 141t129 142t119 125.5t90.5 89.5t44.5 35q13 2 30.5 -9.5t33.5 -29t27 -36.5t11 -33
q0 -5 -26 -36.5t-69 -80.5t-99 -112t-117.5 -132t-124 -140t-117.5 -136.5t-99 -121t-68 -93.5q-28 12 -53.5 29t-45.5 35t-35 34.5t-22 27.5q-6 9 -3 36.5t11.5 67t22.5 87.5t30 98t33 98.5t32 89.5q-18 -15 -46 -44.5t-62.5 -68.5t-72.5 -85t-76.5 -93t-75 -93t-67 -85
t-53 -68.5t-33.5 -44.5z" />
    <glyph glyph-name="X" unicode="X" horiz-adv-x="846" 
d="M-19 -96q-16 18 -27.5 41t-18.5 46.5t-9.5 45.5t-1.5 38q1 17 35 60t87 96.5t117.5 109t126.5 97.5q-2 38 -4 82.5t-2 90t1 88t4 76.5t7.5 56t11.5 27q10 6 34.5 4t50.5 -9t48.5 -17t28.5 -20q5 -8 5 -40t-0.5 -73t-1 -84t2.5 -73q24 18 57.5 41.5t72.5 49t80.5 51.5
t80.5 51q92 58 195 119q13 -18 26.5 -35.5t23.5 -35.5t15 -35.5t1 -34.5q-3 -12 -33 -35.5t-77 -55t-105 -68t-115 -75t-108 -76.5t-84 -71q3 -52 13 -107.5t25.5 -103t36.5 -81t48 -41.5q24 -7 39.5 -6t29 9t27.5 23.5t33 36.5q-14 -49 -48.5 -85t-78.5 -54.5t-91.5 -16.5
t-87.5 30q-31 21 -49.5 45.5t-31 55.5t-23 71.5t-25.5 94.5q-16 -9 -44.5 -29t-62 -47t-70 -57.5t-69 -61.5t-58 -59t-38.5 -49z" />
    <glyph glyph-name="Y" unicode="Y" horiz-adv-x="673" 
d="M101 -99q-20 12 -37 31t-29.5 39t-19.5 38t-7 30t14 41t37 65t52.5 73.5t61.5 66.5q-53 29 -75 82t-24 125q-1 36 5.5 76.5t18 79.5t26 74.5t29.5 63.5t29 45.5t24 20.5q16 4 39.5 -3t47.5 -21t43 -32t26 -34q5 -12 -11.5 -41t-38 -77t-39 -117t-13.5 -161
q106 121 199.5 214t164.5 158q83 76 152 132q16 -17 35.5 -28t36.5 -22.5t28.5 -26t13.5 -37.5q1 -11 -16.5 -30t-56.5 -55.5t-100.5 -95.5t-149.5 -150.5t-204 -220t-262 -303.5z" />
    <glyph glyph-name="Z" unicode="Z" horiz-adv-x="779" 
d="M628 -28q-7 2 -16 6t-18.5 8t-18.5 7t-16 3q-25 -1 -69 -10t-98 -21.5t-113.5 -25.5t-115 -21t-101.5 -8.5t-73 12.5q-22 10 -38.5 27.5t-27.5 39t-16 46.5t-5 49t37 62t96.5 85.5t136.5 101.5t158.5 110t160.5 111.5t143 105.5q-62 -7 -127.5 -19.5t-121.5 -22.5
t-96 -12t-51 12q-8 10 -17.5 32.5t-17 46.5t-12 44.5t-1.5 26.5q3 7 28 15.5t63.5 17.5t87 18t100.5 17t102.5 14t93 8.5t72.5 1t41 -7.5q15 -9 34.5 -35.5t36 -58t25 -62.5t0.5 -48q-8 -16 -45 -48.5t-93.5 -75.5t-127.5 -94.5t-146.5 -105.5t-150.5 -108t-139 -102
q149 34 238.5 39t115.5 -10q10 -6 26 -24.5t31.5 -43.5t28.5 -52.5t16 -50.5z" />
    <glyph glyph-name="a" unicode="a" 
d="M-70 89q4 26 22 64.5t45.5 84t62.5 95.5t72 98.5t74.5 93.5t69.5 80t56.5 57.5t36.5 27.5q7 3 27.5 -11t47.5 -33.5t57 -39t58 -27.5q-16 -43 -28.5 -80t-23.5 -73t-21 -74t-20 -83q-10 -42 -16 -79.5t-11.5 -74t-10.5 -74.5t-12 -81q-38 5 -59 29.5t-39 58.5
q-6 13 -7 24.5t0.5 22.5t3 23.5t-0.5 26.5q-53 -6 -98 -11q-19 -2 -38 -4.5t-35.5 -4.5t-28.5 -3.5t-17 -2.5q-14 -11 -32 -37t-35 -55q-19 -33 -40 -72q-27 29 -46 62.5t-14 71.5zM397 524q-42 -50 -82 -99q-34 -42 -71 -89.5t-62 -84.5q22 3 47.5 6.5t47.5 5.5q26 3 51 6z
" />
    <glyph glyph-name="b" unicode="b" horiz-adv-x="612" 
d="M-64 57q3 19 17 57t36 84.5t48 96.5t53 95q25 42 55.5 90t60 89.5t54.5 70t37 31.5q9 -8 19 -16q18 -14 38 -28q18 19 47.5 29.5t59.5 15t54 4.5t32 -1q13 -3 29.5 -12.5t30.5 -23t22.5 -31t4.5 -37.5q-9 -50 -22.5 -83t-34.5 -58.5t-50.5 -49.5t-71.5 -55
q37 -12 54.5 -28t23.5 -34t4.5 -36.5t-3.5 -35.5q-5 -40 -27.5 -74.5t-55.5 -62.5t-73 -48.5t-80.5 -33.5t-77.5 -17.5t-64 -0.5q-17 3 -31 10t-26 17.5t-23.5 22.5t-23.5 25l-35 -71q-14 10 -29 20.5t-27.5 22.5t-20 26t-4.5 30zM226 344q13 -4 43.5 8.5t68 34t76.5 48.5
t68 52.5t43.5 46t2.5 29.5q-9 6 -31.5 0t-51 -19t-59 -28.5t-54.5 -28.5zM100 127q6 -9 25.5 -15.5t44.5 -9t51 -0.5t46 8q28 9 59.5 25t55 34t34.5 34.5t-1 27.5q-15 13 -41.5 9.5t-53.5 -11t-49 -14t-27 0.5q-12 9 -23 20q-10 9 -19.5 20t-14.5 22z" />
    <glyph glyph-name="c" unicode="c" horiz-adv-x="486" 
d="M310 388q20 19 37.5 44.5t29.5 50.5t15.5 44.5t-5.5 26.5q-17 13 -49 -10.5t-68.5 -68.5t-72.5 -103.5t-62 -116t-37 -106t3 -73.5q3 -5 19.5 2t40 23t51 38.5t53 47t44.5 49.5t27 46q18 -5 35 -19t29.5 -30.5t18.5 -31.5t2 -22q-22 -40 -55.5 -79.5t-72.5 -70.5t-81 -50
t-79 -17q-20 1 -42 8t-43.5 21.5t-41 36t-34.5 52.5q-11 22 -10 63t12 89.5t31 100.5t47 97q29 49 63 94.5t72.5 81.5t82 59t91.5 28q73 8 109 -19.5t51 -84.5q3 -14 0.5 -38t-9.5 -51.5t-16.5 -56t-20.5 -53t-22 -42t-19 -21.5q-27 7 -51 16q-20 8 -41 19t-32 26z" />
    <glyph glyph-name="d" unicode="d" horiz-adv-x="564" 
d="M28 13q-4 -11 -15 -22q-5 -5 -12 -10q-7 0 -18.5 11t-22.5 26.5t-19 34.5t-7 36q0 13 15 47t38.5 79t52.5 97t57.5 100.5t53 89.5t39.5 65v65q37 15 74 28t70.5 20t63 7.5t51.5 -9.5q38 -17 66.5 -42.5t45.5 -58t23 -70.5t-1 -78q-7 -38 -25.5 -84.5t-48 -95.5t-69 -97
t-88.5 -87.5t-106.5 -67.5t-122.5 -37q-14 -2 -26 2t-23 12.5t-22.5 18.5t-23.5 20zM84 88q74 26 131 62.5t99.5 78.5t71 85t45.5 82t23.5 70t5.5 48q-1 16 -15 25t-32 12t-36.5 -0.5t-29.5 -10.5q-5 -3 -18 -23.5t-31.5 -51.5t-40.5 -69.5t-45 -79t-45 -79.5t-39.5 -71
t-29 -53t-14.5 -25z" />
    <glyph glyph-name="e" unicode="e" horiz-adv-x="504" 
d="M333 671q22 1 45.5 4.5t45 6.5t40 3.5t30.5 -3.5q48 -17 69 -55.5t21 -87.5q-10 2 -17 3.5t-18 3.5q-33 4 -62.5 1t-55.5 -8.5t-50 -12t-45 -10.5l-92 -139q21 6 43 12.5t42.5 10t37.5 3t29 -6.5q28 -15 45.5 -44t15.5 -67q-7 5 -15.5 5t-17.5 -1q-24 -2 -59.5 -9.5
t-71.5 -16.5t-66.5 -18.5t-42.5 -15.5q-19 -9 -31.5 -22.5t-22 -31t-18.5 -38t-20 -42.5q24 9 48.5 18.5t47 17t42.5 11.5t35 2q12 -2 25 -12.5t24.5 -26.5t19.5 -36t9 -41q-8 6 -13.5 7.5t-20.5 2.5q-6 0 -24 -6.5t-42 -15.5l-52 -19.5t-54.5 -19.5t-48 -13.5t-33.5 -2.5
q-35 8 -57 24.5t-38 47.5q-12 24 -16 47.5t4 47.5q12 38 38 90.5t58.5 110t69 116.5t69 109.5t57.5 88t36 53.5q6 2 13 -1.5t14.5 -9t14.5 -10t15 -4.5z" />
    <glyph glyph-name="f" unicode="f" horiz-adv-x="522" 
d="M294 676q28 -12 48 -21t34 -12q6 -2 24 1.5t40 8t43 8.5t35 3q18 -1 31.5 -12.5t24.5 -28.5t19.5 -37.5t14.5 -39.5q-7 1 -11.5 2.5t-13.5 3.5q-8 1 -36.5 -3t-64 -12t-72.5 -18.5t-62 -22.5l-103 -158q16 3 37 7.5t41.5 8t38.5 5t28 -1.5q35 -11 51 -39.5t25 -73.5
q-9 5 -15.5 4t-17.5 1t-33.5 -1.5t-50.5 -10t-58 -14.5t-55.5 -16.5t-44 -16.5t-22.5 -13q-38 -48 -74 -112t-65 -124q-34 25 -58.5 58.5t-31.5 65.5q-1 6 15 42.5t44 91.5t65 122t76.5 133t79.5 124.5t74 97.5z" />
    <glyph glyph-name="g" unicode="g" horiz-adv-x="529" 
d="M172 -29q-38 -5 -72 4t-60.5 30.5t-44 54.5t-22.5 77q-4 32 5 81.5t30.5 106t55 115.5t80.5 108.5t106 85.5t132 48q32 5 66 -1t62.5 -20t47 -36t18.5 -49q0 -16 -6.5 -44.5t-17.5 -57.5t-24 -51.5t-25 -26.5q-23 -8 -53 3.5t-68 33.5l22.5 31.5t23 34t15.5 29.5t-1 18
q-21 17 -48.5 10t-58 -31t-62 -62t-60 -81.5t-51.5 -89.5t-37 -87t-16.5 -73t10.5 -48q6 -8 27.5 1.5t48.5 28.5t55 45t47 52q-9 -1 -22 -4.5t-25.5 -7.5t-22.5 -7.5t-13 -3.5q-2 12 -4.5 28.5t-4 33.5t-0.5 31.5t7 21.5t35 15t63.5 14t65.5 8.5t41 -0.5q5 -1 13.5 -14.5
t16.5 -31.5t13 -36t3 -28q-2 -9 -15 -30.5t-34 -49t-49 -57.5t-60 -56t-66 -44t-67 -22z" />
    <glyph glyph-name="h" unicode="h" horiz-adv-x="616" 
d="M-63 61q3 21 14 54.5t28 75t38.5 86.5t44.5 89q11 21 24.5 45.5t28.5 50.5t30.5 52.5t30.5 50.5q34 57 71 115q35 -12 61 -26q22 -12 37.5 -27t7.5 -30q-20 -36 -46.5 -84t-51.5 -93q-29 -52 -59 -105l217 46q12 22 29.5 54t36.5 67.5t39 70.5t38 63t32.5 45.5t23.5 18.5
q18 1 36.5 -10t34.5 -24q18 -16 35 -35q-20 -31 -42 -69t-45 -79t-47 -84.5t-46 -86.5q-26 -48 -47 -90t-39.5 -83t-36.5 -84t-39 -94q-34 19 -52 43.5t-27 62.5q-5 22 -1.5 41t10 37.5t15 37.5t13.5 41l-212 -46l-97 -194q-16 9 -32.5 18.5t-29.5 20.5t-20.5 25t-5.5 33z
" />
    <glyph glyph-name="i" unicode="i" horiz-adv-x="330" 
d="M34 -47q-15 13 -31 26.5t-28.5 26.5t-20 24.5t-5.5 20.5q11 52 37.5 118.5t61.5 136.5t74 137.5t74 121.5t61 88.5t35 38.5q10 4 31.5 -6.5t41.5 -26t33.5 -32.5t7.5 -25q-12 -18 -38 -57.5t-59.5 -93t-71.5 -117t-75.5 -129.5t-71 -131t-56.5 -121z" />
    <glyph glyph-name="j" unicode="j" horiz-adv-x="531" 
d="M134 305q-12 -24 -25 -56.5t-22 -63.5t-11 -55.5t7 -32.5q6 -5 20 -0.5t30.5 15t33 25.5t27.5 30q30 42 62.5 97t64.5 112.5t61.5 114t54 101.5t42 74t25.5 32q10 4 28.5 -5t36.5 -23q21 -16 45 -37q0 -9 -18 -51.5t-48 -103t-69.5 -131t-83.5 -137t-90 -121t-88 -82.5
q-36 -24 -72.5 -29.5t-69 2t-59.5 26.5t-44 45q-19 29 -22 68t4 75.5t19.5 65.5t24.5 38q9 7 26 12.5t36.5 7t39.5 -1.5t34 -11z" />
    <glyph glyph-name="k" unicode="k" horiz-adv-x="600" 
d="M-3 -43q-14 13 -27.5 23.5t-24.5 21t-18.5 24t-10.5 32.5q-1 10 11.5 41.5t34 77t50 100t59 110t61.5 108t57 93.5t45 66.5t26 27.5q10 2 26.5 -4t32.5 -16.5t28.5 -23t14.5 -21.5q3 -12 -9 -36.5t-32 -56t-43.5 -68t-44.5 -72.5q28 20 69.5 50t87.5 63t92 65.5t84.5 59
t64.5 43t31 17.5q17 2 29 -8t19.5 -26.5t9.5 -36t-2 -35.5q-1 -5 -23.5 -24t-58 -46t-81 -59.5t-93 -66.5t-93 -66t-81.5 -57q20 -18 46.5 -43.5t50.5 -51t42 -48.5t21 -37q7 -35 -7 -61t-37 -53q-7 9 -12 16t-14 14q-12 10 -36 31t-54.5 46t-66 52t-69.5 49
q-15 -13 -24 -17.5t-20 -12.5q-6 -4 -17.5 -22.5t-26.5 -44.5t-32.5 -57t-34.5 -60z" />
    <glyph glyph-name="l" unicode="l" horiz-adv-x="439" 
d="M369 30q-13 4 -21 8t-25 1q-14 -2 -37 -10t-50 -18t-57 -20t-56 -18t-47.5 -12t-31.5 0q-15 5 -29 21.5t-26 39t-20 47t-11 44.5t8 55t31.5 79t47 93.5t55.5 98.5q67 114 154 247q13 3 31 -4t35 -19t31 -27t18 -28q3 -8 -11.5 -36.5t-38.5 -69.5t-55 -91t-62 -102.5
t-58.5 -104t-44.5 -93.5q28 9 56.5 17t54.5 13.5t46.5 7t31.5 -2.5q26 -11 51 -43t30 -73z" />
    <glyph glyph-name="m" unicode="m" horiz-adv-x="854" 
d="M-72 30q-9 10 1 44.5t29.5 79.5t44 93.5t45.5 87.5q15 28 36.5 62.5t45.5 70t48.5 70t45.5 63t37 49t23 27.5q34 -11 66 -25q27 -12 54 -29t42 -38q-25 -77 -46 -147q-9 -30 -18 -61t-16.5 -60t-13 -54t-8.5 -43l425 462q31 -9 58 -23.5t48 -31.5t34 -34.5t17 -30.5
q2 -6 -6 -25t-22 -45t-33 -58t-39 -65.5t-40 -66t-36 -59.5q-22 -38 -41 -73.5t-36.5 -71t-35.5 -71.5t-39 -75q-15 7 -32 17.5t-30 23.5t-21 28t-5 32q4 22 16 52t29 64.5t36.5 70t37.5 67.5t33.5 59t23.5 43l-388 -457q-12 10 -24 17.5t-22.5 15t-18.5 18t-14 27.5
q-5 16 -5 56.5t4.5 93t14 112t23.5 112.5l-259 -452z" />
    <glyph glyph-name="n" unicode="n" horiz-adv-x="695" 
d="M260 668q6 3 21 -1t33 -12t37.5 -18.5t34.5 -21t24.5 -20t7.5 -14.5q-36 -104 -55 -174.5t-26.5 -118t-5 -77t10.5 -52.5q23 45 55 101t67.5 114.5t72 115.5t67.5 102t53.5 74.5t30.5 34.5q11 6 26.5 0.5t30 -16.5t25.5 -24t12 -23q1 -6 -12.5 -31.5t-37 -64.5t-54 -88
t-64 -102.5t-67.5 -109t-65 -106t-55.5 -93.5t-39.5 -73q-51 8 -91 30t-63 69q-16 31 -23 65t-8 68.5t3.5 68.5t10.5 66l-208 -374q-32 18 -55.5 45t-29.5 60q-1 7 10.5 35t32 70.5t48 94.5t57 105.5t59 104.5t55.5 92t45.5 67.5t29.5 30.5z" />
    <glyph glyph-name="o" unicode="o" horiz-adv-x="610" 
d="M4 68q-21 41 -21 94.5t15.5 112t45 117.5t68.5 112t86 95.5t97.5 67.5t102 28t100.5 -22q58 -30 83.5 -76t27.5 -101.5t-17.5 -116.5t-52 -120t-75 -112.5t-87 -94.5t-88.5 -65.5t-79 -24.5q-19 0 -34 3t-27.5 8.5t-24.5 12.5t-25 14q-12 6 -25.5 12t-26.5 13.5
t-24.5 17.5t-18.5 25zM143 100q13 -11 44.5 3t68.5 43.5t73 68t59 75.5q21 34 42.5 74.5t33 78.5t8 69.5t-33.5 49.5q-23 14 -52.5 3t-60 -37t-59 -62.5t-49.5 -73.5q-21 -39 -40.5 -84.5t-31.5 -87.5t-14 -75t12 -45z" />
    <glyph glyph-name="p" unicode="p" horiz-adv-x="572" 
d="M27 -35q-12 9 -29 20.5t-33 24t-27.5 26t-14.5 26.5q-2 8 10.5 39t34 76t50 100t59 111.5t60.5 110t55.5 96t43.5 70t24 30.5q7 4 15.5 1.5t18 -9t19.5 -14.5t21 -15q35 15 71 26t72.5 10t72.5 -18t70 -59q30 -37 27.5 -88t-28.5 -104t-69 -104t-94 -88.5t-103.5 -56.5
t-97.5 -8q-32 8 -46.5 30.5t-31.5 48.5q-7 -7 -19 -26.5t-27 -46t-31 -56.5t-30 -58.5t-25.5 -53.5t-17.5 -41zM205 307q2 -5 3 -10.5t6 -7.5q13 -9 44.5 2.5t69.5 35.5t76.5 56t67 63.5t40.5 59t-3 41.5q-14 14 -39 14.5t-51 -5.5t-47.5 -15t-28.5 -14q-4 -3 -22.5 -28
t-41 -59.5t-43.5 -71t-31 -61.5z" />
    <glyph glyph-name="q" unicode="q" horiz-adv-x="606" 
d="M-10 63q-17 47 -15 104.5t19 118t47 120t69.5 111.5t87 92t99 61.5t106 20.5t107.5 -32q47 -27 69 -70t24 -95t-13.5 -109t-42.5 -113.5t-63 -108t-75 -92.5q-3 -3 0.5 -7t11 -7.5t17.5 -5t19 -0.5q10 2 15.5 4t10 6t10.5 10t17 15q-1 -12 -3.5 -34t-12 -44.5t-28.5 -41
t-52 -24.5q-27 -5 -46.5 -1t-34.5 11t-26.5 16t-21.5 15q-9 -4 -22 -9.5t-26.5 -11t-25.5 -9.5t-20 -4q-37 1 -60.5 14.5t-48.5 28.5q-12 6 -25.5 11.5t-26 13t-23.5 18t-17 28.5zM129 86q4 -3 9 0.5t10.5 9.5t12 13t13.5 12q17 9 28.5 11t19 1t13 -3.5t10.5 -0.5
q7 2 25 17.5t39 37t40.5 45.5t31.5 42q22 34 41.5 78.5t30.5 85.5t9.5 72t-21.5 39q-42 16 -81 6.5t-74 -36t-64 -66t-51.5 -84t-37.5 -90t-21 -85t-2 -67.5t19 -38z" />
    <glyph glyph-name="r" unicode="r" horiz-adv-x="541" 
d="M15 -48q-17 13 -32.5 26.5t-27.5 27.5t-19 29t-6 32q0 14 12 47t32 77.5t45.5 97t53 105.5t54.5 103t50 89t40 63.5t24 26.5q17 5 36 -4.5t37 -20.5q40 9 74.5 19.5t65 9t57.5 -20.5t52 -68t9.5 -102.5t-56 -103t-98 -91t-115.5 -65.5q22 -19 44 -41.5t39.5 -44
t28.5 -40.5t12 -31q3 -37 -14 -66t-42 -60q-18 28 -50.5 66t-67.5 75t-68 68.5t-54 46.5q-14 -21 -32 -54.5t-35 -70.5t-30.5 -70.5t-18.5 -54.5zM184 314q19 6 48 18.5t60.5 29.5t62 37.5t52.5 42.5t31 44t-1 43q-6 11 -22 13.5t-35.5 -2t-39.5 -14.5t-33 -23
q-15 -15 -32 -36.5t-33.5 -47t-31 -52.5t-26.5 -53z" />
    <glyph glyph-name="s" unicode="s" horiz-adv-x="528" 
d="M333 392q21 24 39 46.5t28.5 42t10.5 36.5t-15 31q-11 9 -30 4.5t-40.5 -17.5t-41.5 -31.5t-31 -36.5t-17.5 -37.5t-5.5 -40.5t11 -42.5t33 -43.5q20 -20 49 -35.5t53 -38.5t35 -58.5t-5 -93.5q-12 -42 -42 -70.5t-72 -43t-92 -15.5t-101 12t-85.5 36.5t-55 48
t-28.5 46.5t-8 31t10 21.5t23.5 26t29 27t27.5 25.5q7 -33 26 -59t44.5 -44.5t54 -29t54 -12t45 5.5t27.5 24q9 19 3.5 33t-20.5 26t-36 23t-42 24.5t-39.5 30.5t-28.5 41q-24 59 -17.5 117.5t33.5 109.5t70.5 91.5t92.5 63.5t99.5 24.5t92.5 -24.5q44 -27 61.5 -62.5
t17.5 -72t-13 -72t-30 -63.5t-34.5 -46t-25.5 -19q-20 -3 -34 1.5t-26 13.5t-24.5 21t-29.5 24z" />
    <glyph glyph-name="t" unicode="t" horiz-adv-x="480" 
d="M99 -54q-16 13 -34.5 27t-34 27.5t-25 25.5t-7.5 22q9 47 36 109.5t63 129t75.5 131t72.5 115.5q-16 2 -41 -2.5t-50.5 -10t-46 -8.5t-27.5 2q-6 4 -13.5 19.5t-13 33.5t-8 33.5t2.5 20.5q17 17 58 29.5t93 21t109 12.5t108 3.5t89 -5.5t52 -15q7 -5 16.5 -17.5t19 -28.5
t16.5 -32t9 -28q-21 1 -52.5 0t-63 -3.5t-56 -7t-30.5 -8.5q-4 -3 -24.5 -37t-50.5 -86.5t-65.5 -117.5t-69 -130.5t-62.5 -124.5t-45 -100z" />
    <glyph glyph-name="u" unicode="u" horiz-adv-x="642" 
d="M-20 58q-9 22 3.5 73.5t37.5 117.5t58 137.5t65 132.5t58.5 103.5t38.5 50.5q11 7 30 0.5t37.5 -18.5t32 -27t13.5 -25q-1 -16 -20.5 -56.5t-48 -93.5t-61 -112t-58 -111.5t-39 -91.5t-5.5 -52q7 -10 37.5 13.5t74 70t95 110t100.5 133t89.5 139t63.5 128.5
q38 -17 67.5 -34t46.5 -55q4 -10 -9 -42.5t-38.5 -79.5t-61 -104t-77.5 -115.5t-87.5 -113.5t-90.5 -98t-87 -70t-76 -28q-16 -1 -29 4.5t-25 13.5t-24.5 18.5t-25.5 19.5q-14 9 -26.5 14.5t-23.5 10.5t-20 13.5t-15 23.5z" />
    <glyph glyph-name="v" unicode="v" horiz-adv-x="599" 
d="M113 -52q-21 8 -41.5 22.5t-37.5 31t-28 32t-13 25.5q-5 30 4.5 87t27 125t40.5 139t45 130t40.5 97.5t27.5 40.5q9 3 27.5 -0.5t38 -11.5t36.5 -20.5t23 -27.5q3 -8 -15 -50t-42.5 -104t-50.5 -136t-40 -145q46 59 97.5 119t103.5 115.5t101 104.5t89 86.5t67 60.5
t36 27t26 -7t33.5 -28.5t27.5 -37t8 -31.5q-1 -5 -33.5 -38t-84.5 -84t-118 -116.5t-136 -135t-137.5 -139.5t-121.5 -131z" />
    <glyph glyph-name="w" unicode="w" horiz-adv-x="929" 
d="M110 -40q-22 6 -41 19t-34 28.5t-24.5 29.5t-10.5 22q-2 8 4.5 38t19 74t29 98t35 109t37 108t35 94.5t29 68t18.5 29.5q7 3 24.5 -1.5t36.5 -12.5t33 -17t13 -15q-2 -14 -19.5 -57.5t-41 -104t-48 -131t-41.5 -137.5q12 21 41 60t67 87t81.5 99.5t84.5 97.5t75.5 81
t54.5 51q19 -12 37 -22t31.5 -19.5t22.5 -20.5t10 -25q1 -9 -8 -36t-23.5 -64.5t-32.5 -82t-34.5 -87.5t-29 -80.5t-17.5 -61.5q21 30 51.5 68t65.5 79t72.5 83t74 81.5t70.5 74.5t60.5 61t43.5 41t22 16q10 1 23.5 -7.5t25.5 -22t20.5 -28.5t8.5 -25q0 -4 -20 -28.5
t-53 -62t-76.5 -86t-90.5 -102t-95 -108t-90.5 -105t-76 -93t-52.5 -71.5q-22 9 -41.5 22t-35 27t-27 27t-16.5 21q-5 7 -3 28t9 51.5t17.5 67.5t23 75.5t25.5 76t25 68.5q-19 -15 -50.5 -50t-69.5 -79.5t-78.5 -94.5t-76 -94.5t-62.5 -79.5t-38 -50z" />
    <glyph glyph-name="x" unicode="x" horiz-adv-x="690" 
d="M-33 -56q-12 14 -21 32t-14 36t-7.5 35t-1.5 29q1 13 27.5 46.5t67 74.5t90 83.5t97.5 74.5q-3 44 -4.5 98t0 102.5t6 83.5t12.5 40t26.5 3.5t39 -7t37.5 -13.5t22 -16q4 -6 4 -30.5t-1 -56t-1.5 -64.5t2.5 -56q19 14 45 32t56 37.5t62 39.5t62 39q71 44 150 92
q10 -14 20.5 -27.5t18 -27t11 -27.5t0.5 -27q-2 -9 -25 -27.5t-59.5 -42t-80.5 -52t-88.5 -58t-83.5 -58.5t-65 -55q3 -40 10.5 -82.5t19.5 -79.5t28.5 -63t36.5 -32q18 -5 30.5 -4.5t23 7t21 18t25.5 28.5q-11 -38 -37.5 -65.5t-60.5 -42t-70.5 -12.5t-67.5 23
q-24 16 -38 35t-24 43t-17.5 55t-19.5 73q-19 -11 -57 -39.5t-79 -63.5t-77 -71t-51 -60z" />
    <glyph glyph-name="y" unicode="y" horiz-adv-x="570" 
d="M87 -56q-15 10 -28 24.5t-23 29.5t-15 29t-5 23q0 10 11 32.5t28.5 50t40 56t47.5 51.5q-42 23 -58 63t-18 96q-1 28 4 59t13.5 61t20 57.5t23 49t22 35t18.5 15.5q12 4 30.5 -2t37 -16.5t33 -24.5t19.5 -26q4 -9 -8.5 -31.5t-29 -59.5t-30 -90t-10.5 -124
q81 93 153.5 165t126.5 122q63 58 117 101q13 -13 28 -21.5t28 -17t22 -19.5t10 -29q1 -9 -12.5 -23.5t-43.5 -42.5t-77.5 -74t-115.5 -116.5t-157 -169t-202 -233.5z" />
    <glyph glyph-name="z" unicode="z" horiz-adv-x="601" 
d="M487 -3q-5 1 -12 4.5l-14 7t-14 5.5t-13 2q-19 0 -53 -7.5t-75.5 -17t-87.5 -19.5t-88.5 -16t-78 -6.5t-56.5 9.5q-33 16 -50 51.5t-17 73.5q1 18 29 47.5t74 66t105.5 78t122 85t123 86t110.5 80.5q-48 -5 -98.5 -15t-93.5 -17.5t-74 -9t-39 9.5q-6 7 -13 24.5t-13 36.5
t-9.5 34.5t-1.5 19.5q4 7 35.5 16.5t78 18.5t101 17.5t104 13.5t86.5 5t48 -6q11 -7 26.5 -27.5t28 -45t19 -48t0.5 -36.5q-6 -12 -34.5 -37t-72 -58t-98.5 -73t-113 -81.5t-115.5 -83t-107.5 -78.5q115 26 184 29.5t89 -7.5q7 -5 19.5 -19t24.5 -33.5t21.5 -40.5t12.5 -39z
" />
    <glyph glyph-name="Adieresis" unicode="&#xc4;" 
d="M390 838q1 -10 -8.5 -26t-23 -34.5t-28 -38.5t-21.5 -38q-25 14 -37 30.5t-19 40.5q-3 12 3.5 30.5t17.5 36.5t22.5 31t19.5 14q9 1 21 -3t23.5 -11t20 -15.5t9.5 -16.5zM551 831q1 -10 -9 -26t-23.5 -34.5t-28 -38.5t-21.5 -38q-25 14 -36.5 30.5t-18.5 40.5
q-3 12 3.5 30.5t17 36.5t22.5 31t20 14t20.5 -3t24 -11t20 -15.5t9.5 -16.5zM576 589q-18 -48 -31.5 -87.5t-24 -77t-20.5 -76t-20 -82.5q-10 -42 -16.5 -79.5t-12 -75.5t-11 -78t-12.5 -88q-26 3 -44.5 11.5t-32.5 21.5t-25 29t-21 35q-6 11 -7 21.5t-0.5 21t2 21.5t1.5 24
q-16 -2 -45 -5.5t-59.5 -7t-57 -7t-37.5 -4.5q-14 -11 -32.5 -39t-35.5 -58q-20 -35 -41 -76q-38 40 -60 78t-17 80q5 35 35.5 92t74.5 123t96.5 134t100.5 124.5t86 94.5t55 44q7 3 28.5 -11t51 -34t64 -40t68.5 -29zM365 464q-16 -19 -35.5 -43t-39.5 -49.5t-40 -51.5
t-37 -50q30 4 59.5 7t43.5 5z" />
    <glyph glyph-name="Aring" unicode="&#xc5;" 
d="M518 691q-13 5 -24 15.5t-25 22t-34 22t-50 15.5q-30 -8 -48.5 -25t-30.5 -32.5t-19 -26t-13 -5.5q-7 5 -14 20.5t-11.5 33.5t-5.5 36t5 27q4 7 14.5 19.5t26.5 26t38 27t51 22.5q56 -17 82.5 -38.5t38.5 -42.5q14 -26 18 -54t1 -63zM575 588q-18 -48 -31.5 -87.5
t-24.5 -76.5t-21 -75t-20 -83q-10 -42 -16.5 -79.5t-11.5 -75t-10.5 -77.5t-12.5 -88q-26 3 -44 12t-31.5 22t-24 29t-20.5 34q-6 12 -7 22.5t-0.5 21t2 22t1.5 23.5q-15 -2 -44.5 -5.5t-60.5 -7t-58 -7t-38 -4.5q-14 -11 -32.5 -39.5t-35.5 -58.5q-20 -35 -41 -76
q-38 40 -59 77.5t-16 79.5q5 35 35 92t74.5 122.5t96.5 133t100 124t86 94.5t55 44q7 3 28.5 -11t50.5 -33.5t63.5 -39.5t67.5 -29zM371 474q-16 -20 -37 -45t-43 -53t-43.5 -56t-39.5 -53q32 5 64 8t46 5z" />
    <glyph glyph-name="Ccedilla" unicode="&#xc7;" horiz-adv-x="672" 
d="M434 462q26 24 49 57.5t38 65.5t19.5 57.5t-6.5 34.5q-17 13 -44.5 -2t-61 -48.5t-70 -82.5t-70.5 -104t-63 -113t-47.5 -110t-23.5 -94.5t9 -66.5q4 -7 25.5 2.5t52 30t66.5 49.5t68.5 61t57.5 64.5t35 60.5q23 -6 45 -24.5t38.5 -40t24.5 -41t3 -28.5
q-29 -52 -72.5 -103.5t-94.5 -92t-105 -64.5t-102 -22q-12 1 -34.5 7.5t-35.5 10.5q-5 1 -27.5 -18t-51 -47t-57 -59.5t-44.5 -56.5q-21 12 -40 27.5t-33 32t-21.5 31t-7.5 23.5q0 10 19.5 33t45.5 48.5t53 50t44 37.5q-6 9 -10.5 16t-9.5 18q-14 28 -12.5 81t15.5 116.5
t40 131t61 125.5q38 64 82 122.5t94 105t106.5 77t119.5 36.5q47 5 82 -1.5t59.5 -24t40.5 -45t26 -64.5q4 -18 0.5 -49t-12 -67t-21.5 -73t-27.5 -69t-28.5 -54t-25 -28q-35 9 -66 21q-26 11 -53.5 25t-41.5 34z" />
    <glyph glyph-name="Eacute" unicode="&#xc9;" horiz-adv-x="504" 
d="M540 833q-1 -11 -12.5 -25.5t-27.5 -32t-34 -38t-31 -42.5q-16 10 -25.5 23.5t-15 27.5t-6 28t1.5 25q1 10 11 27t22 33.5t24 28.5t18 12q10 0 23.5 -5.5t25.5 -14.5t19.5 -21.5t6.5 -25.5zM596 523q-20 5 -29 7t-20 4q-32 4 -60 1.5t-53 -8t-47.5 -12t-43.5 -10.5
l-71 -108q38 11 73.5 16t56.5 -6q30 -17 49.5 -51.5t16.5 -91.5q-19 13 -27.5 13.5t-15.5 -0.5q-23 -2 -58.5 -9t-70.5 -16t-65 -18.5t-42 -15.5q-30 -14 -44.5 -41t-29.5 -60q44 17 85 30t67 9q13 -2 28 -14t28 -32t22.5 -47t11.5 -60q-11 8 -18 12.5t-11.5 7t-9 3
t-10.5 0.5t-24.5 -6.5t-43 -16t-52.5 -20t-54 -19t-47.5 -13t-33.5 -2.5q-39 8 -63 26.5t-41 52.5q-13 26 -16.5 52t4.5 52q12 38 38 90.5t59 110.5t69.5 117.5t69.5 111t58.5 90t37.5 55.5q8 2 16 -1t15.5 -8t15.5 -10t16 -5q23 1 47 4.5t46.5 6t41 3t31.5 -3.5
q52 -17 75 -61t23 -109z" />
    <glyph glyph-name="Ntilde" unicode="&#xd1;" horiz-adv-x="695" 
d="M711 779q-20 -2 -33 -14t-30 -25.5t-42.5 -25t-71.5 -11.5q-34 0 -53 12.5t-34 27.5t-31 27.5t-44 12.5q-32 0 -55.5 -13.5t-40 -29.5t-27.5 -29t-17 -11q-8 2 -13.5 16.5t-9.5 33t-5 37.5t2 30q2 8 14.5 22.5t33.5 29t49.5 25.5t62.5 11q29 0 45 -14.5t29.5 -31.5
t30 -31.5t46.5 -14.5q40 0 62.5 13t37.5 20q7 3 20 -0.5t27.5 -13t27.5 -23.5t19 -30zM794 639q1 -6 -12.5 -32t-37 -65t-54 -89t-64.5 -104.5t-68.5 -111t-66 -108.5t-57 -96.5t-40.5 -76.5q-60 10 -103.5 34t-68.5 74q-25 49 -29.5 102.5t1.5 105.5l-181 -325
q-42 23 -68.5 53.5t-33.5 65.5q-1 7 11 36t33 72t48.5 96t57.5 108t60.5 107.5t57 94t46.5 68.5t30 31q7 3 23.5 -1.5t36.5 -14t41 -22t38 -25t27 -23t8 -16.5q-30 -87 -48 -149.5t-27 -107.5t-10.5 -75.5t2.5 -52.5q25 47 57 102.5t67 111.5t69.5 109.5t64 95.5t50 69
t28.5 32q13 6 31.5 0t36 -18.5t30 -27.5t14.5 -27z" />
    <glyph glyph-name="Odieresis" unicode="&#xd6;" horiz-adv-x="610" 
d="M439 859q1 -10 -8.5 -26t-23 -34.5t-28 -38.5t-21.5 -38q-25 14 -37 30.5t-19 40.5q-3 12 3.5 30.5t17.5 36.5t22.5 31t19.5 14q9 1 21 -3t23.5 -11t20 -15.5t9.5 -16.5zM600 852q1 -10 -9 -26t-23.5 -34.5t-28 -38.5t-21.5 -38q-25 14 -36.5 30.5t-18.5 40.5
q-3 12 3.5 30.5t17 36.5t22.5 31t20 14t20.5 -3t24 -11t20 -15.5t9.5 -16.5zM503 684q59 -31 86 -78.5t29 -104.5t-17.5 -120t-52.5 -124t-76.5 -116.5t-89.5 -98t-91 -67.5t-81 -25q-39 -1 -64.5 12t-52.5 27q-13 7 -27 13t-27.5 14.5t-25.5 19.5t-20 27q-21 42 -21.5 97
t15.5 115t46.5 121t71 115t89 97.5t100.5 69t105.5 29t103.5 -22.5zM432 552q-22 13 -49.5 2t-55.5 -36.5t-54.5 -61t-45.5 -70.5q-20 -37 -39.5 -80.5t-32 -83t-15 -70.5t10.5 -43q8 -7 24 -2.5t36.5 17.5t44 32.5t46 43t42.5 48t34 48.5q19 33 40.5 70.5t33.5 73t10 65.5
t-30 47z" />
    <glyph glyph-name="Udieresis" unicode="&#xdc;" horiz-adv-x="642" 
d="M439 838q1 -10 -8.5 -26t-23 -34.5t-28 -38.5t-21.5 -38q-25 14 -37 30.5t-19 40.5q-3 12 3.5 30.5t17.5 36.5t22.5 31t19.5 14q9 1 21 -3t23.5 -11t20 -15.5t9.5 -16.5zM600 831q1 -10 -9 -26t-23.5 -34.5t-28 -38.5t-21.5 -38q-25 14 -36.5 30.5t-18.5 40.5
q-3 12 3.5 30.5t17 36.5t22.5 31t20 14t20.5 -3t24 -11t20 -15.5t9.5 -16.5zM707 596q4 -10 -9 -43.5t-39 -82t-62.5 -107t-79 -118t-89 -116t-92 -101t-88.5 -72t-78 -28.5q-17 -1 -31 4.5t-27.5 14t-26.5 19t-27 20.5t-27.5 16t-25 12t-21 14.5t-15.5 25.5q-7 17 -1 51.5
t20.5 80t35.5 98.5t45.5 106t49.5 103.5t47.5 90.5t40.5 66.5t28 32.5q12 8 34.5 1t44 -21t37 -31t15.5 -29q-1 -15 -20.5 -55.5t-48.5 -92.5t-61 -110.5t-58 -109.5t-40 -90t-6 -52q6 -10 35 14t71 70.5t91 111t96 135t87.5 141.5t63.5 132q24 -11 44 -20.5t36.5 -21
t29 -25.5t21.5 -34z" />
    <glyph glyph-name="aacute" unicode="&#xe1;" 
d="M-70 89q4 26 22 64.5t45.5 84t62.5 95.5t72 98.5t74.5 93.5t69.5 80t56.5 57.5t36.5 27.5q7 3 27.5 -11t47.5 -33.5t57 -39t58 -27.5q-16 -43 -28.5 -80t-23.5 -73t-21 -74t-20 -83q-10 -42 -16 -79.5t-11.5 -74t-10.5 -74.5t-12 -81q-38 5 -59 29.5t-39 58.5
q-6 13 -7 24.5t0.5 22.5t3 23.5t-0.5 26.5q-53 -6 -98 -11q-19 -2 -38 -4.5t-35.5 -4.5t-28.5 -3.5t-17 -2.5q-14 -11 -32 -37t-35 -55q-19 -33 -40 -72q-27 29 -46 62.5t-14 71.5zM397 524q-42 -50 -82 -99q-34 -42 -71 -89.5t-62 -84.5q22 3 47.5 6.5t47.5 5.5q26 3 51 6z
M432 792q1 10 11 27t22 33.5t24 28.5t18 12q10 0 23.5 -5.5t25.5 -14.5t19.5 -21.5t6.5 -25.5q-1 -11 -12.5 -25.5t-27.5 -32t-34 -38t-31 -42.5q-16 10 -25.5 23.5t-15 27.5t-6 28t1.5 25z" />
    <glyph glyph-name="agrave" unicode="&#xe0;" 
d="M510 778q4 -23 -5 -53t-40 -51q-14 22 -31.5 42.5t-33.5 38t-27.5 32t-12.5 25.5q-1 13 6.5 25.5t19.5 21.5t25 14.5t24 5.5q6 0 18 -12t24 -28.5t21.5 -33.5t11.5 -27zM559 579q-16 -43 -28.5 -80t-23.5 -73t-21 -74t-20 -83q-10 -42 -16 -79.5t-11.5 -74t-10.5 -74.5
t-12 -81q-38 5 -59 29.5t-39 58.5q-6 13 -7 24.5t0.5 22.5t3 23.5t-0.5 26.5q-53 -6 -98 -11q-19 -2 -38 -4.5t-35.5 -4.5t-28.5 -3.5t-17 -2.5q-14 -11 -32 -37t-35 -55q-19 -33 -40 -72q-27 29 -46 62.5t-14 71.5q4 26 22 64.5t45.5 84t62.5 95.5t72 98.5t74.5 93.5
t69.5 80t56.5 57.5t36.5 27.5q7 3 27.5 -11t47.5 -33.5t57 -39t58 -27.5zM397 524q-42 -50 -82 -99q-34 -42 -71 -89.5t-62 -84.5q22 3 47.5 6.5t47.5 5.5q26 3 51 6z" />
    <glyph glyph-name="acircumflex" unicode="&#xe2;" 
d="M-70 89q4 26 22 64.5t45.5 84t62.5 95.5t72 98.5t74.5 93.5t69.5 80t56.5 57.5t36.5 27.5q7 3 27.5 -11t47.5 -33.5t57 -39t58 -27.5q-16 -43 -28.5 -80t-23.5 -73t-21 -74t-20 -83q-10 -42 -16 -79.5t-11.5 -74t-10.5 -74.5t-12 -81q-38 5 -59 29.5t-39 58.5
q-6 13 -7 24.5t0.5 22.5t3 23.5t-0.5 26.5q-53 -6 -98 -11q-19 -2 -38 -4.5t-35.5 -4.5t-28.5 -3.5t-17 -2.5q-14 -11 -32 -37t-35 -55q-19 -33 -40 -72q-27 29 -46 62.5t-14 71.5zM397 524q-42 -50 -82 -99q-34 -42 -71 -89.5t-62 -84.5q22 3 47.5 6.5t47.5 5.5q26 3 51 6z
M274 677q-7 5 -14 20.5t-11.5 33.5t-5.5 36t5 27q4 7 14.5 19.5t26.5 26t38 27t51 22.5q56 -17 82.5 -38.5t38.5 -42.5q14 -26 18 -54t1 -63q-13 5 -24 15.5t-25 22t-34 22t-50 15.5q-30 -8 -48.5 -25t-30.5 -32.5t-19 -26t-13 -5.5z" />
    <glyph glyph-name="adieresis" unicode="&#xe4;" 
d="M-70 89q4 26 22 64.5t45.5 84t62.5 95.5t72 98.5t74.5 93.5t69.5 80t56.5 57.5t36.5 27.5q7 3 27.5 -11t47.5 -33.5t57 -39t58 -27.5q-16 -43 -28.5 -80t-23.5 -73t-21 -74t-20 -83q-10 -42 -16 -79.5t-11.5 -74t-10.5 -74.5t-12 -81q-38 5 -59 29.5t-39 58.5
q-6 13 -7 24.5t0.5 22.5t3 23.5t-0.5 26.5q-53 -6 -98 -11q-19 -2 -38 -4.5t-35.5 -4.5t-28.5 -3.5t-17 -2.5q-14 -11 -32 -37t-35 -55q-19 -33 -40 -72q-27 29 -46 62.5t-14 71.5zM397 524q-42 -50 -82 -99q-34 -42 -71 -89.5t-62 -84.5q22 3 47.5 6.5t47.5 5.5q26 3 51 6z
M309 701q-25 14 -37 30.5t-19 40.5q-3 12 3.5 30.5t17.5 36.5t22.5 31t19.5 14q9 1 21 -3t23.5 -11t20 -15.5t9.5 -16.5q1 -10 -8.5 -26t-23 -34.5t-28 -38.5t-21.5 -38zM469 694q-25 14 -36.5 30.5t-18.5 40.5q-3 12 3.5 30.5t17 36.5t22.5 31t20 14t20.5 -3t24 -11
t20 -15.5t9.5 -16.5q1 -10 -9 -26t-23.5 -34.5t-28 -38.5t-21.5 -38z" />
    <glyph glyph-name="atilde" unicode="&#xe3;" 
d="M-70 89q4 26 22 64.5t45.5 84t62.5 95.5t72 98.5t74.5 93.5t69.5 80t56.5 57.5t36.5 27.5q7 3 27.5 -11t47.5 -33.5t57 -39t58 -27.5q-16 -43 -28.5 -80t-23.5 -73t-21 -74t-20 -83q-10 -42 -16 -79.5t-11.5 -74t-10.5 -74.5t-12 -81q-38 5 -59 29.5t-39 58.5
q-6 13 -7 24.5t0.5 22.5t3 23.5t-0.5 26.5q-53 -6 -98 -11q-19 -2 -38 -4.5t-35.5 -4.5t-28.5 -3.5t-17 -2.5q-14 -11 -32 -37t-35 -55q-19 -33 -40 -72q-27 29 -46 62.5t-14 71.5zM397 524q-42 -50 -82 -99q-34 -42 -71 -89.5t-62 -84.5q22 3 47.5 6.5t47.5 5.5q26 3 51 6z
M225 672q-8 2 -13.5 16.5t-9.5 33t-5 37.5t2 30q2 8 14.5 22.5t33.5 29t49.5 25.5t62.5 11q29 0 45 -14.5t29.5 -31.5t30 -31.5t46.5 -14.5q40 0 62.5 13t37.5 20q7 3 20 -0.5t27.5 -13t27.5 -23.5t19 -30q-20 -2 -33 -14t-30 -25.5t-42.5 -25t-71.5 -11.5q-34 0 -53 12.5
t-34 27.5t-31 27.5t-44 12.5q-32 0 -55.5 -13.5t-40 -29.5t-27.5 -29t-17 -11z" />
    <glyph glyph-name="aring" unicode="&#xe5;" 
d="M-70 89q4 26 22 64.5t45.5 84t62.5 95.5t72 98.5t74.5 93.5t69.5 80t56.5 57.5t36.5 27.5q7 3 27.5 -11t47.5 -33.5t57 -39t58 -27.5q-16 -43 -28.5 -80t-23.5 -73t-21 -74t-20 -83q-10 -42 -16 -79.5t-11.5 -74t-10.5 -74.5t-12 -81q-38 5 -59 29.5t-39 58.5
q-6 13 -7 24.5t0.5 22.5t3 23.5t-0.5 26.5q-53 -6 -98 -11q-19 -2 -38 -4.5t-35.5 -4.5t-28.5 -3.5t-17 -2.5q-14 -11 -32 -37t-35 -55q-19 -33 -40 -72q-27 29 -46 62.5t-14 71.5zM397 524q-42 -50 -82 -99q-34 -42 -71 -89.5t-62 -84.5q22 3 47.5 6.5t47.5 5.5q26 3 51 6z
M441 882q19 18 43.5 26.5t49 7t48 -12t41.5 -29.5q18 -20 26.5 -43.5t7.5 -48.5t-11.5 -48t-29.5 -41q-20 -18 -44 -26.5t-49 -7.5t-48.5 11t-41.5 30q-18 19 -26.5 43.5t-7 49t11.5 48t30 41.5zM503 818q-14 -13 -17.5 -32.5t10.5 -32.5q11 -11 26 -10t29 10
q17 11 23.5 29.5t-4.5 34.5t-32 15t-35 -14z" />
    <glyph glyph-name="ccedilla" unicode="&#xe7;" horiz-adv-x="672" 
d="M334 356q20 19 37.5 44.5t29.5 50t15.5 44t-5.5 26.5q-17 13 -48.5 -10.5t-68 -68.5t-73 -103.5t-62.5 -116t-36.5 -106t3.5 -73.5q3 -5 19.5 2t40 23t51 38.5t52.5 47t44 49.5t27 46q18 -5 35 -19t29.5 -30.5t19 -31.5t2.5 -22q-22 -40 -56 -79.5t-73 -70.5t-80.5 -50
t-78.5 -17q-9 1 -26.5 6t-27.5 8q-3 1 -20.5 -13.5t-40 -36.5t-44.5 -46t-34 -43q-17 9 -31 21t-24.5 24.5t-16.5 23.5t-6 18q0 8 15 25.5t35 37.5t41 39t34 29q-5 7 -8 12t-8 14q-11 22 -9.5 62.5t12.5 89.5t30.5 101t46.5 96q30 49 63.5 94.5t72 81.5t82 59t92.5 28
q73 8 109 -19.5t51 -84.5q3 -14 0.5 -38t-9.5 -51.5t-17 -56t-20.5 -53t-21.5 -42t-20 -21.5q-27 6 -51 16q-20 8 -41 19.5t-32 26.5z" />
    <glyph glyph-name="eacute" unicode="&#xe9;" horiz-adv-x="504" 
d="M333 671q22 1 45.5 4.5t45 6.5t40 3.5t30.5 -3.5q48 -17 69 -55.5t21 -87.5q-10 2 -17 3.5t-18 3.5q-33 4 -62.5 1t-55.5 -8.5t-50 -12t-45 -10.5l-92 -139q21 6 43 12.5t42.5 10t37.5 3t29 -6.5q28 -15 45.5 -44t15.5 -67q-7 5 -15.5 5t-17.5 -1q-24 -2 -59.5 -9.5
t-71.5 -16.5t-66.5 -18.5t-42.5 -15.5q-19 -9 -31.5 -22.5t-22 -31t-18.5 -38t-20 -42.5q24 9 48.5 18.5t47 17t42.5 11.5t35 2q12 -2 25 -12.5t24.5 -26.5t19.5 -36t9 -41q-8 6 -13.5 7.5t-20.5 2.5q-6 0 -24 -6.5t-42 -15.5l-52 -19.5t-54.5 -19.5t-48 -13.5t-33.5 -2.5
q-35 8 -57 24.5t-38 47.5q-12 24 -16 47.5t4 47.5q12 38 38 90.5t58.5 110t69 116.5t69 109.5t57.5 88t36 53.5q6 2 13 -1.5t14.5 -9t14.5 -10t15 -4.5zM390 799q1 10 11 27t22 33.5t24 28.5t18 12q10 0 23.5 -5.5t25.5 -14.5t19.5 -21.5t6.5 -25.5q-1 -11 -12.5 -25.5
t-27.5 -32t-34 -38t-31 -42.5q-16 10 -25.5 23.5t-15 27.5t-6 28t1.5 25z" />
    <glyph glyph-name="egrave" unicode="&#xe8;" horiz-adv-x="504" 
d="M333 671q22 1 45.5 4.5t45 6.5t40 3.5t30.5 -3.5q48 -17 69 -55.5t21 -87.5q-10 2 -17 3.5t-18 3.5q-33 4 -62.5 1t-55.5 -8.5t-50 -12t-45 -10.5l-92 -139q21 6 43 12.5t42.5 10t37.5 3t29 -6.5q28 -15 45.5 -44t15.5 -67q-7 5 -15.5 5t-17.5 -1q-24 -2 -59.5 -9.5
t-71.5 -16.5t-66.5 -18.5t-42.5 -15.5q-19 -9 -31.5 -22.5t-22 -31t-18.5 -38t-20 -42.5q24 9 48.5 18.5t47 17t42.5 11.5t35 2q12 -2 25 -12.5t24.5 -26.5t19.5 -36t9 -41q-8 6 -13.5 7.5t-20.5 2.5q-6 0 -24 -6.5t-42 -15.5l-52 -19.5t-54.5 -19.5t-48 -13.5t-33.5 -2.5
q-35 8 -57 24.5t-38 47.5q-12 24 -16 47.5t4 47.5q12 38 38 90.5t58.5 110t69 116.5t69 109.5t57.5 88t36 53.5q6 2 13 -1.5t14.5 -9t14.5 -10t15 -4.5zM447 792q4 -23 -5 -53t-40 -51q-14 22 -31.5 42.5t-33.5 38t-27.5 32t-12.5 25.5q-1 13 6.5 25.5t19.5 21.5t25 14.5
t24 5.5q6 0 18 -12t24 -28.5t21.5 -33.5t11.5 -27z" />
    <glyph glyph-name="ecircumflex" unicode="&#xea;" horiz-adv-x="504" 
d="M333 671q22 1 45.5 4.5t45 6.5t40 3.5t30.5 -3.5q48 -17 69 -55.5t21 -87.5q-10 2 -17 3.5t-18 3.5q-33 4 -62.5 1t-55.5 -8.5t-50 -12t-45 -10.5l-92 -139q21 6 43 12.5t42.5 10t37.5 3t29 -6.5q28 -15 45.5 -44t15.5 -67q-7 5 -15.5 5t-17.5 -1q-24 -2 -59.5 -9.5
t-71.5 -16.5t-66.5 -18.5t-42.5 -15.5q-19 -9 -31.5 -22.5t-22 -31t-18.5 -38t-20 -42.5q24 9 48.5 18.5t47 17t42.5 11.5t35 2q12 -2 25 -12.5t24.5 -26.5t19.5 -36t9 -41q-8 6 -13.5 7.5t-20.5 2.5q-6 0 -24 -6.5t-42 -15.5l-52 -19.5t-54.5 -19.5t-48 -13.5t-33.5 -2.5
q-35 8 -57 24.5t-38 47.5q-12 24 -16 47.5t4 47.5q12 38 38 90.5t58.5 110t69 116.5t69 109.5t57.5 88t36 53.5q6 2 13 -1.5t14.5 -9t14.5 -10t15 -4.5zM344 684q-7 5 -14 20.5t-11.5 33.5t-5.5 36t5 27q4 7 14.5 19.5t26.5 26t38 27t51 22.5q56 -17 82.5 -38.5t38.5 -42.5
q14 -26 18 -54t1 -63q-13 5 -24 15.5t-25 22t-34 22t-50 15.5q-30 -8 -48.5 -25t-30.5 -32.5t-19 -26t-13 -5.5z" />
    <glyph glyph-name="edieresis" unicode="&#xeb;" horiz-adv-x="504" 
d="M333 671q22 1 45.5 4.5t45 6.5t40 3.5t30.5 -3.5q48 -17 69 -55.5t21 -87.5q-10 2 -17 3.5t-18 3.5q-33 4 -62.5 1t-55.5 -8.5t-50 -12t-45 -10.5l-92 -139q21 6 43 12.5t42.5 10t37.5 3t29 -6.5q28 -15 45.5 -44t15.5 -67q-7 5 -15.5 5t-17.5 -1q-24 -2 -59.5 -9.5
t-71.5 -16.5t-66.5 -18.5t-42.5 -15.5q-19 -9 -31.5 -22.5t-22 -31t-18.5 -38t-20 -42.5q24 9 48.5 18.5t47 17t42.5 11.5t35 2q12 -2 25 -12.5t24.5 -26.5t19.5 -36t9 -41q-8 6 -13.5 7.5t-20.5 2.5q-6 0 -24 -6.5t-42 -15.5l-52 -19.5t-54.5 -19.5t-48 -13.5t-33.5 -2.5
q-35 8 -57 24.5t-38 47.5q-12 24 -16 47.5t4 47.5q12 38 38 90.5t58.5 110t69 116.5t69 109.5t57.5 88t36 53.5q6 2 13 -1.5t14.5 -9t14.5 -10t15 -4.5zM379 701q-25 14 -37 30.5t-19 40.5q-3 12 3.5 30.5t17.5 36.5t22.5 31t19.5 14q9 1 21 -3t23.5 -11t20 -15.5t9.5 -16.5
q1 -10 -8.5 -26t-23 -34.5t-28 -38.5t-21.5 -38zM539 694q-25 14 -36.5 30.5t-18.5 40.5q-3 12 3.5 30.5t17 36.5t22.5 31t20 14t20.5 -3t24 -11t20 -15.5t9.5 -16.5q1 -10 -9 -26t-23.5 -34.5t-28 -38.5t-21.5 -38z" />
    <glyph glyph-name="iacute" unicode="&#xed;" horiz-adv-x="330" 
d="M34 -47q-15 13 -31 26.5t-28.5 26.5t-20 24.5t-5.5 20.5q11 52 37.5 118.5t61.5 136.5t74 137.5t74 121.5t61 88.5t35 38.5q10 4 31.5 -6.5t41.5 -26t33.5 -32.5t7.5 -25q-12 -18 -38 -57.5t-59.5 -93t-71.5 -117t-75.5 -129.5t-71 -131t-56.5 -121zM285 827q1 10 11 27
t22 33.5t24 28.5t18 12q10 0 23.5 -5.5t25.5 -14.5t19.5 -21.5t6.5 -25.5q-1 -11 -12.5 -25.5t-27.5 -32t-34 -38t-31 -42.5q-16 10 -25.5 23.5t-15 27.5t-6 28t1.5 25z" />
    <glyph glyph-name="igrave" unicode="&#xec;" horiz-adv-x="330" 
d="M34 -47q-15 13 -31 26.5t-28.5 26.5t-20 24.5t-5.5 20.5q11 52 37.5 118.5t61.5 136.5t74 137.5t74 121.5t61 88.5t35 38.5q10 4 31.5 -6.5t41.5 -26t33.5 -32.5t7.5 -25q-12 -18 -38 -57.5t-59.5 -93t-71.5 -117t-75.5 -129.5t-71 -131t-56.5 -121zM412 799
q4 -23 -5 -53t-40 -51q-14 22 -31.5 42.5t-33.5 38t-27.5 32t-12.5 25.5q-1 13 6.5 25.5t19.5 21.5t25 14.5t24 5.5q6 0 18 -12t24 -28.5t21.5 -33.5t11.5 -27z" />
    <glyph glyph-name="icircumflex" unicode="&#xee;" horiz-adv-x="330" 
d="M34 -47q-15 13 -31 26.5t-28.5 26.5t-20 24.5t-5.5 20.5q11 52 37.5 118.5t61.5 136.5t74 137.5t74 121.5t61 88.5t35 38.5q10 4 31.5 -6.5t41.5 -26t33.5 -32.5t7.5 -25q-12 -18 -38 -57.5t-59.5 -93t-71.5 -117t-75.5 -129.5t-71 -131t-56.5 -121zM218 691
q-7 5 -14 20.5t-11.5 33.5t-5.5 36t5 27q4 7 14.5 19.5t26.5 26t38 27t51 22.5q56 -17 82.5 -38.5t38.5 -42.5q14 -26 18 -54t1 -63q-13 5 -24 15.5t-25 22t-34 22t-50 15.5q-30 -8 -48.5 -25t-30.5 -32.5t-19 -26t-13 -5.5z" />
    <glyph glyph-name="idieresis" unicode="&#xef;" horiz-adv-x="330" 
d="M34 -47q-15 13 -31 26.5t-28.5 26.5t-20 24.5t-5.5 20.5q11 52 37.5 118.5t61.5 136.5t74 137.5t74 121.5t61 88.5t35 38.5q10 4 31.5 -6.5t41.5 -26t33.5 -32.5t7.5 -25q-12 -18 -38 -57.5t-59.5 -93t-71.5 -117t-75.5 -129.5t-71 -131t-56.5 -121zM260 708
q-25 14 -37 30.5t-19 40.5q-3 12 3.5 30.5t17.5 36.5t22.5 31t19.5 14q9 1 21 -3t23.5 -11t20 -15.5t9.5 -16.5q1 -10 -8.5 -26t-23 -34.5t-28 -38.5t-21.5 -38zM420 694q-25 14 -36.5 30.5t-18.5 40.5q-3 12 3.5 30.5t17 36.5t22.5 31t20 14t20.5 -3t24 -11t20 -15.5
t9.5 -16.5q1 -10 -9 -26t-23.5 -34.5t-28 -38.5t-21.5 -38z" />
    <glyph glyph-name="ntilde" unicode="&#xf1;" horiz-adv-x="695" 
d="M260 668q6 3 21 -1t33 -12t37.5 -18.5t34.5 -21t24.5 -20t7.5 -14.5q-36 -104 -55 -174.5t-26.5 -118t-5 -77t10.5 -52.5q23 45 55 101t67.5 114.5t72 115.5t67.5 102t53.5 74.5t30.5 34.5q11 6 26.5 0.5t30 -16.5t25.5 -24t12 -23q1 -6 -12.5 -31.5t-37 -64.5t-54 -88
t-64 -102.5t-67.5 -109t-65 -106t-55.5 -93.5t-39.5 -73q-51 8 -91 30t-63 69q-16 31 -23 65t-8 68.5t3.5 68.5t10.5 66l-208 -374q-32 18 -55.5 45t-29.5 60q-1 7 10.5 35t32 70.5t48 94.5t57 105.5t59 104.5t55.5 92t45.5 67.5t29.5 30.5zM232 700q-8 2 -13.5 16.5
t-9.5 33t-5 37.5t2 30q2 8 14.5 22.5t33.5 29t49.5 25.5t62.5 11q29 0 45 -14.5t29.5 -31.5t30 -31.5t46.5 -14.5q40 0 62.5 13t37.5 20q7 3 20 -0.5t27.5 -13t27.5 -23.5t19 -30q-20 -2 -33 -14t-30 -25.5t-42.5 -25t-71.5 -11.5q-34 0 -53 12.5t-34 27.5t-31 27.5
t-44 12.5q-32 0 -55.5 -13.5t-40 -29.5t-27.5 -29t-17 -11z" />
    <glyph glyph-name="oacute" unicode="&#xf3;" horiz-adv-x="610" 
d="M4 68q-21 41 -21 94.5t15.5 112t45 117.5t68.5 112t86 95.5t97.5 67.5t102 28t100.5 -22q58 -30 83.5 -76t27.5 -101.5t-17.5 -116.5t-52 -120t-75 -112.5t-87 -94.5t-88.5 -65.5t-79 -24.5q-19 0 -34 3t-27.5 8.5t-24.5 12.5t-25 14q-12 6 -25.5 12t-26.5 13.5
t-24.5 17.5t-18.5 25zM143 100q13 -11 44.5 3t68.5 43.5t73 68t59 75.5q21 34 42.5 74.5t33 78.5t8 69.5t-33.5 49.5q-23 14 -52.5 3t-60 -37t-59 -62.5t-49.5 -73.5q-21 -39 -40.5 -84.5t-31.5 -87.5t-14 -75t12 -45zM411 806q1 10 11 27t22 33.5t24 28.5t18 12
q10 0 23.5 -5.5t25.5 -14.5t19.5 -21.5t6.5 -25.5q-1 -11 -12.5 -25.5t-27.5 -32t-34 -38t-31 -42.5q-16 10 -25.5 23.5t-15 27.5t-6 28t1.5 25z" />
    <glyph glyph-name="ograve" unicode="&#xf2;" horiz-adv-x="610" 
d="M4 68q-21 41 -21 94.5t15.5 112t45 117.5t68.5 112t86 95.5t97.5 67.5t102 28t100.5 -22q58 -30 83.5 -76t27.5 -101.5t-17.5 -116.5t-52 -120t-75 -112.5t-87 -94.5t-88.5 -65.5t-79 -24.5q-19 0 -34 3t-27.5 8.5t-24.5 12.5t-25 14q-12 6 -25.5 12t-26.5 13.5
t-24.5 17.5t-18.5 25zM143 100q13 -11 44.5 3t68.5 43.5t73 68t59 75.5q21 34 42.5 74.5t33 78.5t8 69.5t-33.5 49.5q-23 14 -52.5 3t-60 -37t-59 -62.5t-49.5 -73.5q-21 -39 -40.5 -84.5t-31.5 -87.5t-14 -75t12 -45zM587 785q4 -23 -5 -53t-40 -51q-14 22 -31.5 42.5
t-33.5 38t-27.5 32t-12.5 25.5q-1 13 6.5 25.5t19.5 21.5t25 14.5t24 5.5q6 0 18 -12t24 -28.5t21.5 -33.5t11.5 -27z" />
    <glyph glyph-name="ocircumflex" unicode="&#xf4;" horiz-adv-x="610" 
d="M4 68q-21 41 -21 94.5t15.5 112t45 117.5t68.5 112t86 95.5t97.5 67.5t102 28t100.5 -22q58 -30 83.5 -76t27.5 -101.5t-17.5 -116.5t-52 -120t-75 -112.5t-87 -94.5t-88.5 -65.5t-79 -24.5q-19 0 -34 3t-27.5 8.5t-24.5 12.5t-25 14q-12 6 -25.5 12t-26.5 13.5
t-24.5 17.5t-18.5 25zM143 100q13 -11 44.5 3t68.5 43.5t73 68t59 75.5q21 34 42.5 74.5t33 78.5t8 69.5t-33.5 49.5q-23 14 -52.5 3t-60 -37t-59 -62.5t-49.5 -73.5q-21 -39 -40.5 -84.5t-31.5 -87.5t-14 -75t12 -45zM302 677q-7 5 -14 20.5t-11.5 33.5t-5.5 36t5 27
q4 7 14.5 19.5t26.5 26t38 27t51 22.5q56 -17 82.5 -38.5t38.5 -42.5q14 -26 18 -54t1 -63q-13 5 -24 15.5t-25 22t-34 22t-50 15.5q-30 -8 -48.5 -25t-30.5 -32.5t-19 -26t-13 -5.5z" />
    <glyph glyph-name="odieresis" unicode="&#xf6;" horiz-adv-x="610" 
d="M4 68q-21 41 -21 94.5t15.5 112t45 117.5t68.5 112t86 95.5t97.5 67.5t102 28t100.5 -22q58 -30 83.5 -76t27.5 -101.5t-17.5 -116.5t-52 -120t-75 -112.5t-87 -94.5t-88.5 -65.5t-79 -24.5q-19 0 -34 3t-27.5 8.5t-24.5 12.5t-25 14q-12 6 -25.5 12t-26.5 13.5
t-24.5 17.5t-18.5 25zM143 100q13 -11 44.5 3t68.5 43.5t73 68t59 75.5q21 34 42.5 74.5t33 78.5t8 69.5t-33.5 49.5q-23 14 -52.5 3t-60 -37t-59 -62.5t-49.5 -73.5q-21 -39 -40.5 -84.5t-31.5 -87.5t-14 -75t12 -45zM358 722q-25 14 -37 30.5t-19 40.5q-3 12 3.5 30.5
t17.5 36.5t22.5 31t19.5 14q9 1 21 -3t23.5 -11t20 -15.5t9.5 -16.5q1 -10 -8.5 -26t-23 -34.5t-28 -38.5t-21.5 -38zM518 715q-25 14 -36.5 30.5t-18.5 40.5q-3 12 3.5 30.5t17 36.5t22.5 31t20 14t20.5 -3t24 -11t20 -15.5t9.5 -16.5q1 -10 -9 -26t-23.5 -34.5t-28 -38.5
t-21.5 -38z" />
    <glyph glyph-name="otilde" unicode="&#xf5;" horiz-adv-x="610" 
d="M4 68q-21 41 -21 94.5t15.5 112t45 117.5t68.5 112t86 95.5t97.5 67.5t102 28t100.5 -22q58 -30 83.5 -76t27.5 -101.5t-17.5 -116.5t-52 -120t-75 -112.5t-87 -94.5t-88.5 -65.5t-79 -24.5q-19 0 -34 3t-27.5 8.5t-24.5 12.5t-25 14q-12 6 -25.5 12t-26.5 13.5
t-24.5 17.5t-18.5 25zM143 100q13 -11 44.5 3t68.5 43.5t73 68t59 75.5q21 34 42.5 74.5t33 78.5t8 69.5t-33.5 49.5q-23 14 -52.5 3t-60 -37t-59 -62.5t-49.5 -73.5q-21 -39 -40.5 -84.5t-31.5 -87.5t-14 -75t12 -45zM253 679q-8 2 -13.5 16.5t-9.5 33t-5 37.5t2 30
q2 8 14.5 22.5t33.5 29t49.5 25.5t62.5 11q29 0 45 -14.5t29.5 -31.5t30 -31.5t46.5 -14.5q40 0 62.5 13t37.5 20q7 3 20 -0.5t27.5 -13t27.5 -23.5t19 -30q-20 -2 -33 -14t-30 -25.5t-42.5 -25t-71.5 -11.5q-34 0 -53 12.5t-34 27.5t-31 27.5t-44 12.5q-32 0 -55.5 -13.5
t-40 -29.5t-27.5 -29t-17 -11z" />
    <glyph glyph-name="uacute" unicode="&#xfa;" horiz-adv-x="642" 
d="M-20 58q-9 22 3.5 73.5t37.5 117.5t58 137.5t65 132.5t58.5 103.5t38.5 50.5q11 7 30 0.5t37.5 -18.5t32 -27t13.5 -25q-1 -16 -20.5 -56.5t-48 -93.5t-61 -112t-58 -111.5t-39 -91.5t-5.5 -52q7 -10 37.5 13.5t74 70t95 110t100.5 133t89.5 139t63.5 128.5
q38 -17 67.5 -34t46.5 -55q4 -10 -9 -42.5t-38.5 -79.5t-61 -104t-77.5 -115.5t-87.5 -113.5t-90.5 -98t-87 -70t-76 -28q-16 -1 -29 4.5t-25 13.5t-24.5 18.5t-25.5 19.5q-14 9 -26.5 14.5t-23.5 10.5t-20 13.5t-15 23.5zM432 792q1 10 11 27t22 33.5t24 28.5t18 12
q10 0 23.5 -5.5t25.5 -14.5t19.5 -21.5t6.5 -25.5q-1 -11 -12.5 -25.5t-27.5 -32t-34 -38t-31 -42.5q-16 10 -25.5 23.5t-15 27.5t-6 28t1.5 25z" />
    <glyph glyph-name="ugrave" unicode="&#xf9;" horiz-adv-x="642" 
d="M-20 58q-9 22 3.5 73.5t37.5 117.5t58 137.5t65 132.5t58.5 103.5t38.5 50.5q11 7 30 0.5t37.5 -18.5t32 -27t13.5 -25q-1 -16 -20.5 -56.5t-48 -93.5t-61 -112t-58 -111.5t-39 -91.5t-5.5 -52q7 -10 37.5 13.5t74 70t95 110t100.5 133t89.5 139t63.5 128.5
q38 -17 67.5 -34t46.5 -55q4 -10 -9 -42.5t-38.5 -79.5t-61 -104t-77.5 -115.5t-87.5 -113.5t-90.5 -98t-87 -70t-76 -28q-16 -1 -29 4.5t-25 13.5t-24.5 18.5t-25.5 19.5q-14 9 -26.5 14.5t-23.5 10.5t-20 13.5t-15 23.5zM510 778q4 -23 -5 -53t-40 -51q-14 22 -31.5 42.5
t-33.5 38t-27.5 32t-12.5 25.5q-1 13 6.5 25.5t19.5 21.5t25 14.5t24 5.5q6 0 18 -12t24 -28.5t21.5 -33.5t11.5 -27z" />
    <glyph glyph-name="ucircumflex" unicode="&#xfb;" horiz-adv-x="642" 
d="M-20 58q-9 22 3.5 73.5t37.5 117.5t58 137.5t65 132.5t58.5 103.5t38.5 50.5q11 7 30 0.5t37.5 -18.5t32 -27t13.5 -25q-1 -16 -20.5 -56.5t-48 -93.5t-61 -112t-58 -111.5t-39 -91.5t-5.5 -52q7 -10 37.5 13.5t74 70t95 110t100.5 133t89.5 139t63.5 128.5
q38 -17 67.5 -34t46.5 -55q4 -10 -9 -42.5t-38.5 -79.5t-61 -104t-77.5 -115.5t-87.5 -113.5t-90.5 -98t-87 -70t-76 -28q-16 -1 -29 4.5t-25 13.5t-24.5 18.5t-25.5 19.5q-14 9 -26.5 14.5t-23.5 10.5t-20 13.5t-15 23.5zM323 691q-7 5 -14 20.5t-11.5 33.5t-5.5 36t5 27
q4 7 14.5 19.5t26.5 26t38 27t51 22.5q56 -17 82.5 -38.5t38.5 -42.5q14 -26 18 -54t1 -63q-13 5 -24 15.5t-25 22t-34 22t-50 15.5q-30 -8 -48.5 -25t-30.5 -32.5t-19 -26t-13 -5.5z" />
    <glyph glyph-name="udieresis" unicode="&#xfc;" horiz-adv-x="642" 
d="M-20 58q-9 22 3.5 73.5t37.5 117.5t58 137.5t65 132.5t58.5 103.5t38.5 50.5q11 7 30 0.5t37.5 -18.5t32 -27t13.5 -25q-1 -16 -20.5 -56.5t-48 -93.5t-61 -112t-58 -111.5t-39 -91.5t-5.5 -52q7 -10 37.5 13.5t74 70t95 110t100.5 133t89.5 139t63.5 128.5
q38 -17 67.5 -34t46.5 -55q4 -10 -9 -42.5t-38.5 -79.5t-61 -104t-77.5 -115.5t-87.5 -113.5t-90.5 -98t-87 -70t-76 -28q-16 -1 -29 4.5t-25 13.5t-24.5 18.5t-25.5 19.5q-14 9 -26.5 14.5t-23.5 10.5t-20 13.5t-15 23.5zM358 701q-25 14 -37 30.5t-19 40.5q-3 12 3.5 30.5
t17.5 36.5t22.5 31t19.5 14q9 1 21 -3t23.5 -11t20 -15.5t9.5 -16.5q1 -10 -8.5 -26t-23 -34.5t-28 -38.5t-21.5 -38zM518 694q-25 14 -36.5 30.5t-18.5 40.5q-3 12 3.5 30.5t17 36.5t22.5 31t20 14t20.5 -3t24 -11t20 -15.5t9.5 -16.5q1 -10 -9 -26t-23.5 -34.5t-28 -38.5
t-21.5 -38z" />
    <glyph glyph-name="cent" unicode="&#xa2;" horiz-adv-x="602" 
d="M323 410q14 13 26.5 31t20.5 35.5t10.5 31.5t-3.5 19q-12 9 -34 -7.5t-47.5 -48t-51 -72.5t-44 -81.5t-26 -74.5t2.5 -51q2 -4 14 1t28.5 16.5t35.5 27t36.5 32.5t31.5 34.5t19 32.5q12 -3 24 -13t20.5 -21.5t13 -22t1.5 -15.5q-15 -28 -38.5 -55.5t-51 -49.5t-56.5 -35
t-55 -12q-28 2 -60.5 21t-52.5 62q-8 15 -7 43.5t8.5 63t21.5 71t33 67.5q21 34 44.5 66t50.5 57t57 41.5t64 19.5q51 5 76 -14t36 -59q4 -15 -2 -44t-16 -58t-22 -53t-21 -28q-19 5 -36 11q-14 5 -28.5 12.5t-22.5 18.5zM565 731q-1 -9 -11 -21.5t-23.5 -27.5t-28.5 -32
t-27 -36q-26 17 -34 42.5t-4 45.5q1 8 9 22.5t18.5 29t20.5 24.5t16 10q9 0 20.5 -5t21.5 -12.5t16.5 -18t5.5 -21.5zM134 73q-1 -9 -11 -21.5t-23.5 -27.5t-28.5 -32t-27 -36q-26 18 -34 43.5t-4 44.5q1 8 9.5 22.5t19 29t20.5 24.5t15 10q9 0 20.5 -5t21.5 -12.5
t16.5 -17.5t5.5 -22z" />
    <glyph glyph-name="bullet" unicode="&#x2022;" horiz-adv-x="324" 
d="M163 265q-40 23 -71.5 56t-42.5 71q-5 19 6 49.5t28.5 59.5t37 51t31.5 23q13 1 37 -7.5t47 -22t40.5 -29t19.5 -28.5q2 -17 -14 -43t-38.5 -56t-45.5 -62.5t-35 -61.5z" />
    <glyph glyph-name="registered" unicode="&#xae;" horiz-adv-x="847" 
d="M80 78q-35 64 -44.5 137.5t1 148.5t40 147t74 133t101.5 107t122.5 67.5t137.5 15.5t146 -48q71 -40 109 -99.5t48.5 -129t-3.5 -144t-46.5 -145t-81 -132.5t-107 -106t-124.5 -65.5t-133 -10.5q-42 7 -71 18t-58 27q-14 7 -29.5 14t-30.5 16t-28.5 20.5t-22.5 28.5z
M215 75q17 -19 46.5 -21.5t65 8t74 32t75 50t68 61.5t51.5 66q18 31 39 68t38 76t27 79.5t7.5 78t-21 71t-58.5 59.5q-49 33 -103.5 26.5t-106 -37t-95.5 -78t-72 -98.5q-29 -51 -50.5 -112t-29 -121t2 -114.5t42.5 -93.5zM277 176q-21 17 -38 33.5t-16 38.5q1 11 14 43.5
t32.5 74.5t43.5 88t45.5 84.5t38 64.5t22.5 28q11 3 23 -2.5t23 -12.5q25 6 47 12t41 5.5t36 -12.5t33 -43t6.5 -65t-34.5 -65t-60.5 -57t-72.5 -41q22 -28 31.5 -48t11.5 -35q2 -23 -8.5 -41.5t-26.5 -37.5q-12 18 -27 39t-31 41.5t-32 38t-29 26.5q-9 -13 -20 -34.5
t-21.5 -44.5t-19.5 -44t-12 -34zM383 403q18 6 49 20.5t59 33.5t45 40.5t7 41.5q-3 7 -13.5 8.5t-23 -1.5t-25 -9t-20.5 -15q-9 -9 -19.5 -23t-21 -30t-20.5 -33t-17 -33z" />
    <glyph glyph-name="copyright" unicode="&#xa9;" horiz-adv-x="854" 
d="M88 78q-35 64 -45 137t1 148t40.5 147t73.5 133t101 107t122.5 67.5t137.5 15.5t146 -48q71 -40 109 -99.5t48.5 -129t-3.5 -144t-46.5 -145t-81 -132.5t-107 -105.5t-124 -65t-132.5 -10.5q-42 7 -71 17.5t-59 27.5q-14 7 -29.5 14t-30.5 15.5t-28 20.5t-22 29zM223 75
q17 -20 46 -22.5t64.5 8t74.5 32t75.5 50t68 61.5t51.5 67q18 31 39 67.5t37.5 75.5t26.5 79t7.5 78t-20.5 71.5t-58 60.5q-50 32 -104.5 26t-106 -37t-95.5 -78.5t-72 -97.5q-29 -52 -50.5 -113t-29 -121t2 -114t43.5 -93zM470 439q13 13 25 30.5t20 34t10.5 29.5t-3.5 18
q-11 9 -32.5 -7t-46 -46t-49 -69.5t-42 -78.5t-25 -71.5t2.5 -49.5q3 -5 25 8t49 34.5t51.5 48t32.5 47.5q12 -3 23.5 -12.5t20 -20.5t12.5 -21t2 -14q-15 -27 -38 -54t-49 -48t-54.5 -34t-53.5 -11q-27 1 -58 19.5t-51 60.5q-7 15 -6.5 42.5t8 60.5t21 67.5t31.5 64.5
q20 33 43 64t49 55.5t55 40t62 18.5q49 6 73.5 -13t34.5 -58q3 -14 -2.5 -41.5t-15 -56t-21 -51t-20.5 -26.5q-18 4 -34 10q-14 5 -28 12t-22 18z" />
    <glyph glyph-name="trademark" unicode="&#x2122;" horiz-adv-x="1204" 
d="M161 301q-12 10 -26 21t-26 21.5t-19.5 19.5t-5.5 17q7 36 28 83.5t48.5 98.5t57.5 100t55 88q-12 1 -31 -2t-38.5 -7t-35.5 -6.5t-21 1.5q-5 3 -10.5 15t-10 25.5t-6 25.5t2.5 16q13 13 44 22.5t71 16t83.5 9.5t82.5 2.5t68 -4.5t40 -11q5 -4 12.5 -13.5t14.5 -21.5
t12.5 -24.5t6.5 -21.5q-16 1 -40 0.5t-48 -3t-43 -5.5t-23 -6q-3 -2 -18.5 -28t-38.5 -66.5t-50 -90.5t-53 -100t-48.5 -95.5t-34.5 -76.5zM429 365q-7 8 0.5 34.5t22.5 61t33.5 71.5t35.5 67q17 33 44.5 74.5t54.5 80.5t49.5 68.5t30.5 37.5q26 -8 51 -19q20 -9 41.5 -21.5
t32.5 -29.5q-19 -59 -35 -113q-7 -23 -14 -46.5t-13 -45.5t-10.5 -41.5t-6.5 -32.5l325 354q24 -7 45 -18.5t36.5 -24.5t26 -26t13.5 -23q2 -8 -12 -35.5t-35 -63.5t-45 -75.5t-43 -70.5q-17 -29 -31.5 -56t-28 -54t-27 -54.5t-29.5 -57.5q-12 5 -25 13t-23 18t-16 22t-4 24
q4 25 22.5 63.5t40 79t42.5 76t30 54.5l-297 -350q-9 8 -18 13t-17 11t-14.5 14t-10.5 21q-4 12 -4 43t3.5 71.5t10.5 85.5t18 86l-198 -345z" />
    <glyph glyph-name="ellipsis" unicode="&#x2026;" horiz-adv-x="690" 
d="M-8 -105q-32 18 -47.5 39.5t-24.5 52.5q-4 15 4.5 39.5t22.5 47.5t29.5 40.5t25.5 18.5q11 1 27 -4.5t31 -14.5t26 -20t12 -21q1 -14 -11.5 -34.5t-30.5 -44.5t-36 -50t-28 -49zM228 -105q-32 18 -47.5 39.5t-24.5 52.5q-4 15 4.5 39.5t22.5 47.5t29.5 40.5t25.5 18.5
q11 1 27 -4.5t31 -14.5t26 -20t12 -21q1 -14 -11.5 -34.5t-30.5 -44.5t-36 -50t-28 -49zM464 -105q-32 18 -47.5 39.5t-24.5 52.5q-4 15 4.5 39.5t22.5 47.5t29.5 40.5t25.5 18.5q11 1 27 -4.5t31 -14.5t26 -20t12 -21q1 -14 -11.5 -34.5t-30.5 -44.5t-36 -50t-28 -49z" />
    <glyph glyph-name="Agrave" unicode="&#xc0;" 
d="M510 778q4 -23 -5 -53t-40 -51q-14 22 -31.5 42.5t-33.5 38t-27.5 32t-12.5 25.5q-1 13 6.5 25.5t19.5 21.5t25 14.5t24 5.5q6 0 18 -12t24 -28.5t21.5 -33.5t11.5 -27zM575 588q-18 -48 -31.5 -87.5t-24.5 -76.5t-21 -75t-20 -83q-10 -42 -16.5 -79.5t-11.5 -75
t-10.5 -77.5t-12.5 -88q-26 3 -44 12t-31.5 22t-24 29t-20.5 34q-6 12 -7 22.5t-0.5 21t2 22t1.5 23.5q-15 -2 -44.5 -5.5t-60.5 -7t-58 -7t-38 -4.5q-14 -11 -32.5 -39.5t-35.5 -58.5q-20 -35 -41 -76q-38 40 -59 77.5t-16 79.5q5 35 35 92t74.5 122.5t96.5 133t100 124
t86 94.5t55 44q7 3 28.5 -11t50.5 -33.5t63.5 -39.5t67.5 -29zM371 474q-16 -20 -37 -45t-43 -53t-43.5 -56t-39.5 -53q32 5 63.5 8t46.5 5z" />
    <glyph glyph-name="Atilde" unicode="&#xc3;" 
d="M704 751q-20 -2 -33 -14t-30 -25.5t-42.5 -25t-71.5 -11.5q-34 0 -53 12.5t-34 27.5t-31 27.5t-44 12.5q-32 0 -55.5 -13.5t-40 -29.5t-27.5 -29t-17 -11q-8 2 -13.5 16.5t-9.5 33t-5 37.5t2 30q2 8 14.5 22.5t33.5 29t49.5 25.5t62.5 11q29 0 45 -14.5t29.5 -31.5
t30 -31.5t46.5 -14.5q40 0 62.5 13t37.5 20q7 3 20 -0.5t27.5 -13t27.5 -23.5t19 -30zM575 588q-18 -48 -31.5 -87.5t-24.5 -76.5t-21 -75t-20 -83q-10 -42 -16.5 -79.5t-11.5 -75t-10.5 -77.5t-12.5 -88q-26 3 -44 12t-31.5 22t-24 29t-20.5 34q-6 12 -7 22.5t-0.5 21t2 22
t1.5 23.5q-15 -2 -44.5 -5.5t-60.5 -7t-58 -7t-38 -4.5q-14 -11 -32.5 -39.5t-35.5 -58.5q-20 -35 -41 -76q-38 40 -59 77.5t-16 79.5q5 35 35 92t74.5 122.5t96.5 133t100 124t86 94.5t55 44q7 3 28.5 -11t50.5 -33.5t63.5 -39.5t67.5 -29zM371 474q-16 -20 -37 -45
t-43 -53t-43.5 -56t-39.5 -53q32 5 64 8t46 5z" />
    <glyph glyph-name="Otilde" unicode="&#xd5;" horiz-adv-x="610" 
d="M732 758q-20 -2 -33 -14t-30 -25.5t-42.5 -25t-71.5 -11.5q-34 0 -53 12.5t-34 27.5t-31 27.5t-44 12.5q-32 0 -55.5 -13.5t-40 -29.5t-27.5 -29t-17 -11q-8 2 -13.5 16.5t-9.5 33t-5 37.5t2 30q2 8 14.5 22.5t33.5 29t49.5 25.5t62.5 11q29 0 45 -14.5t29.5 -31.5
t30 -31.5t46.5 -14.5q40 0 62.5 13t37.5 20q7 3 20 -0.5t27.5 -13t27.5 -23.5t19 -30zM503 684q59 -31 86 -78.5t29 -104.5t-17.5 -120t-52.5 -124t-76.5 -116.5t-89.5 -98t-91 -67.5t-81 -25q-39 -1 -64.5 12t-52.5 27q-13 7 -27 13t-27.5 14.5t-25.5 19.5t-20 27
q-21 42 -21.5 97t15.5 115t46.5 121t71 115t89 97.5t100.5 69t105.5 29t103.5 -22.5zM432 552q-22 13 -49.5 2t-55.5 -36.5t-54.5 -61t-45.5 -70.5q-20 -37 -39.5 -80.5t-32 -83t-15 -70.5t10.5 -43q8 -7 24 -2.5t36.5 17.5t44 32.5t46 43t42.5 48t34 48.5q19 33 40.5 70.5
t33.5 73t10 65.5t-30 47z" />
    <glyph glyph-name="endash" unicode="&#x2013;" horiz-adv-x="492" 
d="M60 328q-2 1 -10 20.5t-16 44.5t-12 50t4 37q4 6 28 10.5t58.5 6t75 1t77.5 -3.5t65.5 -8.5t39.5 -13.5q35 -27 61.5 -56t31.5 -73q-21 3 -59 3t-82.5 -2t-90.5 -5t-84 -5.5t-62 -4.5t-25 -1z" />
    <glyph glyph-name="emdash" unicode="&#x2014;" horiz-adv-x="1000" 
d="M78 322q-2 1 -10 20.5t-16 44.5t-12 50t4 37q3 5 37.5 8.5t90 5.5t125 3t143 0.5t144.5 -2t129 -5t96.5 -8t46.5 -10.5q18 -14 36.5 -27.5t34 -28.5t26.5 -33t14 -40q-28 7 -81.5 9.5t-121 2.5t-144.5 -2t-153 -5t-146 -7t-124 -7t-86 -5t-33 -1z" />
    <glyph glyph-name="quotedblleft" unicode="&#x201c;" horiz-adv-x="492" 
d="M704 780q-20 1 -33 -2t-30 -11q-9 -5 -23.5 -18.5t-32 -31t-35 -37t-33 -35.5t-26.5 -27t-15 -11q-7 -1 -22 8t-31 21.5t-28.5 27t-14.5 25.5q-2 9 11 34.5t36 53t53.5 49.5t63.5 25q25 2 45.5 -1.5t39 -13t36.5 -23.5t39 -33zM412 781q-14 1 -20 2t-10 0t-8.5 -3
t-14.5 -5q-10 -4 -31.5 -24t-45.5 -43t-45 -42.5t-31 -22.5q-9 -3 -26 6.5t-34 23.5t-30 28t-14 20q-2 6 12 29t38 47.5t54.5 44t62.5 19.5q24 0 42 -6.5t34 -17.5t32 -25.5t35 -30.5z" />
    <glyph glyph-name="quotedblright" unicode="&#x201d;" horiz-adv-x="648" 
d="M180 714q20 -1 33 2t30 11q9 5 23.5 18.5t32 31t35 37t33 35.5t26.5 26.5t15 11.5q7 1 22 -8t31 -21.5t28.5 -27t14.5 -25.5q1 -9 -11.5 -34.5t-35.5 -53t-53.5 -49.5t-63.5 -25q-26 -2 -46 1.5t-38.5 13t-36.5 23.5t-39 33zM472 713q13 -2 19.5 -2.5t10.5 0.5t8.5 3
t14.5 5q10 4 31.5 24t45.5 43t45 42.5t31 22.5q9 3 26 -6.5t34 -23.5t29.5 -28t14.5 -20q1 -6 -12.5 -29t-37.5 -47.5t-54.5 -44t-62.5 -19.5q-24 0 -42 6.5t-34 17.5t-32 25.5t-35 30.5z" />
    <glyph glyph-name="quoteleft" unicode="&#x2018;" horiz-adv-x="162" 
d="M362 756q-20 1 -33 -2t-30 -11q-9 -5 -23.5 -18.5t-32 -31t-35 -37t-33 -35.5t-26.5 -27t-15 -11q-7 -1 -22 8t-31 21.5t-28.5 27t-14.5 25.5q-2 9 11 34.5t36 53t53.5 49.5t63.5 25q25 2 45.5 -1.5t39 -13t36.5 -23.5t39 -33z" />
    <glyph glyph-name="quoteright" unicode="&#x2019;" horiz-adv-x="228" 
d="M72 666q20 -1 33 2t30 11q9 5 23.5 18.5t32 31t35 37t33 35.5t26.5 26.5t15 11.5q7 1 22 -8t31 -21.5t28.5 -27t14.5 -25.5q1 -9 -11.5 -34.5t-35.5 -53t-53.5 -49.5t-63.5 -25q-26 -2 -46 1.5t-38.5 13t-36.5 23.5t-39 33z" />
    <glyph glyph-name="ydieresis" unicode="&#xff;" horiz-adv-x="570" 
d="M87 -56q-15 10 -28 24.5t-23 29.5t-15 29t-5 23q0 10 11 32.5t28.5 50t40 56t47.5 51.5q-42 23 -58 63t-18 96q-1 28 4 59t13.5 61t20 57.5t23 49t22 35t18.5 15.5q12 4 30.5 -2t37 -16.5t33 -24.5t19.5 -26q4 -9 -8.5 -31.5t-29 -59.5t-30 -90t-10.5 -124
q81 93 153.5 165t126.5 122q63 58 117 101q13 -13 28 -21.5t28 -17t22 -19.5t10 -29q1 -9 -12.5 -23.5t-43.5 -42.5t-77.5 -74t-115.5 -116.5t-157 -169t-202 -233.5zM337 687q-25 14 -37 30.5t-19 40.5q-3 12 3.5 30.5t17.5 36.5t22.5 31t19.5 14q9 1 21 -3t23.5 -11
t20 -15.5t9.5 -16.5q1 -10 -8.5 -26t-23 -34.5t-28 -38.5t-21.5 -38zM497 680q-25 14 -36.5 30.5t-18.5 40.5q-3 12 3.5 30.5t17 36.5t22.5 31t20 14t20.5 -3t24 -11t20 -15.5t9.5 -16.5q1 -10 -9 -26t-23.5 -34.5t-28 -38.5t-21.5 -38z" />
    <glyph glyph-name="Ydieresis" unicode="&#x178;" horiz-adv-x="570" 
d="M418 824q1 -10 -8.5 -26t-23 -34.5t-28 -38.5t-21.5 -38q-25 14 -37 30.5t-19 40.5q-3 12 3.5 30.5t17.5 36.5t22.5 31t19.5 14q9 1 21 -3t23.5 -11t20 -15.5t9.5 -16.5zM579 817q1 -10 -9 -26t-23.5 -34.5t-28 -38.5t-21.5 -38q-25 14 -36.5 30.5t-18.5 40.5
q-3 12 3.5 30.5t17 36.5t22.5 31t20 14t20.5 -3t24 -11t20 -15.5t9.5 -16.5zM707 604q0 -9 -13 -24t-43 -44t-78.5 -76t-117 -119.5t-159.5 -174t-206 -239.5q-20 13 -36 30.5t-27.5 35t-17 33t-5.5 25.5t10 31.5t26 48t37.5 55t45.5 52.5q-36 25 -51 66t-17 95
q-1 29 4.5 61.5t15 64t22 60t25 51t24 36.5t19.5 16q13 4 34 -2t41.5 -18t37 -27t21.5 -29q4 -9 -7.5 -29.5t-26.5 -54.5t-28.5 -82.5t-14.5 -112.5q78 88 148 157t123 117q62 56 115 99q16 -17 33.5 -27.5t31.5 -21t23.5 -22.5t10.5 -31z" />
    <glyph glyph-name="Acircumflex" unicode="&#xc2;" 
d="M518 691q-13 5 -24 15.5t-25 22t-34 22t-50 15.5q-30 -8 -48.5 -25t-30.5 -32.5t-19 -26t-13 -5.5q-7 5 -14 20.5t-11.5 33.5t-5.5 36t5 27q4 7 14.5 19.5t26.5 26t38 27t51 22.5q56 -17 82.5 -38.5t38.5 -42.5q14 -26 18 -54t1 -63zM575 588q-18 -48 -31.5 -87.5
t-24.5 -76.5t-21 -75t-20 -83q-10 -42 -16.5 -79.5t-11.5 -75t-10.5 -77.5t-12.5 -88q-26 3 -44 12t-31.5 22t-24 29t-20.5 34q-6 12 -7 22.5t-0.5 21t2 22t1.5 23.5q-15 -2 -44.5 -5.5t-60.5 -7t-58 -7t-38 -4.5q-14 -11 -32.5 -39.5t-35.5 -58.5q-20 -35 -41 -76
q-38 40 -59 77.5t-16 79.5q5 35 35 92t74.5 122.5t96.5 133t100 124t86 94.5t55 44q7 3 28.5 -11t50.5 -33.5t63.5 -39.5t67.5 -29zM371 474q-16 -20 -37 -45t-43 -53t-43.5 -56t-39.5 -53q32 5 64 8t46 5z" />
    <glyph glyph-name="Ecircumflex" unicode="&#xca;" horiz-adv-x="504" 
d="M588 698q-13 5 -24 15.5t-25 22t-34 22t-50 15.5q-30 -8 -48.5 -25t-30.5 -32.5t-19 -26t-13 -5.5q-7 5 -14 20.5t-11.5 33.5t-5.5 36t5 27q4 7 14.5 19.5t26.5 26t38 27t51 22.5q56 -17 82.5 -38.5t38.5 -42.5q14 -26 18 -54t1 -63zM596 523q-20 5 -29 7t-20 4
q-32 4 -60 1.5t-53 -8t-47.5 -12t-43.5 -10.5l-71 -108q38 11 73.5 16t56.5 -6q30 -17 49.5 -51.5t16.5 -91.5q-19 13 -27.5 13.5t-15.5 -0.5q-23 -2 -58.5 -9t-70.5 -16t-65 -18.5t-42 -15.5q-30 -14 -44.5 -41t-29.5 -60q44 17 85 30t67 9q13 -2 28 -14t28 -32t22.5 -47
t11.5 -60q-11 8 -18 12.5t-11.5 7t-9 3t-10.5 0.5t-24.5 -6.5t-43 -16t-52.5 -20t-54 -19t-47.5 -13t-33.5 -2.5q-39 8 -63 26.5t-41 52.5q-13 26 -16.5 52t4.5 52q12 38 38 90.5t59 110.5t69.5 117.5t69.5 111t58.5 90t37.5 55.5q8 2 16 -1t15.5 -8t15.5 -10t16 -5
q23 1 47 4.5t46.5 6t41 3t31.5 -3.5q52 -17 75 -61t23 -109z" />
    <glyph glyph-name="Aacute" unicode="&#xc1;" 
d="M582 826q-1 -11 -12.5 -25.5t-27.5 -32t-34 -38t-31 -42.5q-16 10 -25.5 23.5t-15 27.5t-6 28t1.5 25q1 10 11 27t22 33.5t24 28.5t18 12q10 0 23.5 -5.5t25.5 -14.5t19.5 -21.5t6.5 -25.5zM575 588q-18 -48 -31.5 -87.5t-24.5 -76.5t-21 -75t-20 -83
q-10 -42 -16.5 -79.5t-11.5 -75t-10.5 -77.5t-12.5 -88q-26 3 -44 12t-31.5 22t-24 29t-20.5 34q-6 12 -7 22.5t-0.5 21t2 22t1.5 23.5q-15 -2 -44.5 -5.5t-60.5 -7t-58 -7t-38 -4.5q-14 -11 -32.5 -39.5t-35.5 -58.5q-20 -35 -41 -76q-38 40 -59 77.5t-16 79.5q5 35 35 92
t74.5 122.5t96.5 133t100 124t86 94.5t55 44q7 3 28.5 -11t50.5 -33.5t63.5 -39.5t67.5 -29zM371 474q-16 -20 -37 -45t-43 -53t-43.5 -56t-39.5 -53q32 5 64 8t46 5z" />
    <glyph glyph-name="Edieresis" unicode="&#xcb;" horiz-adv-x="504" 
d="M460 838q1 -10 -8.5 -26t-23 -34.5t-28 -38.5t-21.5 -38q-25 14 -37 30.5t-19 40.5q-3 12 3.5 30.5t17.5 36.5t22.5 31t19.5 14q9 1 21 -3t23.5 -11t20 -15.5t9.5 -16.5zM621 831q1 -10 -9 -26t-23.5 -34.5t-28 -38.5t-21.5 -38q-25 14 -36.5 30.5t-18.5 40.5
q-3 12 3.5 30.5t17 36.5t22.5 31t20 14t20.5 -3t24 -11t20 -15.5t9.5 -16.5zM596 523q-20 5 -29 7t-20 4q-32 4 -60 1.5t-53 -8t-47.5 -12t-43.5 -10.5l-71 -108q38 11 73.5 16t56.5 -6q30 -17 49.5 -51.5t16.5 -91.5q-19 13 -27.5 13.5t-15.5 -0.5q-23 -2 -58.5 -9
t-70.5 -16t-65 -18.5t-42 -15.5q-30 -14 -44.5 -41t-29.5 -60q44 17 85 30t67 9q13 -2 28 -14t28 -32t22.5 -47t11.5 -60q-11 8 -18 12.5t-11.5 7t-9 3t-10.5 0.5t-24.5 -6.5t-43 -16t-52.5 -20t-54 -19t-47.5 -13t-33.5 -2.5q-39 8 -63 26.5t-41 52.5q-13 26 -16.5 52
t4.5 52q12 38 38 90.5t59 110.5t69.5 117.5t69.5 111t58.5 90t37.5 55.5q8 2 16 -1t15.5 -8t15.5 -10t16 -5q23 1 47 4.5t46.5 6t41 3t31.5 -3.5q52 -17 75 -61t23 -109z" />
    <glyph glyph-name="Egrave" unicode="&#xc8;" horiz-adv-x="504" 
d="M447 792q4 -23 -5 -53t-40 -51q-14 22 -31.5 42.5t-33.5 38t-27.5 32t-12.5 25.5q-1 13 6.5 25.5t19.5 21.5t25 14.5t24 5.5q6 0 18 -12t24 -28.5t21.5 -33.5t11.5 -27zM596 523q-20 5 -29 7t-20 4q-32 4 -60 1.5t-53 -8t-47.5 -12t-43.5 -10.5l-71 -108q38 11 73.5 16
t56.5 -6q30 -17 49.5 -51.5t16.5 -91.5q-19 13 -27.5 13.5t-15.5 -0.5q-23 -2 -58.5 -9t-70.5 -16t-65 -18.5t-42 -15.5q-30 -14 -44.5 -41t-29.5 -60q44 17 85 30t67 9q13 -2 28 -14t28 -32t22.5 -47t11.5 -60q-11 8 -18 12.5t-11.5 7t-9 3t-10.5 0.5t-24.5 -6.5t-43 -16
t-52.5 -20t-54 -19t-47.5 -13t-33.5 -2.5q-39 8 -63 26.5t-41 52.5q-13 26 -16.5 52t4.5 52q12 38 38 90.5t59 110.5t69.5 117.5t69.5 111t58.5 90t37.5 55.5q8 2 16 -1t15.5 -8t15.5 -10t16 -5q23 1 47 4.5t46.5 6t41 3t31.5 -3.5q52 -17 75 -61t23 -109z" />
    <glyph glyph-name="Iacute" unicode="&#xcd;" horiz-adv-x="330" 
d="M435 861q-1 -11 -12.5 -25.5t-27.5 -32t-34 -38t-31 -42.5q-16 10 -25.5 23.5t-15 27.5t-6 28t1.5 25q1 10 11 27t22 33.5t24 28.5t18 12q10 0 23.5 -5.5t25.5 -14.5t19.5 -21.5t6.5 -25.5zM416 595q-12 -18 -38 -57.5t-59.5 -93t-72 -117.5t-76.5 -132t-72 -135.5
t-59 -127.5q-21 19 -40.5 36.5t-34 33t-22 28.5t-5.5 23q11 53 38.5 120.5t63 138.5t75.5 139.5t75.5 123t62 89.5t35.5 39q8 3 22 -2t29.5 -15t31.5 -23t27.5 -26t17 -24.5t1.5 -17.5z" />
    <glyph glyph-name="Icircumflex" unicode="&#xce;" horiz-adv-x="330" 
d="M462 705q-13 5 -24 15.5t-25 22t-34 22t-50 15.5q-30 -8 -48.5 -25t-30.5 -32.5t-19 -26t-13 -5.5q-7 5 -14 20.5t-11.5 33.5t-5.5 36t5 27q4 7 14.5 19.5t26.5 26t38 27t51 22.5q56 -17 82.5 -38.5t38.5 -42.5q14 -26 18 -54t1 -63zM416 595q-12 -18 -38 -57.5
t-59.5 -93t-72 -117.5t-76.5 -132t-72 -135.5t-59 -127.5q-21 19 -40.5 36.5t-34 33t-22 28.5t-5.5 23q11 53 38.5 120.5t63 138.5t75.5 139.5t75.5 123t62 89.5t35.5 39q8 3 22 -2t29.5 -15t31.5 -23t27.5 -26t17 -24.5t1.5 -17.5z" />
    <glyph glyph-name="Idieresis" unicode="&#xcf;" horiz-adv-x="330" 
d="M341 845q1 -10 -8.5 -26t-23 -34.5t-28 -38.5t-21.5 -38q-25 14 -37 30.5t-19 40.5q-3 12 3.5 30.5t17.5 36.5t22.5 31t19.5 14q9 1 21 -3t23.5 -11t20 -15.5t9.5 -16.5zM502 831q1 -10 -9 -26t-23.5 -34.5t-28 -38.5t-21.5 -38q-25 14 -36.5 30.5t-18.5 40.5
q-3 12 3.5 30.5t17 36.5t22.5 31t20 14t20.5 -3t24 -11t20 -15.5t9.5 -16.5zM416 595q-12 -18 -38 -57.5t-59.5 -93t-72 -117.5t-76.5 -132t-72 -135.5t-59 -127.5q-21 19 -40.5 36.5t-34 33t-22 28.5t-5.5 23q11 53 38.5 120.5t63 138.5t75.5 139.5t75.5 123t62 89.5
t35.5 39q8 3 22 -2t29.5 -15t31.5 -23t27.5 -26t17 -24.5t1.5 -17.5z" />
    <glyph glyph-name="Igrave" unicode="&#xcc;" horiz-adv-x="330" 
d="M412 799q4 -23 -5 -53t-40 -51q-14 22 -31.5 42.5t-33.5 38t-27.5 32t-12.5 25.5q-1 13 6.5 25.5t19.5 21.5t25 14.5t24 5.5q6 0 18 -12t24 -28.5t21.5 -33.5t11.5 -27zM416 595q-12 -18 -38 -57.5t-59.5 -93t-72 -117.5t-76.5 -132t-72 -135.5t-59 -127.5
q-21 19 -40.5 36.5t-34 33t-22 28.5t-5.5 23q11 53 38.5 120.5t63 138.5t75.5 139.5t75.5 123t62 89.5t35.5 39q8 3 22 -2t29.5 -15t31.5 -23t27.5 -26t17 -24.5t1.5 -17.5z" />
    <glyph glyph-name="Oacute" unicode="&#xd3;" horiz-adv-x="610" 
d="M561 840q-1 -11 -12.5 -25.5t-27.5 -32t-34 -38t-31 -42.5q-16 10 -25.5 23.5t-15 27.5t-6 28t1.5 25q1 10 11 27t22 33.5t24 28.5t18 12q10 0 23.5 -5.5t25.5 -14.5t19.5 -21.5t6.5 -25.5zM503 684q59 -31 86 -78.5t29 -104.5t-17.5 -120t-52.5 -124t-76.5 -116.5
t-89.5 -98t-91 -67.5t-81 -25q-39 -1 -64.5 12t-52.5 27q-13 7 -27 13t-27.5 14.5t-25.5 19.5t-20 27q-21 42 -21.5 97t15.5 115t46.5 121t71 115t89 97.5t100.5 69t105.5 29t103.5 -22.5zM432 552q-22 13 -49.5 2t-55.5 -36.5t-54.5 -61t-45.5 -70.5q-20 -37 -39.5 -80.5
t-32 -83t-15 -70.5t10.5 -43q8 -7 24 -2.5t36.5 17.5t44 32.5t46 43t42.5 48t34 48.5q19 33 40.5 70.5t33.5 73t10 65.5t-30 47z" />
    <glyph glyph-name="Ocircumflex" unicode="&#xd4;" horiz-adv-x="610" 
d="M525 705q-13 5 -24 15.5t-25 22t-34 22t-50 15.5q-30 -8 -48.5 -25t-30.5 -32.5t-19 -26t-13 -5.5q-7 5 -14 20.5t-11.5 33.5t-5.5 36t5 27q4 7 14.5 19.5t26.5 26t38 27t51 22.5q56 -17 82.5 -38.5t38.5 -42.5q14 -26 18 -54t1 -63zM503 684q59 -31 86 -78.5t29 -104.5
t-17.5 -120t-52.5 -124t-76.5 -116.5t-89.5 -98t-91 -67.5t-81 -25q-39 -1 -64.5 12t-52.5 27q-13 7 -27 13t-27.5 14.5t-25.5 19.5t-20 27q-21 42 -21.5 97t15.5 115t46.5 121t71 115t89 97.5t100.5 69t105.5 29t103.5 -22.5zM432 552q-22 13 -49.5 2t-55.5 -36.5
t-54.5 -61t-45.5 -70.5q-20 -37 -39.5 -80.5t-32 -83t-15 -70.5t10.5 -43q8 -7 24 -2.5t36.5 17.5t44 32.5t46 43t42.5 48t34 48.5q19 33 40.5 70.5t33.5 73t10 65.5t-30 47z" />
    <glyph glyph-name="Ograve" unicode="&#xd2;" horiz-adv-x="610" 
d="M587 785q4 -23 -5 -53t-40 -51q-14 22 -31.5 42.5t-33.5 38t-27.5 32t-12.5 25.5q-1 13 6.5 25.5t19.5 21.5t25 14.5t24 5.5q6 0 18 -12t24 -28.5t21.5 -33.5t11.5 -27zM503 684q59 -31 86 -78.5t29 -104.5t-17.5 -120t-52.5 -124t-76.5 -116.5t-89.5 -98t-91 -67.5
t-81 -25q-39 -1 -64.5 12t-52.5 27q-13 7 -27 13t-27.5 14.5t-25.5 19.5t-20 27q-21 42 -21.5 97t15.5 115t46.5 121t71 115t89 97.5t100.5 69t105.5 29t103.5 -22.5zM432 552q-22 13 -49.5 2t-55.5 -36.5t-54.5 -61t-45.5 -70.5q-20 -37 -39.5 -80.5t-32 -83t-15 -70.5
t10.5 -43q8 -7 24 -2.5t36.5 17.5t44 32.5t46 43t42.5 48t34 48.5q19 33 40.5 70.5t33.5 73t10 65.5t-30 47z" />
    <glyph glyph-name="Uacute" unicode="&#xda;" horiz-adv-x="642" 
d="M582 826q-1 -11 -12.5 -25.5t-27.5 -32t-34 -38t-31 -42.5q-16 10 -25.5 23.5t-15 27.5t-6 28t1.5 25q1 10 11 27t22 33.5t24 28.5t18 12q10 0 23.5 -5.5t25.5 -14.5t19.5 -21.5t6.5 -25.5zM707 596q4 -10 -9 -43.5t-39 -82t-62.5 -107t-79 -118t-89 -116t-92 -101
t-88.5 -72t-78 -28.5q-17 -1 -31 4.5t-27.5 14t-26.5 19t-27 20.5t-27.5 16t-25 12t-21 14.5t-15.5 25.5q-7 17 -1 51.5t20.5 80t35.5 98.5t45.5 106t49.5 103.5t47.5 90.5t40.5 66.5t28 32.5q12 8 34.5 1t44 -21t37 -31t15.5 -29q-1 -15 -20.5 -55.5t-48.5 -92.5
t-61 -110.5t-58 -109.5t-40 -90t-6 -52q6 -10 35 14t71 70.5t91 111t96 135t87.5 141.5t63.5 132q24 -11 44 -20.5t36.5 -21t29 -25.5t21.5 -34z" />
    <glyph glyph-name="Ucircumflex" unicode="&#xdb;" horiz-adv-x="642" 
d="M567 705q-13 5 -24 15.5t-25 22t-34 22t-50 15.5q-30 -8 -48.5 -25t-30.5 -32.5t-19 -26t-13 -5.5q-7 5 -14 20.5t-11.5 33.5t-5.5 36t5 27q4 7 14.5 19.5t26.5 26t38 27t51 22.5q56 -17 82.5 -38.5t38.5 -42.5q14 -26 18 -54t1 -63zM707 596q4 -10 -9 -43.5t-39 -82
t-62.5 -107t-79 -118t-89 -116t-92 -101t-88.5 -72t-78 -28.5q-17 -1 -31 4.5t-27.5 14t-26.5 19t-27 20.5t-27.5 16t-25 12t-21 14.5t-15.5 25.5q-7 17 -1 51.5t20.5 80t35.5 98.5t45.5 106t49.5 103.5t47.5 90.5t40.5 66.5t28 32.5q12 8 34.5 1t44 -21t37 -31t15.5 -29
q-1 -15 -20.5 -55.5t-48.5 -92.5t-61 -110.5t-58 -109.5t-40 -90t-6 -52q6 -10 35 14t71 70.5t91 111t96 135t87.5 141.5t63.5 132q24 -11 44 -20.5t36.5 -21t29 -25.5t21.5 -34z" />
    <glyph glyph-name="Ugrave" unicode="&#xd9;" horiz-adv-x="642" 
d="M510 778q4 -23 -5 -53t-40 -51q-14 22 -31.5 42.5t-33.5 38t-27.5 32t-12.5 25.5q-1 13 6.5 25.5t19.5 21.5t25 14.5t24 5.5q6 0 18 -12t24 -28.5t21.5 -33.5t11.5 -27zM707 596q4 -10 -9 -43.5t-39 -82t-62.5 -107t-79 -118t-89 -116t-92 -101t-88.5 -72t-78 -28.5
q-17 -1 -31 4.5t-27.5 14t-26.5 19t-27 20.5t-27.5 16t-25 12t-21 14.5t-15.5 25.5q-7 17 -1 51.5t20.5 80t35.5 98.5t45.5 106t49.5 103.5t47.5 90.5t40.5 66.5t28 32.5q12 8 34.5 1t44 -21t37 -31t15.5 -29q-1 -15 -20.5 -55.5t-48.5 -92.5t-61 -110.5t-58 -109.5t-40 -90
t-6 -52q6 -10 35 14t71 70.5t91 111t96 135t87.5 141.5t63.5 132q24 -11 44 -20.5t36.5 -21t29 -25.5t21.5 -34z" />
    <glyph glyph-name="quotedbl" unicode="&#x22;" horiz-adv-x="483" 
d="M507 846q4 -3 3.5 -23.5t-3 -51.5t-6.5 -68t-7 -72t-4.5 -63.5t0.5 -43.5q-34 6 -62 18t-48 42q-9 13 -12.5 37.5t-3 54.5t3.5 62t8.5 59t12 46.5t13.5 24.5q8 6 22 6t29.5 -4t30 -10.5t23.5 -13.5zM315 531q-20 2 -37.5 5.5t-33.5 9.5t-29 17t-22 28q-5 9 -8.5 31.5
t-5.5 51.5t-2.5 61t1 60t5.5 48t11 25q9 7 26 9t35 0t34.5 -8.5t25.5 -15.5q5 -5 5 -26.5t-2 -52t-5.5 -66.5t-5.5 -70t-0.5 -62.5t8.5 -44.5z" />
    <glyph glyph-name="exclam" unicode="!" horiz-adv-x="505" 
d="M132 -90q-18 17 -34.5 30.5t-30 26.5t-22 28t-9.5 35q0 13 8.5 36t21 46t25 41t20.5 21q11 5 29.5 -2.5t36.5 -20t33 -28t18 -27.5q2 -6 -8.5 -24.5t-26 -44.5t-32.5 -56.5t-29 -60.5zM246 156q-14 16 -31 29t-32 25t-26 24.5t-13 29.5q-1 11 9.5 42.5t29 74.5t43 95
t51 104t53 101.5t49.5 88t40 62.5t25 26q15 4 37.5 -3.5t44 -21t38.5 -31.5t21 -34q1 -6 -18.5 -43t-51.5 -92.5t-72 -122.5t-78 -133t-70 -124.5t-49 -96.5z" />
    <glyph glyph-name=".null" horiz-adv-x="0" 
 />
    <glyph glyph-name="nonmarkingreturn" horiz-adv-x="474" 
 />
    <glyph glyph-name="uni0421.001" horiz-adv-x="672" 
d="M434 462q26 24 49 57.5t38 65.5t19.5 57.5t-6.5 34.5q-17 13 -44.5 -2t-61 -48.5t-70 -82.5t-70.5 -104t-63 -113t-47.5 -110t-23.5 -94.5t9 -66.5q4 -7 25.5 2.5t52 30t66.5 49.5t68.5 61t57.5 64.5t35 60.5q23 -6 45 -24.5t38.5 -40t24.5 -41t3 -28.5
q-29 -52 -72.5 -103.5t-94.5 -92t-105 -64.5t-102 -22q-26 1 -55 10.5t-57 28t-53.5 47t-44.5 68.5q-14 28 -12.5 81t15.5 116.5t40 131t61 125.5q38 64 82 122.5t94 105t106.5 77t119.5 36.5q47 5 82 -1.5t59.5 -24t40.5 -45t26 -64.5q4 -18 0.5 -49t-12 -67t-21.5 -73
t-27.5 -69t-28.5 -54t-25 -28q-35 9 -66 21q-26 11 -53.5 25t-41.5 34z" />
    <glyph glyph-name="uni0435.001" horiz-adv-x="681" 
d="M483 844q30 1 60.5 5.5t58 8t51 4.5t39.5 -4q63 -22 90 -72t27 -114q-13 3 -22 5t-23 4q-43 5 -81 1.5t-72 -11t-64.5 -16t-58.5 -13.5l-120 -180q28 8 56.5 16t54.5 12.5t48.5 4t38.5 -8.5q35 -19 58.5 -56t19.5 -88q-8 8 -19.5 7.5t-22.5 -1.5q-31 -3 -77.5 -12.5
t-93 -21.5t-86 -24.5t-55.5 -19.5q-24 -11 -40.5 -29t-29 -40.5t-24 -49.5t-26.5 -55q31 12 63 24t61.5 22t55.5 15t45 2q15 -2 32 -16t32 -35t25.5 -46.5t12.5 -52.5q-11 7 -18.5 9t-26.5 3q-8 0 -31 -8t-54.5 -20t-68 -25.5t-70.5 -25t-62.5 -17.5t-43.5 -3
q-46 9 -74.5 31t-48.5 62q-16 32 -20.5 62t5.5 61q15 49 48.5 117t76 143.5t90 151.5t89.5 142t75 114.5t47 69.5q8 2 17 -2.5t18 -11.5t18.5 -12.5t19.5 -5.5z" />
    <glyph glyph-name="uni0440.001" horiz-adv-x="828" 
d="M101 -96q-16 11 -38 26t-42.5 31.5t-36 34t-18.5 34.5q-2 11 14 51t44 98.5t65 129.5t76.5 144.5t79 143.5t72.5 125t56 90.5t31 39.5q9 5 20 1.5t23.5 -11.5t25.5 -18.5t27 -19.5q45 19 92.5 33.5t94.5 13t94 -24t91 -76.5q39 -48 35.5 -114t-37 -135t-89.5 -135
t-122 -114.5t-134.5 -73t-126.5 -10.5q-21 5 -35.5 15t-25.5 23.5t-20.5 30t-20.5 33.5q-9 -10 -25 -35t-35 -59t-39.5 -73t-39.5 -76.5t-34 -70t-22 -52.5zM332 348q2 -7 4 -13.5t8 -10.5q13 -9 40 -2t61 24.5t72.5 44t75 56.5t67.5 62t51 61t26 52.5t-9 37.5
q-19 18 -51.5 18t-66 -7.5t-61.5 -19.5t-37 -18q-3 -2 -15.5 -18t-29.5 -40.5t-37 -55t-39 -61t-35 -59.5t-24 -51z" />
    <glyph glyph-name="uni0438.001" horiz-adv-x="817" 
d="M450 -98q-20 18 -41 35.5t-37.5 34t-26 31t-6.5 26.5q10 51 33 113t53 128q28 63 62 129q-321 -277 -483 -461q-8 -18 -15 -36q-20 18 -41 35.5t-37.5 34t-26 31t-6.5 26.5q10 51 33 113t53 128.5t66 135.5t73 133.5t73 121.5t65.5 100.5t51.5 70t31 30.5q9 3 24.5 -2
t33.5 -15.5t36 -25t32 -28.5t20.5 -26.5t1.5 -19.5q-16 -23 -49.5 -74.5t-77.5 -120.5q-26 -42 -55 -90q59 65 114 120q94 93 352 262q2 -1 4 -3q17 19 25 23q9 3 24.5 -2t33.5 -15.5t36 -25t32 -28.5t20.5 -26.5t1.5 -19.5q-16 -23 -49.5 -74.5t-77 -120.5t-93 -151.5
t-98 -168.5t-92 -170.5t-73.5 -157.5z" />
    <glyph glyph-name="uni0430.001" horiz-adv-x="694" 
d="M-84 78q4 33 27.5 83t59.5 109.5t81.5 124t93.5 128t96.5 121.5t90 103.5t73.5 75t48 35.5q10 4 36 -14.5t60.5 -44t74 -50.5t75.5 -35q-21 -56 -37.5 -104t-30 -95t-26.5 -96t-26 -107q-13 -55 -21.5 -103.5t-15 -96t-13.5 -97t-16 -105.5q-24 3 -42.5 13t-33.5 25
t-27 34.5t-23 41.5q-9 16 -10 31t1 30t4 31t-1 34q-70 -8 -128 -14q-25 -3 -49.5 -6t-45.5 -5.5t-36.5 -4.5t-22.5 -3q-18 -14 -42 -48.5t-45 -71.5q-26 -43 -51 -93q-18 18 -33.5 38t-26.5 42t-16 45.5t-2 48.5zM522 642q-55 -66 -107 -129q-22 -27 -45.5 -56.5t-46.5 -59
t-43.5 -57.5t-36.5 -52q28 5 61 8.5t62 7.5l66 8z" />
    <glyph glyph-name="uni043B.001" horiz-adv-x="694" 
d="M-84 78q51 133 87 192.5t81.5 124t93.5 128t96.5 121.5t90 103.5t73.5 75t48 35.5q10 4 36 -14.5t60.5 -44t74 -50.5t75.5 -35q-21 -56 -37.5 -104t-30 -95t-26.5 -96t-26 -107q-13 -55 -21.5 -103.5t-15 -96t-13.5 -97t-16 -105.5q-24 3 -42.5 13t-33.5 25t-27 34.5
t-23 41.5q-9 16 -10 31t1 30t111 557q-55 -66 -107 -129q-22 -27 -45.5 -56.5t-46.5 -59t-43.5 -57.5t-117 -167t-117.5 -176q-26 -43 -51 -93q-18 18 -33.5 38t-26.5 42t-16 45.5t-2 48.5z" />
    <glyph glyph-name="uni043F.001" horiz-adv-x="870" 
d="M-28 54q3 27 18 71t37 97.5t49.5 112.5t57.5 115q14 27 32 59t37.5 65.5t39.5 67.5t39 66q44 74 92 150q47 -16 255 -8.5t219 8.5q23 1 48 -13t45 -31q24 -20 45 -46q-25 -41 -53.5 -89.5t-59 -102.5t-61 -110.5t-60.5 -111.5q-34 -63 -61 -117.5t-51 -107.5t-47.5 -109
t-50.5 -122q-44 25 -67.5 57t-34.5 81q-6 28 -2 53t131 291t137.5 291t17.5 53l-276 -60l-362 -736q-21 12 -42.5 24.5t-38.5 26.5t-26.5 32.5t-6.5 42.5z" />
    <glyph glyph-name="uni043E.001" horiz-adv-x="757" 
d="M9 54q-27 54 -27.5 123.5t20 145t58.5 152.5t89 145.5t112 123.5t126.5 87.5t132.5 37t131 -28.5q75 -39 108.5 -99t35.5 -132t-23 -151t-67.5 -156t-97.5 -146.5t-113.5 -122.5t-115 -84.5t-102.5 -32.5q-24 0 -43.5 4t-36 11.5t-32.5 16.5l-32 18q-16 8 -33.5 15.5
t-34 17t-31 22.5t-24.5 33zM189 96q11 -10 34 -4.5t51.5 22t61.5 42t64.5 56.5t59 64.5t47.5 65.5q27 45 55 97t43 101.5t10.5 91t-42.5 64.5q-30 18 -68.5 3.5t-78.5 -48.5t-77 -81.5t-64 -95.5q-28 -50 -53 -109.5t-40.5 -114t-18 -96.5t15.5 -58z" />
    <glyph glyph-name="uni0434.001" horiz-adv-x="891" 
d="M482 -126q20 -1 33 2t30 11q9 5 23.5 18.5t31.5 31.5q-34 -1 -70 -2q-72 -3 -147 -6t-136.5 -6t-100.5 -5h-7q-2 -7 -6 -14q-6 7 -12 13h-5q-5 -6 -11 -13q-23 -28 -53.5 -50t-63.5 -25q-26 -2 -46 1.5t-38.5 13t-36.5 23.5t-39 33q20 -1 33 2t30 11q9 5 23.5 18.5t32 31
t35 37t33 35.5t26.5 26l1 1q1 12 8 20q2 2 8 4q49 127 84 184q36 60 81.5 124.5t93.5 128t96.5 121.5t90 103.5t73.5 75t48 35.5q10 4 36 -14.5t60.5 -44t74 -50.5t75.5 -35q-21 -56 -37.5 -104t-30 -95t-26.5 -96t-26 -107q-13 -55 -21.5 -103.5t-15.5 -96.5
q-4 -33 -10 -68l6 3q7 1 22 -8t31 -21.5t28.5 -27t14.5 -25.5q1 -9 -11.5 -34.5t-35.5 -53t-53.5 -49.5t-63.5 -25q-26 -2 -46 1.5t-38.5 13t-36.5 23.5t-39 33zM301 173q-28 -41 -50 -73h61q66 0 126 -3.5t106 -9.5h6q5 31 111 555q-55 -66 -107 -129q-22 -27 -45.5 -56.5
t-46.5 -59t-43.5 -57.5t-117.5 -167z" />
    <glyph glyph-name="uni043D.001" horiz-adv-x="870" 
d="M-28 54q3 27 18 71t37 97.5t49.5 112.5t57.5 115q14 27 32 59t37.5 65.5t39.5 67.5t39 66q44 74 92 150q47 -16 80 -34q14 -8 27 -16.5t21.5 -18t11.5 -19.5t-2 -20q-13 -23 -28.5 -51t-32 -58t-33.5 -61t-33 -59q-38 -67 -77 -137l282 60q16 28 38.5 70t47.5 87.5
t50.5 91.5t49 82.5t42.5 59t30 23.5q23 1 48 -13t45 -31q24 -20 45 -46q-25 -41 -53.5 -89.5t-59 -102.5t-61 -110.5t-60.5 -111.5q-34 -63 -61 -117.5t-51 -107.5t-47.5 -109t-50.5 -122q-44 25 -67.5 57t-34.5 81q-6 28 -2 53t13 49t19.5 49t17.5 53l-276 -60l-126 -252
q-21 12 -42.5 24.5t-38.5 26.5t-26.5 32.5t-6.5 42.5z" />
    <glyph glyph-name="uni0437.001" horiz-adv-x="780" 
d="M43 117q-5 25 -0.5 46t12.5 41.5t18 41.5t16 47q19 -40 52.5 -75t73.5 -60t83.5 -38t82.5 -9t70 27t47 71q11 33 0 54t-35 34.5t-55 20.5t-60.5 12t-51.5 9.5t-28 13.5q-13 19 -15 42.5t0 43.5q3 24 10 48q3 0 19 4t43 10.5t62.5 15t77.5 17.5q38 9 73 24.5t60.5 34
t37.5 38t3 36.5q-11 22 -44 26t-76.5 -6.5t-91 -33.5t-88.5 -55q-7 18 -16 40t-16 43t-11 38.5t-1 27.5q10 35 51.5 62.5t97.5 42t118.5 14t117 -20t92 -61t43.5 -109.5q4 -56 -12 -97.5t-49.5 -71.5t-82.5 -50.5t-111 -35.5q33 -19 60.5 -41t45.5 -52t23 -70.5t-7 -96.5
q-21 -92 -73.5 -146.5t-120.5 -77.5t-142.5 -18t-138.5 31t-109.5 69.5t-54.5 98.5z" />
    <glyph glyph-name="uni0432.001" horiz-adv-x="828" 
d="M-36 55q4 25 23 74t47 109.5t62 126t69 123.5q21 36 46.5 76t51.5 79.5t52 76t48.5 65t41 46.5t29.5 21q12 -10 25 -20q11 -9 24 -19t25 -18q23 24 61.5 38t77 20t70 6t41.5 -2q17 -4 38.5 -16t39.5 -29.5t29 -40t6 -48.5q-12 -65 -29.5 -108t-44.5 -76.5t-65.5 -64
t-92.5 -71.5q48 -15 71 -36t30.5 -44.5t5.5 -47.5t-5 -46q-6 -52 -35 -97t-72 -81t-95.5 -62.5t-104.5 -43.5t-100.5 -23t-82.5 -1q-23 3 -41 12.5t-34 23t-30.5 29.5t-30.5 32l-45 -92q-18 13 -38 27t-36 29.5t-25.5 33.5t-6.5 39zM341 428q17 -5 56.5 11t88.5 44t99.5 63
t88.5 68t56.5 60t3.5 38q-11 8 -40.5 0t-67 -24.5t-77 -37t-70.5 -37.5zM177 146q7 -12 32.5 -20.5t58 -11.5t67 -0.5t59.5 10.5q37 12 77.5 32.5t71 44t45 45t-0.5 35.5q-13 11 -33 12t-43.5 -3t-47.5 -11t-44.5 -13t-35 -8.5t-18.5 3.5q-16 12 -30 26q-12 11 -25 26
t-20 29z" />
    <glyph glyph-name="uni043C.001" horiz-adv-x="1206" 
d="M-34 18q-8 9 -4 32.5t15 56t28.5 72t37 81t40.5 81t39 73.5q20 37 48 81.5t58.5 90.5t62 91t59 82t48 63t30.5 36q46 -14 86 -32q35 -16 70 -38t54 -50q-32 -100 -59 -191q-12 -39 -23.5 -79.5t-21.5 -78t-17.5 -70t-10.5 -55.5l552 600q40 -11 75.5 -30t62.5 -41
t44 -44.5t22 -40.5q2 -8 -8 -32t-28.5 -58.5t-42.5 -76t-50.5 -84.5t-52 -85.5l-46.5 -77.5q-29 -49 -53.5 -95.5t-48 -92t-46.5 -92.5t-50 -98q-20 9 -41.5 23t-39 31t-27.5 37t-6 41q5 28 20.5 67t37.5 83.5t47 90.5t49 88t43.5 77t30.5 56l-504 -594q-16 14 -31 23
t-28.5 19t-24.5 23.5t-18 36.5q-6 20 -6.5 72.5t5.5 121.5t18.5 146t30.5 146l-336 -588z" />
    <glyph glyph-name="uni0436.001" horiz-adv-x="1137" 
d="M405 -90q-19 17 -36 30.5t-31.5 27.5t-24 31.5t-13.5 42.5q-2 13 14 54q16 39 42 94q-9 -5 -19 -12q-28 -20 -61.5 -47t-70 -57.5t-69 -61.5t-58 -59t-38.5 -49q-16 18 -27.5 41t-18.5 46.5t-9.5 45.5t-1.5 38q1 17 35 60t87 96.5t117.5 109t126.5 97.5q-2 38 -4 82.5
t-2 90t1 88t4 76.5t7.5 56t11.5 27q10 6 34.5 4t50.5 -9t48.5 -17t28.5 -20q5 -8 5 -40t-0.5 -73t-1 -84t2.5 -73q6 -5 45.5 63t73.5 121.5t58.5 86.5t34.5 35q13 3 34.5 -5.5t42 -22t36.5 -29t19 -27.5q4 -15 -12 -47t-41.5 -73.5t-56.5 -89t-58 -93.5l90 65q54 39 114 81
l120 85q60 43 110 77.5t83.5 56t40.5 22.5q22 3 37.5 -10.5t25 -34.5t12 -46t-2.5 -47q-2 -7 -30.5 -31t-75 -59t-105.5 -78t-120.5 -86.5t-120.5 -85t-106 -74.5q26 -24 60.5 -56.5t65.5 -66t54 -63.5t27 -48q9 -45 -9 -79t-48 -68q-8 11 -15 20.5t-18 18.5
q-15 13 -46.5 39.5t-71.5 59.5t-86 68t-90 64q-10 -9 -17.5 -14t-14 -9t-12.5 -7.5t-13 -8.5q-8 -6 -23 -29.5t-34.5 -57.5t-42 -74.5t-44.5 -78.5z" />
    <glyph glyph-name="uni0416.001" horiz-adv-x="1137" 
d="M405 -90q-19 17 -36 30.5t-31.5 27.5t-24 31.5t-13.5 42.5q-2 13 14 54q16 39 42 94q-9 -5 -19 -12q-28 -20 -61.5 -47t-70 -57.5t-69 -61.5t-58 -59t-38.5 -49q-16 18 -27.5 41t-18.5 46.5t-9.5 45.5t-1.5 38q1 17 35 60t87 96.5t117.5 109t126.5 97.5q-2 38 -4 82.5
t-2 90t1 88t4 76.5t7.5 56t11.5 27q10 6 34.5 4t50.5 -9t48.5 -17t28.5 -20q5 -8 5 -40t-0.5 -73t-1 -84t2.5 -73q6 -5 45.5 63t73.5 121.5t58.5 86.5t34.5 35q13 3 34.5 -5.5t42 -22t36.5 -29t19 -27.5q4 -15 -12 -47t-41.5 -73.5t-56.5 -89t-58 -93.5l90 65q54 39 114 81
l120 85q60 43 110 77.5t83.5 56t40.5 22.5q22 3 37.5 -10.5t25 -34.5t12 -46t-2.5 -47q-2 -7 -30.5 -31t-75 -59t-105.5 -78t-120.5 -86.5t-120.5 -85t-106 -74.5q26 -24 60.5 -56.5t65.5 -66t54 -63.5t27 -48q9 -45 -9 -79t-48 -68q-8 11 -15 20.5t-18 18.5
q-15 13 -46.5 39.5t-71.5 59.5t-86 68t-90 64q-10 -9 -17.5 -14t-14 -9t-12.5 -7.5t-13 -8.5q-8 -6 -23 -29.5t-34.5 -57.5t-42 -74.5t-44.5 -78.5z" />
    <glyph glyph-name="uni044C.001" horiz-adv-x="657" 
d="M84 -98q-20 18 -41 35.5t-37.5 34t-26 31t-6.5 26.5q7 36 21 79q-7 20 -7 30q1 12 13 28q11 13 26 28q15 37 33 76q30 67 66 136t73 133.5t73 121.5t65.5 100.5t51.5 70t31 30.5q9 3 24.5 -2t33.5 -15.5t36 -25t32 -28.5t20.5 -26.5t1.5 -19.5q-16 -23 -49.5 -74.5
t-77.5 -120.5q-24 -39 -51 -83q4 -19 13 -38q14 -28 43 -56q17 -17 40.5 -31.5t47 -30t45 -35t35 -46.5t15.5 -64t-12 -87q-15 -54 -54 -91t-93.5 -56t-119.5 -20.5t-131 15.5q-62 16 -105 43q-16 -35 -29 -68zM249 230q-27 -49 -53 -97q33 -24 70 -37.5t70.5 -15.5t59 7
t35.5 31q12 25 4.5 43.5t-27 33.5t-46.5 30t-55 32q-16 10 -30 21z" />
    <glyph glyph-name="uni044B.001" horiz-adv-x="1046" 
d="M84 -98q-20 18 -41 35.5t-37.5 34t-26 31t-6.5 26.5q7 36 21 79q-7 20 -7 30q1 12 13 28q11 13 26 28q15 37 33 76q30 67 66 136t73 133.5t73 121.5t65.5 100.5t51.5 70t31 30.5q9 3 24.5 -2t33.5 -15.5t36 -25t32 -28.5t20.5 -26.5t1.5 -19.5q-16 -23 -49.5 -74.5
t-77.5 -120.5q-24 -39 -51 -83q4 -19 13 -38q14 -28 43 -56q17 -17 40.5 -31.5t47 -30t45 -35t35 -46.5t15.5 -64t-12 -87q-15 -54 -54 -91t-93.5 -56t-119.5 -20.5t-131 15.5q-62 16 -105 43q-16 -35 -29 -68zM249 230q-27 -49 -53 -97q33 -24 70 -37.5t70.5 -15.5t59 7
t35.5 31q12 25 4.5 43.5t-27 33.5t-46.5 30t-55 32q-16 10 -30 21zM742 -98q-20 18 -41 35.5t-37.5 34t-26 31t-6.5 26.5q10 51 33 113t53 128.5t66 135.5t73 133.5t73 121.5t65.5 100.5t51.5 70t31 30.5q9 3 24.5 -2t33.5 -15.5t36 -25t32 -28.5t20.5 -26.5t1.5 -19.5
q-16 -23 -49.5 -74.5t-77 -120.5t-93 -151.5t-98 -168.5t-92 -170.5t-73.5 -157.5z" />
    <glyph glyph-name="uni0439.001" horiz-adv-x="729" 
d="M344 -98q-16 15 -33.5 29t-31 27.5t-21 25.5t-5.5 22q9 41 27.5 91.5t43.5 104.5q22 52 50 105q-262 -226 -394 -376q-6 -14 -12 -29q-16 15 -33.5 29t-31 27.5t-21 25.5t-5.5 22q9 41 27.5 91.5t43 105t54 110.5t59.5 109t59.5 99.5t53.5 82t42 57t25 24.5q8 2 20.5 -2
t27 -12.5t29.5 -20t26 -23t16.5 -22t1.5 -15.5q-13 -19 -40.5 -61t-63.5 -98q-21 -35 -45 -74q49 53 93 98q77 76 288 214l3 -3q14 16 20 19q8 2 20.5 -2t27 -12.5t29.5 -20t26 -23t16.5 -22t1.5 -15.5q-13 -19 -40.5 -61t-63 -98.5t-75.5 -123.5t-80 -137.5t-75.5 -139
t-59.5 -128.5zM582 826q-1 -11 -12.5 -25.5t-27.5 -32t-34 -38t-31 -42.5q-16 10 -25.5 23.5t-15 27.5t-6 28t1.5 25q1 10 11 27t22 33.5t24 28.5t18 12q10 0 23.5 -5.5t25.5 -14.5t19.5 -21.5t6.5 -25.5z" />
    <glyph glyph-name="uni0448.001" horiz-adv-x="1076" 
d="M858 -59q-20 18 -41 35.5t-38 33.5q-7 8 -14 15q-22 -8 -48 -17q-36 -13 -75.5 -26.5t-74.5 -24t-63 -15.5t-42 0q-20 6 -39 28.5t-35 51.5q-1 3 -3 6q-27 -9 -58 -20q-36 -13 -75.5 -26.5t-74.5 -24t-63 -15.5t-42 0q-20 6 -39 28.5t-34.5 52t-26 62t-14.5 59.5
q-4 26 11 73t42 105.5t62.5 124.5t73.5 131q89 152 205 328q17 3 41 -6t47 -24.5t41 -35.5t23 -38q4 -11 -15 -48.5t-51.5 -92t-73.5 -121.5t-82 -137t-77.5 -138t-59.5 -124q37 12 75.5 23t72.5 18q32 7 59 10q2 11 7 25q15 47 42 105.5t62.5 124.5t73.5 131
q89 152 205 328q17 3 41 -6t47 -24.5t41 -35.5t23 -38q4 -11 -15 -48.5t-51.5 -92t-73.5 -121.5t-82 -137t-77.5 -138t-59.5 -124q37 12 75.5 23t72.5 18.5t61 9.5q24 1 39 -3q22 58 50 120q30 67 66 136t73 133.5t73 121.5t65.5 100.5t51.5 70t31 30.5q9 3 24.5 -2
t33.5 -15.5t36 -25t32 -28.5t20.5 -26.5t1.5 -19.5q-16 -23 -49.5 -74.5t-77 -120.5t-93 -151.5t-98 -168.5t-92 -170.5t-73.5 -157.5z" />
    <glyph glyph-name="uni0444.001" horiz-adv-x="1136" 
d="M409 -96q-16 11 -38 26t-42.5 31.5t-36 34t-18.5 34.5q-2 11 14 51t44 98q27 57 62 126q-71 -17 -142 -15q-75 3 -131.5 29.5t-86 78.5t-15.5 131q15 82 54 142t93 100.5t119 62t131.5 26.5t130.5 -5t116 -33q9 -4 18 -9q23 35 31 39q9 5 20 1.5t23.5 -11.5t25.5 -18.5
t27 -19.5q45 19 92.5 33.5t94.5 13t94 -24t91 -76.5q39 -48 35.5 -114t-37 -135t-89.5 -135t-122 -114.5t-134.5 -73t-126.5 -10.5q-21 5 -35.5 15t-25.5 23.5t-20.5 30t-20.5 33.5q-9 -10 -25 -35t-35 -59t-39.5 -73t-39.5 -76.5t-34 -70t-22 -52.5zM640 348q2 -7 4 -13.5
t8 -10.5q13 -9 40 -2t61 24.5t72.5 44t75 56.5t67.5 62t51 61t26 52.5t-9 37.5q-19 18 -51.5 18t-66 -7.5t-61.5 -19.5t-37 -18q-3 -2 -15.5 -18t-29.5 -40.5t-37 -55t-39 -61t-35 -59.5t-24 -51zM552 597q21 36 39 68q-73 34 -163 31q-54 -2 -103.5 -23.5t-84 -52.5
t-50.5 -65t-3 -62q11 -24 38 -31.5t61.5 -4.5t73.5 11t75 15q32 6 58 8q30 54 59 106z" />
    <glyph glyph-name="uni0442.001" horiz-adv-x="638" 
d="M166 -108q-21 18 -45 36t-44 35t-32.5 33t-10.5 28q12 61 47.5 142.5t82 167.5t97.5 170t94 150q-20 3 -52.5 -3t-65.5 -13t-60 -11t-36 2q-8 6 -17.5 26t-17 43t-10 43.5t3.5 26.5q22 22 75 39t120.5 27.5t141.5 16t140 4.5t115.5 -7.5t67.5 -19.5q9 -6 21.5 -22.5
t24.5 -37t21.5 -41.5t12.5 -36q-27 2 -68.5 0.5t-82 -5.5t-72.5 -9t-40 -11q-4 -3 -20 -29t-41 -68.5t-56 -98t-64.5 -117.5t-67.5 -127t-65 -126t-56 -114.5t-41 -93.5z" />
    <glyph glyph-name="uni0441.001" horiz-adv-x="672" 
d="M434 462q26 24 49 57.5t38 65.5t19.5 57.5t-6.5 34.5q-17 13 -44.5 -2t-61 -48.5t-70 -82.5t-70.5 -104t-63 -113t-47.5 -110t-23.5 -94.5t9 -66.5q4 -7 25.5 2.5t52 30t66.5 49.5t68.5 61t57.5 64.5t35 60.5q23 -6 45 -24.5t38.5 -40t24.5 -41t3 -28.5
q-29 -52 -72.5 -103.5t-94.5 -92t-105 -64.5t-102 -22q-26 1 -55 10.5t-57 28t-53.5 47t-44.5 68.5q-14 28 -12.5 81t15.5 116.5t40 131t61 125.5q38 64 82 122.5t94 105t106.5 77t119.5 36.5q47 5 82 -1.5t59.5 -24t40.5 -45t26 -64.5q4 -18 0.5 -49t-12 -67t-21.5 -73
t-27.5 -69t-28.5 -54t-25 -28q-35 9 -66 21q-26 11 -53.5 25t-41.5 34z" />
    <glyph glyph-name="uni044F.001" horiz-adv-x="770" 
d="M772 865q20 -18 41 -35.5t37.5 -34t26 -31t6.5 -26.5q-7 -36 -21 -79q7 -20 7 -30q-1 -12 -13 -28q-11 -13 -26 -28q-15 -37 -33 -76q-30 -67 -66 -136t-73 -133.5t-73 -121.5t-65.5 -100.5t-51.5 -70t-31 -30.5q-9 -3 -24.5 2t-33.5 15.5t-36 25t-32 28.5t-20.5 26.5
t-1.5 19.5q16 23 49 74q27 41 60 94q-7 -6 -17 -12q-28 -20 -61.5 -47t-70 -57.5t-89.5 -51t-78.5 -48.5t-38.5 -49q-16 18 -27.5 41t-18.5 46.5t-9.5 45.5t-1.5 38q1 17 35 60t107.5 86t137.5 98q54 47 106 84q-1 1 -2 1q-23 15 -46.5 30.5t-45 35t-35 46.5t-15.5 64t12 87
q15 54 54 91t93.5 56t119.5 20.5t131 -15.5q62 -16 105 -43q16 35 29 68zM607 537q27 49 53 97q-33 24 -70 37.5t-70.5 15.5t-59 -7t-35.5 -31q-12 -25 -4.5 -43.5t27 -33.5t46.5 -30t55 -32q16 -10 30 -21z" />
    <glyph glyph-name="uni0433.001" horiz-adv-x="697" 
d="M425 866q36 -16 62 -27t44 -16q9 -2 32 2t51.5 10t56 11.5t45.5 4.5q23 -1 41 -16t32 -37.5t24.5 -49t19.5 -51.5q-9 2 -15 4t-18 4q-11 1 -47.5 -4t-83 -15t-94 -24t-80.5 -29q-258 -445 -282 -482t-46.5 -77.5t-44 -81.5t-40.5 -80q-44 32 -76 75.5t-41 85.5
q-1 5 11 33.5t33.5 73.5t51.5 103t65 121.5t74 129.5t78 127t76.5 114t70.5 91z" />
    <glyph glyph-name="uni0417.001" horiz-adv-x="780" 
d="M43 117q-5 25 -0.5 46t12.5 41.5t18 41.5t16 47q19 -40 52.5 -75t73.5 -60t83.5 -38t82.5 -9t70 27t47 71q11 33 0 54t-35 34.5t-55 20.5t-60.5 12t-51.5 9.5t-28 13.5q-13 19 -15 42.5t0 43.5q3 24 10 48q3 0 19 4t43 10.5t62.5 15t77.5 17.5q38 9 73 24.5t60.5 34
t37.5 38t3 36.5q-11 22 -44 26t-76.5 -6.5t-91 -33.5t-88.5 -55q-7 18 -16 40t-16 43t-11 38.5t-1 27.5q10 35 51.5 62.5t97.5 42t118.5 14t117 -20t92 -61t43.5 -109.5q4 -56 -12 -97.5t-49.5 -71.5t-82.5 -50.5t-111 -35.5q33 -19 60.5 -41t45.5 -52t23 -70.5t-7 -96.5
q-21 -92 -73.5 -146.5t-120.5 -77.5t-142.5 -18t-138.5 31t-109.5 69.5t-54.5 98.5z" />
    <glyph glyph-name="uni043A.001" horiz-adv-x="806" 
d="M74 -90q-19 17 -36 30.5t-31.5 27.5t-24 31.5t-13.5 42.5q-2 13 14 54t44.5 100t65.5 130t77 143t79.5 140t73.5 121.5t58.5 86.5t34.5 35q13 3 34.5 -5.5t42 -22t36.5 -29t19 -27.5q4 -15 -12 -47t-41.5 -73.5t-56.5 -89t-58 -93.5l90 65t114 81.5l120 85t110 77
t83.5 56t40.5 22.5q22 3 37.5 -10.5t25 -34.5t12 -46t-2.5 -47q-2 -7 -30.5 -31t-75 -59t-105.5 -78t-120.5 -86.5t-120.5 -85t-106 -74.5q26 -24 60.5 -56.5t65.5 -66t54 -63.5t27 -48q9 -45 -9 -79t-48 -68q-8 11 -15 20.5t-18 18.5q-15 13 -46.5 39.5t-71.5 59.5t-86 68
t-90 64q-10 -9 -17.5 -14t-14 -9t-12.5 -7.5t-13 -8.5q-8 -6 -23 -29.5t-34.5 -57.5t-42 -74.5t-44.5 -78.5z" />
    <glyph glyph-name="uni044D.001" horiz-adv-x="672" 
d="M312 298q-2 1 -10 20.5t-16 44.5t-12 50t4 37q4 6 28 10.5t58.5 6t74.5 0.5q22 0 42 -1q21 44 35 85q19 52 24 94.5t-9 66.5q-4 7 -25.5 -2.5t-52 -30t-66.5 -49.5t-68.5 -61t-57.5 -64.5t-35 -60.5q-23 6 -45 24.5t-38.5 40t-24.5 41t-3 28.5q29 52 72.5 103.5t94.5 92
t105 64.5t102 22q26 -1 55 -10.5t57 -28t53.5 -47t44.5 -68.5q14 -28 12.5 -81t-15.5 -117q-11 -51 -101 -256q-38 -64 -82 -122.5t-94 -105t-106.5 -77t-119.5 -36.5q-47 -5 -82 1.5t-59.5 24t-40.5 45t-26 64.5q-4 18 -0.5 49t12 67t21.5 73t27.5 69t28.5 54t25 28
q35 -9 66 -21q26 -11 53.5 -25t41.5 -34q-26 -24 -49 -57.5t-38 -65.5t-19.5 -57.5t6.5 -34.5q17 -13 44.5 2t61 48.5t69.5 82.5q28 37 55 78q-32 -1 -53 -3q-24 -2 -25 -1z" />
    <glyph glyph-name="uni0445.001" horiz-adv-x="846" 
d="M-19 -96q-16 18 -27.5 41t-18.5 46.5t-9.5 45.5t-1.5 38q1 17 35 60t87 96.5t117.5 109t126.5 97.5q-2 38 -4 82.5t-2 90t1 88t4 76.5t7.5 56t11.5 27q10 6 34.5 4t50.5 -9t48.5 -17t28.5 -20q5 -8 5 -40t-0.5 -73t-1 -84t2.5 -73q24 18 57.5 41.5t72.5 49t80.5 51.5
t80.5 51q92 58 195 119q13 -18 26.5 -35.5t23.5 -35.5t15 -35.5t1 -34.5q-3 -12 -33 -35.5t-77 -55t-105 -68t-115 -75t-108 -76.5t-84 -71q3 -52 13 -107.5t25.5 -103t36.5 -81t48 -41.5q24 -7 39.5 -6t29 9t27.5 23.5t33 36.5q-14 -49 -48.5 -85t-78.5 -54.5t-91.5 -16.5
t-87.5 30q-31 21 -49.5 45.5t-31 55.5t-23 71.5t-25.5 94.5q-16 -9 -44.5 -29t-62 -47t-70 -57.5t-69 -61.5t-58 -59t-38.5 -49z" />
    <glyph glyph-name="uni0443.001" horiz-adv-x="673" 
d="M101 -99q-20 12 -37 31t-29.5 39t-19.5 38t-7 30t14 41t37 65t52.5 73.5t61.5 66.5q-53 29 -75 82t-24 125q-1 36 5.5 76.5t18 79.5t26 74.5t29.5 63.5t29 45.5t24 20.5q16 4 39.5 -3t47.5 -21t43 -32t26 -34q5 -12 -11.5 -41t-38 -77t-39 -117t-13.5 -161
q106 121 199.5 214t164.5 158q83 76 152 132q16 -17 35.5 -28t36.5 -22.5t28.5 -26t13.5 -37.5q1 -11 -16.5 -30t-56.5 -55.5t-100.5 -95.5t-149.5 -150.5t-204 -220t-262 -303.5z" />
    <glyph glyph-name="uni0431.001" horiz-adv-x="657" 
d="M425 866q3 -2 7 -4q5 0 11 -2q16 -5 34 -16q4 -2 8 -5h2q26 -11 44 -16q9 -2 32 2t51.5 10t56 11.5t45.5 4.5q23 -1 41 -16t32 -37.5t24.5 -49t19.5 -51.5q-9 2 -15 4t-18 4q-11 1 -47.5 -4t-83 -15t-94 -24t-80.5 -29q-58 -100 -103 -178q4 -13 10 -26q14 -28 43 -56
q17 -17 40.5 -31.5t47 -30t45 -35t35 -46.5t15.5 -64t-12 -87q-15 -54 -54 -91t-93.5 -56t-119.5 -20.5t-131 15.5q-62 16 -105 43q-16 -35 -29 -68q-20 18 -41 35.5t-37.5 34t-26 31t-6.5 26.5q1 5 3 11q-7 17 -11 33q-1 5 11 33q5 12 12 26q-1 3 -1 6q1 12 13 28q3 4 7 8
l2 6q22 45 52 103q18 35 38 73l26 50q36 69 73 133.5t73 121.5t65.5 100.5t51.5 70t31 30.5q1 0 3 1t3 3zM266 95q37 -13 70.5 -15t59 7t35.5 31q12 25 4.5 43.5t-27 33.5t-46.5 30t-55 32q-12 7 -22 14q-61 -103 -72 -120q-7 -10 -13 -21q31 -22 66 -35z" />
    <glyph glyph-name="uni0410" unicode="&#x410;" horiz-adv-x="694" 
d="M-84 78q4 33 27.5 83t59.5 109.5t81.5 124t93.5 128t96.5 121.5t90 103.5t73.5 75t48 35.5q10 4 36 -14.5t60.5 -44t74 -50.5t75.5 -35q-21 -56 -37.5 -104t-30 -95t-26.5 -96t-26 -107q-13 -55 -21.5 -103.5t-15 -96t-13.5 -97t-16 -105.5q-24 3 -42.5 13t-33.5 25
t-27 34.5t-23 41.5q-9 16 -10 31t1 30t4 31t-1 34q-70 -8 -128 -14q-25 -3 -49.5 -6t-45.5 -5.5t-36.5 -4.5t-22.5 -3q-18 -14 -42 -48.5t-45 -71.5q-26 -43 -51 -93q-18 18 -33.5 38t-26.5 42t-16 45.5t-2 48.5zM522 642q-55 -66 -107 -129q-22 -27 -45.5 -56.5t-46.5 -59
t-43.5 -57.5t-36.5 -52q28 5 61 8.5t62 7.5l66 8z" />
    <glyph glyph-name="uni0411" unicode="&#x411;" horiz-adv-x="750" 
d="M510 866q3 -2 7 -4q5 0 11 -2q16 -5 34 -16q4 -2 8 -5h2q26 -11 44 -16q9 -2 32 2t51.5 10t56 11.5t45.5 4.5q23 -1 41 -16t32 -37.5t24.5 -49t19.5 -51.5q-9 2 -15 4t-18 4q-11 1 -47.5 -4t-83 -15t-94 -24t-80.5 -29q-58 -100 -103 -178q4 -13 10 -26q14 -28 43 -56
q17 -17 40.5 -31.5t47 -30t45 -35t35 -46.5t15.5 -64t-12 -87q-15 -54 -54 -91t-93.5 -56t-119.5 -20.5t-131 15.5q-62 16 -105 43q-16 -35 -29 -68q-20 18 -41 35.5t-37.5 34t-26 31t-6.5 26.5q1 5 3 11q-7 17 -11 33q-1 5 11 33q5 12 12 26q-1 3 -1 6q1 12 13 28q3 4 7 8
l2 6q22 45 52 103q18 35 38 73l26 50q36 69 73 133.5t73 121.5t65.5 100.5t51.5 70t31 30.5q1 0 3 1t3 3zM351 95q37 -13 70.5 -15t59 7t35.5 31q12 25 4.5 43.5t-27 33.5t-46.5 30t-55 32q-12 7 -22 14q-61 -103 -72 -120q-7 -10 -13 -21q31 -22 66 -35z" />
    <glyph glyph-name="uni0412" unicode="&#x412;" horiz-adv-x="828" 
d="M-36 55q4 25 23 74t47 109.5t62 126t69 123.5q21 36 46.5 76t51.5 79.5t52 76t48.5 65t41 46.5t29.5 21q12 -10 25 -20q11 -9 24 -19t25 -18q23 24 61.5 38t77 20t70 6t41.5 -2q17 -4 38.5 -16t39.5 -29.5t29 -40t6 -48.5q-12 -65 -29.5 -108t-44.5 -76.5t-65.5 -64
t-92.5 -71.5q48 -15 71 -36t30.5 -44.5t5.5 -47.5t-5 -46q-6 -52 -35 -97t-72 -81t-95.5 -62.5t-104.5 -43.5t-100.5 -23t-82.5 -1q-23 3 -41 12.5t-34 23t-30.5 29.5t-30.5 32l-45 -92q-18 13 -38 27t-36 29.5t-25.5 33.5t-6.5 39zM341 428q17 -5 56.5 11t88.5 44t99.5 63
t88.5 68t56.5 60t3.5 38q-11 8 -40.5 0t-67 -24.5t-77 -37t-70.5 -37.5zM177 146q7 -12 32.5 -20.5t58 -11.5t67 -0.5t59.5 10.5q37 12 77.5 32.5t71 44t45 45t-0.5 35.5q-13 11 -33 12t-43.5 -3t-47.5 -11t-44.5 -13t-35 -8.5t-18.5 3.5q-16 12 -30 26q-12 11 -25 26
t-20 29z" />
    <glyph glyph-name="uni0413" unicode="&#x413;" horiz-adv-x="697" 
d="M425 866q36 -16 62 -27t44 -16q9 -2 32 2t51.5 10t56 11.5t45.5 4.5q23 -1 41 -16t32 -37.5t24.5 -49t19.5 -51.5q-9 2 -15 4t-18 4q-11 1 -47.5 -4t-83 -15t-94 -24t-80.5 -29q-258 -445 -282 -482t-46.5 -77.5t-44 -81.5t-40.5 -80q-44 32 -76 75.5t-41 85.5
q-1 5 11 33.5t33.5 73.5t51.5 103t65 121.5t74 129.5t78 127t76.5 114t70.5 91z" />
    <glyph glyph-name="uni0414" unicode="&#x414;" horiz-adv-x="964" 
d="M567 -126q20 -1 33 2t30 11q9 5 23.5 18.5t31.5 31.5q-34 -1 -70 -2q-72 -3 -147 -6t-136.5 -6t-100.5 -5h-7q-2 -7 -6 -14q-6 7 -12 13h-5q-5 -6 -11 -13q-23 -28 -53.5 -50t-63.5 -25q-26 -2 -46 1.5t-38.5 13t-36.5 23.5t-39 33q20 -1 33 2t30 11q9 5 23.5 18.5t32 31
t35 37t33 35.5t26.5 26l1 1q1 12 8 20q2 2 8 4q49 127 84 184q36 60 81.5 124.5t93.5 128t96.5 121.5t90 103.5t73.5 75t48 35.5q10 4 36 -14.5t60.5 -44t74 -50.5t75.5 -35q-21 -56 -37.5 -104t-30 -95t-26.5 -96t-26 -107q-13 -55 -21.5 -103.5t-15.5 -96.5
q-4 -33 -10 -68l6 3q7 1 22 -8t31 -21.5t28.5 -27t14.5 -25.5q1 -9 -11.5 -34.5t-35.5 -53t-53.5 -49.5t-63.5 -25q-26 -2 -46 1.5t-38.5 13t-36.5 23.5t-39 33zM386 173q-28 -41 -50 -73h61q66 0 126 -3.5t106 -9.5h6q5 31 111 555q-55 -66 -107 -129q-22 -27 -45.5 -56.5
t-46.5 -59t-43.5 -57.5t-117.5 -167z" />
    <glyph glyph-name="uni0415" unicode="&#x415;" horiz-adv-x="681" 
d="M483 844q30 1 60.5 5.5t58 8t51 4.5t39.5 -4q63 -22 90 -72t27 -114q-13 3 -22 5t-23 4q-43 5 -81 1.5t-72 -11t-64.5 -16t-58.5 -13.5l-120 -180q28 8 56.5 16t54.5 12.5t48.5 4t38.5 -8.5q35 -19 58.5 -56t19.5 -88q-8 8 -19.5 7.5t-22.5 -1.5q-31 -3 -77.5 -12.5
t-93 -21.5t-86 -24.5t-55.5 -19.5q-24 -11 -40.5 -29t-29 -40.5t-24 -49.5t-26.5 -55q31 12 63 24t61.5 22t55.5 15t45 2q15 -2 32 -16t32 -35t25.5 -46.5t12.5 -52.5q-11 7 -18.5 9t-26.5 3q-8 0 -31 -8t-54.5 -20t-68 -25.5t-70.5 -25t-62.5 -17.5t-43.5 -3
q-46 9 -74.5 31t-48.5 62q-16 32 -20.5 62t5.5 61q15 49 48.5 117t76 143.5t90 151.5t89.5 142t75 114.5t47 69.5q8 2 17 -2.5t18 -11.5t18.5 -12.5t19.5 -5.5z" />
    <glyph glyph-name="uni0416" unicode="&#x416;" horiz-adv-x="1137" 
d="M448 -90q-19 17 -36 30.5t-31.5 27.5t-24 31.5t-13.5 42.5q-2 13 14 54q16 39 42 94q-9 -5 -19 -12q-28 -20 -61.5 -47t-70 -57.5t-69 -61.5t-58 -59t-38.5 -49q-16 18 -27.5 41t-18.5 46.5t-9.5 45.5t-1.5 38q1 17 35 60t87 96.5t117.5 109t126.5 97.5q-2 38 -4 82.5
t-2 90t1 88t4 76.5t7.5 56t11.5 27q10 6 34.5 4t50.5 -9t48.5 -17t28.5 -20q5 -8 5 -40t-0.5 -73t-1 -84t2.5 -73q6 -5 45.5 63t73.5 121.5t58.5 86.5t34.5 35q13 3 34.5 -5.5t42 -22t36.5 -29t19 -27.5q4 -15 -12 -47t-41.5 -73.5t-56.5 -89t-58 -93.5l90 65q54 39 114 81
l120 85q60 43 110 77.5t83.5 56t40.5 22.5q22 3 37.5 -10.5t25 -34.5t12 -46t-2.5 -47q-2 -7 -30.5 -31t-75 -59t-105.5 -78t-120.5 -86.5t-120.5 -85t-106 -74.5q26 -24 60.5 -56.5t65.5 -66t54 -63.5t27 -48q9 -45 -9 -79t-48 -68q-8 11 -15 20.5t-18 18.5
q-15 13 -46.5 39.5t-71.5 59.5t-86 68t-90 64q-10 -9 -17.5 -14t-14 -9t-12.5 -7.5t-13 -8.5q-8 -6 -23 -29.5t-34.5 -57.5t-42 -74.5t-44.5 -78.5z" />
    <glyph glyph-name="uni0417" unicode="&#x417;" horiz-adv-x="780" 
d="M43 117q-5 25 -0.5 46t12.5 41.5t18 41.5t16 47q19 -40 52.5 -75t73.5 -60t83.5 -38t82.5 -9t70 27t47 71q11 33 0 54t-35 34.5t-55 20.5t-60.5 12t-51.5 9.5t-28 13.5q-13 19 -15 42.5t0 43.5q3 24 10 48q3 0 19 4t43 10.5t62.5 15t77.5 17.5q38 9 73 24.5t60.5 34
t37.5 38t3 36.5q-11 22 -44 26t-76.5 -6.5t-91 -33.5t-88.5 -55q-7 18 -16 40t-16 43t-11 38.5t-1 27.5q10 35 51.5 62.5t97.5 42t118.5 14t117 -20t92 -61t43.5 -109.5q4 -56 -12 -97.5t-49.5 -71.5t-82.5 -50.5t-111 -35.5q33 -19 60.5 -41t45.5 -52t23 -70.5t-7 -96.5
q-21 -92 -73.5 -146.5t-120.5 -77.5t-142.5 -18t-138.5 31t-109.5 69.5t-54.5 98.5z" />
    <glyph glyph-name="uni0418" unicode="&#x418;" horiz-adv-x="817" 
d="M598 -98q-20 18 -41 35.5t-37.5 34t-26 31t-6.5 26.5q10 51 33 113t53 128q28 63 62 129q-321 -277 -483 -461q-8 -18 -15 -36q-20 18 -41 35.5t-37.5 34t-26 31t-6.5 26.5q10 51 33 113t53 128.5t66 135.5t73 133.5t73 121.5t65.5 100.5t51.5 70t31 30.5q9 3 24.5 -2
t33.5 -15.5t36 -25t32 -28.5t20.5 -26.5t1.5 -19.5q-16 -23 -49.5 -74.5t-77.5 -120.5q-26 -42 -55 -90q59 65 114 120q94 93 352 262q2 -1 4 -3q17 19 25 23q9 3 24.5 -2t33.5 -15.5t36 -25t32 -28.5t20.5 -26.5t1.5 -19.5q-16 -23 -49.5 -74.5t-77 -120.5t-93 -151.5
t-98 -168.5t-92 -170.5t-73.5 -157.5z" />
    <glyph glyph-name="uni0419.001" horiz-adv-x="729" 
d="M344 -98q-16 15 -33.5 29t-31 27.5t-21 25.5t-5.5 22q9 41 27.5 91.5t43.5 104.5q22 52 50 105q-262 -226 -394 -376q-6 -14 -12 -29q-16 15 -33.5 29t-31 27.5t-21 25.5t-5.5 22q9 41 27.5 91.5t43 105t54 110.5t59.5 109t59.5 99.5t53.5 82t42 57t25 24.5q8 2 20.5 -2
t27 -12.5t29.5 -20t26 -23t16.5 -22t1.5 -15.5q-13 -19 -40.5 -61t-63.5 -98q-21 -35 -45 -74q49 53 93 98q77 76 288 214l3 -3q14 16 20 19q8 2 20.5 -2t27 -12.5t29.5 -20t26 -23t16.5 -22t1.5 -15.5q-13 -19 -40.5 -61t-63 -98.5t-75.5 -123.5t-80 -137.5t-75.5 -139
t-59.5 -128.5zM582 826q-1 -11 -12.5 -25.5t-27.5 -32t-34 -38t-31 -42.5q-16 10 -25.5 23.5t-15 27.5t-6 28t1.5 25q1 10 11 27t22 33.5t24 28.5t18 12q10 0 23.5 -5.5t25.5 -14.5t19.5 -21.5t6.5 -25.5z" />
    <glyph glyph-name="uni041A" unicode="&#x41a;" horiz-adv-x="806" 
d="M74 -90q-19 17 -36 30.5t-31.5 27.5t-24 31.5t-13.5 42.5q-2 13 14 54t44.5 100t65.5 130t77 143t79.5 140t73.5 121.5t58.5 86.5t34.5 35q13 3 34.5 -5.5t42 -22t36.5 -29t19 -27.5q4 -15 -12 -47t-41.5 -73.5t-56.5 -89t-58 -93.5l90 65t114 81.5l120 85t110 77
t83.5 56t40.5 22.5q22 3 37.5 -10.5t25 -34.5t12 -46t-2.5 -47q-2 -7 -30.5 -31t-75 -59t-105.5 -78t-120.5 -86.5t-120.5 -85t-106 -74.5q26 -24 60.5 -56.5t65.5 -66t54 -63.5t27 -48q9 -45 -9 -79t-48 -68q-8 11 -15 20.5t-18 18.5q-15 13 -46.5 39.5t-71.5 59.5t-86 68
t-90 64q-10 -9 -17.5 -14t-14 -9t-12.5 -7.5t-13 -8.5q-8 -6 -23 -29.5t-34.5 -57.5t-42 -74.5t-44.5 -78.5z" />
    <glyph glyph-name="uni041B" unicode="&#x41b;" horiz-adv-x="694" 
d="M-84 78q51 133 87 192.5t81.5 124t93.5 128t96.5 121.5t90 103.5t73.5 75t48 35.5q10 4 36 -14.5t60.5 -44t74 -50.5t75.5 -35q-21 -56 -37.5 -104t-30 -95t-26.5 -96t-26 -107q-13 -55 -21.5 -103.5t-15 -96t-13.5 -97t-16 -105.5q-24 3 -42.5 13t-33.5 25t-27 34.5
t-23 41.5q-9 16 -10 31t1 30t111 557q-55 -66 -107 -129q-22 -27 -45.5 -56.5t-46.5 -59t-43.5 -57.5t-117 -167t-117.5 -176q-26 -43 -51 -93q-18 18 -33.5 38t-26.5 42t-16 45.5t-2 48.5z" />
    <glyph glyph-name="uni041C" unicode="&#x41c;" horiz-adv-x="1206" 
d="M-34 18q-8 9 -4 32.5t15 56t28.5 72t37 81t40.5 81t39 73.5q20 37 48 81.5t58.5 90.5t62 91t59 82t48 63t30.5 36q46 -14 86 -32q35 -16 70 -38t54 -50q-32 -100 -59 -191q-12 -39 -23.5 -79.5t-21.5 -78t-17.5 -70t-10.5 -55.5l552 600q40 -11 75.5 -30t62.5 -41
t44 -44.5t22 -40.5q2 -8 -8 -32t-28.5 -58.5t-42.5 -76t-50.5 -84.5t-52 -85.5l-46.5 -77.5q-29 -49 -53.5 -95.5t-48 -92t-46.5 -92.5t-50 -98q-20 9 -41.5 23t-39 31t-27.5 37t-6 41q5 28 20.5 67t37.5 83.5t47 90.5t49 88t43.5 77t30.5 56l-504 -594q-16 14 -31 23
t-28.5 19t-24.5 23.5t-18 36.5q-6 20 -6.5 72.5t5.5 121.5t18.5 146t30.5 146l-336 -588z" />
    <glyph glyph-name="uni041D" unicode="&#x41d;" horiz-adv-x="870" 
d="M-28 54q3 27 18 71t37 97.5t49.5 112.5t57.5 115q14 27 32 59t37.5 65.5t39.5 67.5t39 66q44 74 92 150q47 -16 80 -34q14 -8 27 -16.5t21.5 -18t11.5 -19.5t-2 -20q-13 -23 -28.5 -51t-32 -58t-33.5 -61t-33 -59q-38 -67 -77 -137l282 60q16 28 38.5 70t47.5 87.5
t50.5 91.5t49 82.5t42.5 59t30 23.5q23 1 48 -13t45 -31q24 -20 45 -46q-25 -41 -53.5 -89.5t-59 -102.5t-61 -110.5t-60.5 -111.5q-34 -63 -61 -117.5t-51 -107.5t-47.5 -109t-50.5 -122q-44 25 -67.5 57t-34.5 81q-6 28 -2 53t13 49t19.5 49t17.5 53l-276 -60l-126 -252
q-21 12 -42.5 24.5t-38.5 26.5t-26.5 32.5t-6.5 42.5z" />
    <glyph glyph-name="uni041E" unicode="&#x41e;" horiz-adv-x="757" 
d="M9 54q-27 54 -27.5 123.5t20 145t58.5 152.5t89 145.5t112 123.5t126.5 87.5t132.5 37t131 -28.5q75 -39 108.5 -99t35.5 -132t-23 -151t-67.5 -156t-97.5 -146.5t-113.5 -122.5t-115 -84.5t-102.5 -32.5q-24 0 -43.5 4t-36 11.5t-32.5 16.5l-32 18q-16 8 -33.5 15.5
t-34 17t-31 22.5t-24.5 33zM189 96q11 -10 34 -4.5t51.5 22t61.5 42t64.5 56.5t59 64.5t47.5 65.5q27 45 55 97t43 101.5t10.5 91t-42.5 64.5q-30 18 -68.5 3.5t-78.5 -48.5t-77 -81.5t-64 -95.5q-28 -50 -53 -109.5t-40.5 -114t-18 -96.5t15.5 -58z" />
    <glyph glyph-name="uni041F" unicode="&#x41f;" horiz-adv-x="870" 
d="M-28 54q3 27 18 71t37 97.5t49.5 112.5t57.5 115q14 27 32 59t37.5 65.5t39.5 67.5t39 66q44 74 92 150q47 -16 255 -8.5t219 8.5q23 1 48 -13t45 -31q24 -20 45 -46q-25 -41 -53.5 -89.5t-59 -102.5t-61 -110.5t-60.5 -111.5q-34 -63 -61 -117.5t-51 -107.5t-47.5 -109
t-50.5 -122q-44 25 -67.5 57t-34.5 81q-6 28 -2 53t131 291t137.5 291t17.5 53l-276 -60l-362 -736q-21 12 -42.5 24.5t-38.5 26.5t-26.5 32.5t-6.5 42.5z" />
    <glyph glyph-name="uni0420" unicode="&#x420;" horiz-adv-x="828" 
d="M101 -96q-16 11 -38 26t-42.5 31.5t-36 34t-18.5 34.5q-2 11 14 51t44 98.5t65 129.5t76.5 144.5t79 143.5t72.5 125t56 90.5t31 39.5q9 5 20 1.5t23.5 -11.5t25.5 -18.5t27 -19.5q45 19 92.5 33.5t94.5 13t94 -24t91 -76.5q39 -48 35.5 -114t-37 -135t-89.5 -135
t-122 -114.5t-134.5 -73t-126.5 -10.5q-21 5 -35.5 15t-25.5 23.5t-20.5 30t-20.5 33.5q-9 -10 -25 -35t-35 -59t-39.5 -73t-39.5 -76.5t-34 -70t-22 -52.5zM332 348q2 -7 4 -13.5t8 -10.5q13 -9 40 -2t61 24.5t72.5 44t75 56.5t67.5 62t51 61t26 52.5t-9 37.5
q-19 18 -51.5 18t-66 -7.5t-61.5 -19.5t-37 -18q-3 -2 -15.5 -18t-29.5 -40.5t-37 -55t-39 -61t-35 -59.5t-24 -51z" />
    <glyph glyph-name="uni0421" unicode="&#x421;" horiz-adv-x="672" 
d="M434 462q26 24 49 57.5t38 65.5t19.5 57.5t-6.5 34.5q-17 13 -44.5 -2t-61 -48.5t-70 -82.5t-70.5 -104t-63 -113t-47.5 -110t-23.5 -94.5t9 -66.5q4 -7 25.5 2.5t52 30t66.5 49.5t68.5 61t57.5 64.5t35 60.5q23 -6 45 -24.5t38.5 -40t24.5 -41t3 -28.5
q-29 -52 -72.5 -103.5t-94.5 -92t-105 -64.5t-102 -22q-26 1 -55 10.5t-57 28t-53.5 47t-44.5 68.5q-14 28 -12.5 81t15.5 116.5t40 131t61 125.5q38 64 82 122.5t94 105t106.5 77t119.5 36.5q47 5 82 -1.5t59.5 -24t40.5 -45t26 -64.5q4 -18 0.5 -49t-12 -67t-21.5 -73
t-27.5 -69t-28.5 -54t-25 -28q-35 9 -66 21q-26 11 -53.5 25t-41.5 34z" />
    <glyph glyph-name="uni0422" unicode="&#x422;" horiz-adv-x="638" 
d="M166 -108q-21 18 -45 36t-44 35t-32.5 33t-10.5 28q12 61 47.5 142.5t82 167.5t97.5 170t94 150q-20 3 -52.5 -3t-65.5 -13t-60 -11t-36 2q-8 6 -17.5 26t-17 43t-10 43.5t3.5 26.5q22 22 75 39t120.5 27.5t141.5 16t140 4.5t115.5 -7.5t67.5 -19.5q9 -6 21.5 -22.5
t24.5 -37t21.5 -41.5t12.5 -36q-27 2 -68.5 0.5t-82 -5.5t-72.5 -9t-40 -11q-4 -3 -20 -29t-41 -68.5t-56 -98t-64.5 -117.5t-67.5 -127t-65 -126t-56 -114.5t-41 -93.5z" />
    <glyph glyph-name="uni0423" unicode="&#x423;" horiz-adv-x="673" 
d="M101 -99q-20 12 -37 31t-29.5 39t-19.5 38t-7 30t14 41t37 65t52.5 73.5t61.5 66.5q-53 29 -75 82t-24 125q-1 36 5.5 76.5t18 79.5t26 74.5t29.5 63.5t29 45.5t24 20.5q16 4 39.5 -3t47.5 -21t43 -32t26 -34q5 -12 -11.5 -41t-38 -77t-39 -117t-13.5 -161
q106 121 199.5 214t164.5 158q83 76 152 132q16 -17 35.5 -28t36.5 -22.5t28.5 -26t13.5 -37.5q1 -11 -16.5 -30t-56.5 -55.5t-100.5 -95.5t-149.5 -150.5t-204 -220t-262 -303.5z" />
    <glyph glyph-name="uni0424" unicode="&#x424;" horiz-adv-x="1136" 
d="M409 -96q-16 11 -38 26t-42.5 31.5t-36 34t-18.5 34.5q-2 11 14 51t44 98q27 57 62 126q-71 -17 -142 -15q-75 3 -131.5 29.5t-86 78.5t-15.5 131q15 82 54 142t93 100.5t119 62t131.5 26.5t130.5 -5t116 -33q9 -4 18 -9q23 35 31 39q9 5 20 1.5t23.5 -11.5t25.5 -18.5
t27 -19.5q45 19 92.5 33.5t94.5 13t94 -24t91 -76.5q39 -48 35.5 -114t-37 -135t-89.5 -135t-122 -114.5t-134.5 -73t-126.5 -10.5q-21 5 -35.5 15t-25.5 23.5t-20.5 30t-20.5 33.5q-9 -10 -25 -35t-35 -59t-39.5 -73t-39.5 -76.5t-34 -70t-22 -52.5zM640 348q2 -7 4 -13.5
t8 -10.5q13 -9 40 -2t61 24.5t72.5 44t75 56.5t67.5 62t51 61t26 52.5t-9 37.5q-19 18 -51.5 18t-66 -7.5t-61.5 -19.5t-37 -18q-3 -2 -15.5 -18t-29.5 -40.5t-37 -55t-39 -61t-35 -59.5t-24 -51zM552 597q21 36 39 68q-73 34 -163 31q-54 -2 -103.5 -23.5t-84 -52.5
t-50.5 -65t-3 -62q11 -24 38 -31.5t61.5 -4.5t73.5 11t75 15q32 6 58 8q30 54 59 106z" />
    <glyph glyph-name="uni0425" unicode="&#x425;" horiz-adv-x="846" 
d="M-19 -96q-16 18 -27.5 41t-18.5 46.5t-9.5 45.5t-1.5 38q1 17 35 60t87 96.5t117.5 109t126.5 97.5q-2 38 -4 82.5t-2 90t1 88t4 76.5t7.5 56t11.5 27q10 6 34.5 4t50.5 -9t48.5 -17t28.5 -20q5 -8 5 -40t-0.5 -73t-1 -84t2.5 -73q24 18 57.5 41.5t72.5 49t80.5 51.5
t80.5 51q92 58 195 119q13 -18 26.5 -35.5t23.5 -35.5t15 -35.5t1 -34.5q-3 -12 -33 -35.5t-77 -55t-105 -68t-115 -75t-108 -76.5t-84 -71q3 -52 13 -107.5t25.5 -103t36.5 -81t48 -41.5q24 -7 39.5 -6t29 9t27.5 23.5t33 36.5q-14 -49 -48.5 -85t-78.5 -54.5t-91.5 -16.5
t-87.5 30q-31 21 -49.5 45.5t-31 55.5t-23 71.5t-25.5 94.5q-16 -9 -44.5 -29t-62 -47t-70 -57.5t-69 -61.5t-58 -59t-38.5 -49z" />
    <glyph glyph-name="uni0428" unicode="&#x428;" horiz-adv-x="1076" 
d="M858 -59q-20 18 -41 35.5t-38 33.5q-7 8 -14 15q-22 -8 -48 -17q-36 -13 -75.5 -26.5t-74.5 -24t-63 -15.5t-42 0q-20 6 -39 28.5t-35 51.5q-1 3 -3 6q-27 -9 -58 -20q-36 -13 -75.5 -26.5t-74.5 -24t-63 -15.5t-42 0q-20 6 -39 28.5t-34.5 52t-26 62t-14.5 59.5
q-4 26 11 73t42 105.5t62.5 124.5t73.5 131q89 152 205 328q17 3 41 -6t47 -24.5t41 -35.5t23 -38q4 -11 -15 -48.5t-51.5 -92t-73.5 -121.5t-82 -137t-77.5 -138t-59.5 -124q37 12 75.5 23t72.5 18q32 7 59 10q2 11 7 25q15 47 42 105.5t62.5 124.5t73.5 131
q89 152 205 328q17 3 41 -6t47 -24.5t41 -35.5t23 -38q4 -11 -15 -48.5t-51.5 -92t-73.5 -121.5t-82 -137t-77.5 -138t-59.5 -124q37 12 75.5 23t72.5 18.5t61 9.5q24 1 39 -3q22 58 50 120q30 67 66 136t73 133.5t73 121.5t65.5 100.5t51.5 70t31 30.5q9 3 24.5 -2
t33.5 -15.5t36 -25t32 -28.5t20.5 -26.5t1.5 -19.5q-16 -23 -49.5 -74.5t-77 -120.5t-93 -151.5t-98 -168.5t-92 -170.5t-73.5 -157.5z" />
    <glyph glyph-name="uni042B" unicode="&#x42b;" horiz-adv-x="1046" 
d="M84 -98q-20 18 -41 35.5t-37.5 34t-26 31t-6.5 26.5q7 36 21 79q-7 20 -7 30q1 12 13 28q11 13 26 28q15 37 33 76q30 67 66 136t73 133.5t73 121.5t65.5 100.5t51.5 70t31 30.5q9 3 24.5 -2t33.5 -15.5t36 -25t32 -28.5t20.5 -26.5t1.5 -19.5q-16 -23 -49.5 -74.5
t-77.5 -120.5q-24 -39 -51 -83q4 -19 13 -38q14 -28 43 -56q17 -17 40.5 -31.5t47 -30t45 -35t35 -46.5t15.5 -64t-12 -87q-15 -54 -54 -91t-93.5 -56t-119.5 -20.5t-131 15.5q-62 16 -105 43q-16 -35 -29 -68zM249 230q-27 -49 -53 -97q33 -24 70 -37.5t70.5 -15.5t59 7
t35.5 31q12 25 4.5 43.5t-27 33.5t-46.5 30t-55 32q-16 10 -30 21zM742 -98q-20 18 -41 35.5t-37.5 34t-26 31t-6.5 26.5q10 51 33 113t53 128.5t66 135.5t73 133.5t73 121.5t65.5 100.5t51.5 70t31 30.5q9 3 24.5 -2t33.5 -15.5t36 -25t32 -28.5t20.5 -26.5t1.5 -19.5
q-16 -23 -49.5 -74.5t-77 -120.5t-93 -151.5t-98 -168.5t-92 -170.5t-73.5 -157.5z" />
    <glyph glyph-name="uni042C" unicode="&#x42c;" horiz-adv-x="657" 
d="M84 -98q-20 18 -41 35.5t-37.5 34t-26 31t-6.5 26.5q7 36 21 79q-7 20 -7 30q1 12 13 28q11 13 26 28q15 37 33 76q30 67 66 136t73 133.5t73 121.5t65.5 100.5t51.5 70t31 30.5q9 3 24.5 -2t33.5 -15.5t36 -25t32 -28.5t20.5 -26.5t1.5 -19.5q-16 -23 -49.5 -74.5
t-77.5 -120.5q-24 -39 -51 -83q4 -19 13 -38q14 -28 43 -56q17 -17 40.5 -31.5t47 -30t45 -35t35 -46.5t15.5 -64t-12 -87q-15 -54 -54 -91t-93.5 -56t-119.5 -20.5t-131 15.5q-62 16 -105 43q-16 -35 -29 -68zM249 230q-27 -49 -53 -97q33 -24 70 -37.5t70.5 -15.5t59 7
t35.5 31q12 25 4.5 43.5t-27 33.5t-46.5 30t-55 32q-16 10 -30 21z" />
    <glyph glyph-name="uni042D" unicode="&#x42d;" horiz-adv-x="672" 
d="M312 298q-2 1 -10 20.5t-16 44.5t-12 50t4 37q4 6 28 10.5t58.5 6t74.5 0.5q22 0 42 -1q21 44 35 85q19 52 24 94.5t-9 66.5q-4 7 -25.5 -2.5t-52 -30t-66.5 -49.5t-68.5 -61t-57.5 -64.5t-35 -60.5q-23 6 -45 24.5t-38.5 40t-24.5 41t-3 28.5q29 52 72.5 103.5t94.5 92
t105 64.5t102 22q26 -1 55 -10.5t57 -28t53.5 -47t44.5 -68.5q14 -28 12.5 -81t-15.5 -117q-11 -51 -101 -256q-38 -64 -82 -122.5t-94 -105t-106.5 -77t-119.5 -36.5q-47 -5 -82 1.5t-59.5 24t-40.5 45t-26 64.5q-4 18 -0.5 49t12 67t21.5 73t27.5 69t28.5 54t25 28
q35 -9 66 -21q26 -11 53.5 -25t41.5 -34q-26 -24 -49 -57.5t-38 -65.5t-19.5 -57.5t6.5 -34.5q17 -13 44.5 2t61 48.5t69.5 82.5q28 37 55 78q-32 -1 -53 -3q-24 -2 -25 -1z" />
    <glyph glyph-name="uni042F" unicode="&#x42f;" horiz-adv-x="770" 
d="M772 865q20 -18 41 -35.5t37.5 -34t26 -31t6.5 -26.5q-7 -36 -21 -79q7 -20 7 -30q-1 -12 -13 -28q-11 -13 -26 -28q-15 -37 -33 -76q-30 -67 -66 -136t-73 -133.5t-73 -121.5t-65.5 -100.5t-51.5 -70t-31 -30.5q-9 -3 -24.5 2t-33.5 15.5t-36 25t-32 28.5t-20.5 26.5
t-1.5 19.5q16 23 49 74q27 41 60 94q-7 -6 -17 -12q-28 -20 -61.5 -47t-70 -57.5t-89.5 -51t-78.5 -48.5t-38.5 -49q-16 18 -27.5 41t-18.5 46.5t-9.5 45.5t-1.5 38q1 17 35 60t107.5 86t137.5 98q54 47 106 84q-1 1 -2 1q-23 15 -46.5 30.5t-45 35t-35 46.5t-15.5 64t12 87
q15 54 54 91t93.5 56t119.5 20.5t131 -15.5q62 -16 105 -43q16 35 29 68zM607 537q27 49 53 97q-33 24 -70 37.5t-70.5 15.5t-59 -7t-35.5 -31q-12 -25 -4.5 -43.5t27 -33.5t46.5 -30t55 -32q16 -10 30 -21z" />
    <glyph glyph-name="uni0426" unicode="&#x426;" horiz-adv-x="870" 
d="M704 44l6 3q7 1 22 -8t31 -21.5t28.5 -27t14.5 -25.5q1 -9 -11.5 -34.5t-35.5 -53t-53.5 -49.5t-63.5 -25q-26 -2 -46 1.5t-38.5 13t-36.5 23.5t-39 33q20 -1 33 2t30 11q8 5 21 16q-59 11 -240 5q-208 -8 -219 -9q-23 -1 -48 13t-45 31q-24 20 -45 46q25 41 53.5 89.5
t59 102.5t61 110.5t60.5 111.5q34 63 61 117.5t51 107.5t47.5 109t50.5 122q44 -25 67.5 -57t34.5 -81q6 -28 2 -53t-131 -291t-137.5 -291t-17.5 -53l276 60l362 736q21 -12 42.5 -24.5t38.5 -26.5t26.5 -32.5t6.5 -42.5q-3 -27 -18 -71t-37 -97.5t-49.5 -112.5t-57.5 -115
q-14 -27 -32 -59t-37.5 -65.5t-39.5 -67.5t-39 -66q-6 -10 -12 -21z" />
    <glyph glyph-name="uni0427" unicode="&#x427;" horiz-adv-x="870" 
d="M49 276q55 118 85 174q14 27 32 59t37.5 65.5t39.5 67.5t39 66q44 74 92 150q47 -16 80 -34q14 -8 27 -16.5t21.5 -18t11.5 -19.5t-2 -20q-13 -23 -28.5 -51t-32 -58t-33.5 -61t-33 -59q-38 -67 -77 -137l282 60q16 28 38.5 70t47.5 87.5t50.5 91.5t49 82.5t42.5 59
t30 23.5q23 1 48 -13t45 -31q24 -20 45 -46q-25 -41 -53.5 -89.5t-59 -102.5t-61 -110.5t-60.5 -111.5q-34 -63 -61 -117.5t-51 -107.5t-47.5 -109t-50.5 -122q-44 25 -67.5 57t-34.5 81q-6 28 -2 53t13 49t19.5 49t17.5 53l-276 -60z" />
    <glyph glyph-name="uni0429" unicode="&#x429;" horiz-adv-x="1076" 
d="M641 -18q-39 -14 -74 -24.5t-63 -15.5t-42 0q-20 6 -39 28.5t-35 51.5q-1 3 -3 6q-27 -9 -58 -20q-36 -13 -75.5 -26.5t-74.5 -24t-63 -15.5t-42 0q-20 6 -39 28.5t-34.5 52t-26 62t-14.5 59.5q-4 26 11 73t42 105.5t62.5 124.5t73.5 131q89 152 205 328q17 3 41 -6
t47 -24.5t41 -35.5t23 -38q4 -11 -15 -48.5t-51.5 -92t-73.5 -121.5t-82 -137t-77.5 -138t-59.5 -124q37 12 75.5 23t72.5 18q32 7 59 10q2 11 7 25q15 47 42 105.5t62.5 124.5t73.5 131q89 152 205 328q17 3 41 -6t47 -24.5t41 -35.5t23 -38q4 -11 -15 -48.5t-51.5 -92
t-73.5 -121.5t-82 -137t-77.5 -138t-59.5 -124q37 12 75.5 23t72.5 18.5t61 9.5q24 1 39 -3q22 58 50 120q30 67 66 136t73 133.5t73 121.5t65.5 100.5t51.5 70t31 30.5q9 3 24.5 -2t33.5 -15.5t36 -25t32 -28.5t20.5 -26.5t1.5 -19.5q-16 -23 -49.5 -74.5t-77 -120.5
t-93 -151.5t-98 -168.5t-92.5 -171q-6 -12 -12 -23l8 3l6 3q7 1 22 -8t31 -21.5t28.5 -27t14.5 -25.5q1 -9 -11.5 -34.5t-35.5 -53t-53.5 -49.5t-63.5 -25q-26 -2 -46 1.5t-38.5 13t-36.5 23.5t-39 33q20 -1 33 2t30 11q8 5 21 16q-59 11 -240 5l125 51q-16 -6 -33 -11z" />
    <glyph glyph-name="uni042A" unicode="&#x42a;" horiz-adv-x="657" 
d="M141 708q-2 1 -10 20.5t-16 44.5t-12 50t4 37q4 6 28 10.5t58.5 6t75 1t77.5 -3.5t65 -9q6 -1 11 -2q9 1 21 -3q16 -5 34 -15.5t36 -25t32 -28.5t20.5 -26.5t1.5 -19.5q-16 -23 -49.5 -74.5t-77.5 -120.5q-24 -39 -51 -83q4 -19 13 -38q14 -28 43 -56q17 -17 40.5 -31.5
t47 -30t45 -35t35 -46.5t15.5 -64t-12 -87q-15 -54 -54 -91t-93.5 -56t-119.5 -20.5t-131 15.5q-62 16 -105 43q-16 -35 -29 -68q-20 18 -41 35.5t-37.5 34t-26 31t-6.5 26.5q7 36 21 79q-7 20 -7 30q1 12 13 28q11 13 26 28q15 37 33 76q30 67 66 136t73 133.5t73 121.5
q19 31 37 58q-44 -3 -80 -6q-38 -2 -62 -4t-25 -1zM249 230q-27 -49 -53 -97q33 -24 70 -37.5t70.5 -15.5t59 7t35.5 31q12 25 4.5 43.5t-27 33.5t-46.5 30t-55 32q-16 10 -30 21z" />
    <glyph glyph-name="uni042E" unicode="&#x42e;" horiz-adv-x="1124" 
d="M419 54q-27 54 -27.5 123.5t19.5 144.5q2 6 4 13l-31 -2q-43 -3 -79 -6q-28 -48 -56 -97q-48 -86 -91.5 -170.5t-73.5 -157.5q-20 18 -41 35.5t-37.5 34t-26 31t-6.5 26.5q10 51 33 113t53 128.5t66 135.5t73 133.5t73 121.5t65.5 100.5t51.5 70t31 30.5q9 3 24.5 -2
t33.5 -15.5t36 -25t32 -28.5t20.5 -26.5t1.5 -19.5q-16 -23 -49.5 -74.5t-77.5 -120.5q-18 -29 -38 -61q8 -1 16 -1q30 -3 55 -7q37 74 86 139q51 69 112 124t126.5 87.5t132.5 37t131 -28.5q75 -39 108.5 -99t35.5 -132t-23 -151t-67.5 -156t-97.5 -146.5t-113.5 -122.5
t-115 -84.5t-102.5 -32.5q-24 0 -43.5 4t-36 11.5t-32.5 16.5l-32 18q-16 8 -33.5 15.5t-34 17t-31 22.5t-24.5 33zM599 96q11 -10 34 -4.5t51.5 22t61.5 42t64.5 56.5t59 64.5t47.5 65.5q27 45 55 97t43 101.5t10.5 91t-42.5 64.5q-30 18 -68.5 3.5t-78.5 -48.5t-77 -81.5
t-64 -95.5q-28 -50 -53 -109.5t-40.5 -114t-18 -96.5t15.5 -58z" />
    <glyph glyph-name="uni0430" unicode="&#x430;" horiz-adv-x="555" 
d="M-67 62q3 27 22 67t47.5 87.5t65 99t75 102.5t77 97.5t72 82.5t59 60t38.5 28q8 4 28.5 -11t48.5 -35.5t59.5 -40.5t60.5 -28q-17 -45 -30.5 -83t-24 -76t-21 -77t-20.5 -85q-11 -44 -17.5 -83t-12 -77t-11 -77.5t-12.5 -84.5q-19 2 -34 10t-27 20t-21.5 28t-18.5 33
q-7 13 -8 25t0.5 24t3.5 25t-1 27q-56 -6 -102 -11q-20 -3 -39.5 -5t-36.5 -4t-29.5 -4t-17.5 -2q-15 -12 -34 -39.5t-36 -56.5q-21 -35 -41 -75q-14 15 -26.5 31t-21.5 33.5t-13 36t-1 38.5zM418 514q-44 -53 -86 -104q-18 -21 -36.5 -44.5t-37 -47.5t-35 -46t-29.5 -42
q23 4 49.5 7t49.5 6q26 3 53 7z" />
    <glyph glyph-name="uni0431" unicode="&#x431;" horiz-adv-x="621" 
d="M340 693q2 -2 6 -3q4 0 8 -2q13 -4 28 -13q3 -1 6 -4h2q20 -9 35 -13q7 -1 25.5 2t41 8t44.5 9.5t37 3.5q18 -1 32.5 -13t25.5 -30t19.5 -39t15.5 -41q-7 1 -11.5 2.5t-14.5 3.5q-9 1 -38 -3t-66.5 -12t-75.5 -19.5t-64 -23.5q-46 -80 -82 -142q3 -10 8 -21
q11 -22 34 -45q14 -13 32.5 -24.5t37.5 -24t36 -28t28 -37.5t12.5 -51.5t-9.5 -69.5q-12 -43 -43.5 -72.5t-75 -45t-95.5 -16.5t-105 13q-49 12 -84 34q-12 -28 -23 -54q-16 14 -32.5 28t-30 27t-21 25t-5.5 21q1 4 3 9q-6 14 -9 26q-1 4 9 27q4 9 9 21v4q0 10 10 23
q2 3 6 6q0 3 1 5q18 36 42 82q14 28 30 59q11 20 21 40q29 55 58.5 106.5t58.5 97t52.5 80.5t41 56t24.5 25h3q1 1 2 3zM213 76q29 -10 56 -12t47.5 5.5t28.5 24.5q9 20 3 35t-21.5 27t-37 24t-43.5 26q-10 5 -18 11q-49 -83 -58 -96q-5 -8 -10 -17q25 -18 53 -28z" />
    <glyph glyph-name="uni0432" unicode="&#x432;" horiz-adv-x="662" 
d="M-29 44q3 20 18.5 59t38 87.5t49.5 101t55 98.5q17 29 37.5 61t41 63.5t41.5 61t39 52t32.5 37t23.5 17.5l20 -16q9 -8 19.5 -16t19.5 -14q19 19 49.5 30.5t61.5 16t56 4.5t33 -1q14 -4 31 -13.5t31.5 -23.5t23.5 -32t5 -39q-10 -52 -24 -86t-35.5 -61t-52.5 -51.5
t-74 -57.5q39 -12 57 -28.5t24 -35.5t4.5 -38t-3.5 -37q-5 -41 -28 -77t-57.5 -65t-76.5 -50t-83.5 -35t-80.5 -18.5t-66 -0.5q-19 2 -33 9.5t-27 18.5t-24.5 24t-24.5 25l-36 -73q-14 10 -30 21.5t-29 23.5t-20.5 26.5t-5.5 31.5zM273 342q13 -4 45 9t71 35.5t79.5 50.5
t71 54.5t45 48t2.5 30.5q-9 6 -32.5 -0.5t-53.5 -19.5t-61.5 -29.5t-56.5 -30.5zM142 117q5 -10 25.5 -16.5t46.5 -9t53.5 -0.5t47.5 8q30 10 62.5 26.5t56.5 35t36 36t0 28.5q-11 9 -27 9.5t-34.5 -2.5t-38 -8.5t-36 -10.5t-28 -7t-14.5 3q-13 9 -24 21q-10 8 -20 20
t-16 24z" />
    <glyph glyph-name="uni0433" unicode="&#x433;" horiz-adv-x="558" 
d="M340 693q29 -13 49.5 -22t35.5 -13q7 -1 25.5 2t41 8t44.5 9.5t37 3.5q18 -1 32.5 -13t25.5 -30t19.5 -39t15.5 -41q-7 1 -11.5 2.5t-14.5 3.5q-9 1 -38 -3t-66.5 -12t-75.5 -19.5t-64 -23.5q-206 -356 -225.5 -385.5t-37.5 -62t-35 -65t-32 -63.5q-36 25 -61.5 60
t-32.5 68q-1 4 8.5 27t27 59t41.5 82.5t52 97t59 103.5t62.5 102t61.5 91t56 73z" />
    <glyph glyph-name="uni0434" unicode="&#x434;" horiz-adv-x="713" 
d="M386 -101q16 -1 26 1.5t24 9.5q7 4 18.5 14.5t25.5 25.5q-27 -1 -56 -2q-58 -2 -118 -4.5t-109 -5t-80 -4.5h-6q-1 -5 -5 -11q-4 6 -9 11h-4q-4 -5 -9 -11q-18 -22 -42.5 -39.5t-51.5 -20.5q-20 -1 -36 1.5t-31 10t-29.5 19t-31.5 26.5q16 -1 26.5 1.5t24.5 8.5
q7 4 18.5 15t25.5 25t28 29.5t26.5 28.5t21.5 21l1 1q0 9 6 16l6 3q40 101 68 147q28 48 64.5 99.5t75 102.5t77.5 97.5t72 82.5t58.5 60t38.5 28q8 4 29 -11t48.5 -35.5t59 -40.5t60.5 -28q-17 -45 -30 -83t-24 -76t-21.5 -77t-20.5 -85q-11 -44 -17.5 -83t-12.5 -77
q-3 -27 -8 -55q3 2 5 3q6 0 18 -7t24.5 -17t22.5 -21.5t12 -20.5q1 -7 -9 -27.5t-28.5 -42.5t-43 -39.5t-50.5 -20.5q-21 -1 -37 1.5t-31 10.5t-29.5 19t-30.5 26zM241 138q-23 -32 -40 -58h49q52 0 100 -3t85 -7h5q4 24 89 444q-44 -53 -86 -104q-17 -21 -36 -44.5
t-37.5 -47.5t-35 -46t-93.5 -134z" />
    <glyph glyph-name="uni0435" unicode="&#x435;" horiz-adv-x="545" 
d="M386 675q24 1 48.5 4.5t46.5 6.5t41 3.5t32 -3.5q50 -17 71.5 -57t21.5 -91l-17.5 3.5t-18.5 3.5q-34 4 -64.5 1t-57.5 -9t-51.5 -12.5t-47.5 -10.5l-96 -144q23 6 45.5 12.5t43.5 10t39 3t31 -6.5q28 -15 46.5 -45t15.5 -70q-6 6 -15.5 5.5t-17.5 -1.5
q-25 -2 -62.5 -9.5t-74.5 -17t-68.5 -19.5t-44.5 -16q-19 -9 -32.5 -23.5t-23.5 -32.5t-19 -39.5t-21 -43.5q25 9 50.5 19t49 18t44.5 12t36 1q12 -1 25.5 -12.5t25.5 -28t20.5 -37t10.5 -42.5q-9 6 -15 7.5t-21 2.5q-7 0 -25.5 -6.5t-43.5 -16t-54 -20.5t-56.5 -20t-50 -14
t-34.5 -2q-37 7 -60 24.5t-39 49.5q-13 26 -16.5 50t4.5 48q12 40 39 94t61 114.5t72 121.5t71.5 113.5t60 91.5t37.5 56q6 1 13.5 -2.5t14.5 -9t14.5 -10t15.5 -4.5z" />
    <glyph glyph-name="uni0436" unicode="&#x436;" horiz-adv-x="910" 
d="M324 -72q-15 14 -28.5 24.5t-25.5 22t-19.5 25.5t-10.5 34q-2 10 11 43q13 31 34 75q-7 -4 -15 -10q-23 -16 -49.5 -37.5t-56 -46t-55.5 -49t-46.5 -47t-30.5 -39.5q-13 15 -22 33t-14.5 37t-7.5 36.5t-2 30.5q1 14 28.5 48t69.5 77t94 87.5t101 77.5q-1 31 -3 66.5
t-2 72t1 70.5t3.5 61t6 44.5t9.5 21.5q8 5 27.5 3.5t40 -7t38.5 -13.5t23 -16q4 -7 4 -32.5t-0.5 -58t-0.5 -67t2 -58.5q5 -4 36.5 50.5t58.5 97t47 69t28 28.5q10 2 27 -5t33.5 -17.5t29.5 -23t15 -22.5q3 -12 -9.5 -37.5t-33 -58.5t-45.5 -71t-46 -75l72 52q43 31 91 65
l96 68q48 34 88 61.5t67 45t32 18.5q18 2 30.5 -9t20 -27.5t9.5 -36.5t-2 -38q-2 -5 -24.5 -24.5t-60 -47.5t-84.5 -62.5t-96.5 -69t-96.5 -68t-85 -59.5q21 -19 48.5 -45t52.5 -53t43.5 -51t21.5 -38q7 -36 -7.5 -63.5t-38.5 -54.5q-6 9 -11.5 16.5t-14.5 14.5
q-12 11 -37 32t-57 47.5t-69 54.5t-72 51q-8 -7 -14 -11t-11.5 -7t-10 -6l-10.5 -7q-6 -5 -18 -23.5t-27.5 -46t-33.5 -60t-36 -62.5z" />
    <glyph glyph-name="uni0437" unicode="&#x437;" horiz-adv-x="624" 
d="M34 94q-4 20 0 36.5t10 33t14 33.5t13 37q15 -32 42 -60t59 -48t67 -30t66 -7t56 21.5t37 56.5q9 27 0.5 43.5t-28 27.5t-44 16.5t-48.5 9.5t-41.5 7.5t-22.5 10.5q-10 16 -11.5 34.5t-0.5 34.5q3 19 8 39q3 0 15.5 3t34.5 8t50 12t62 14q30 7 58 19.5t48.5 27.5t30 30.5
t2.5 29.5q-9 17 -35 20.5t-61 -5t-73 -27t-71 -44.5q-5 15 -12.5 32.5t-13 34.5t-8.5 31t-1 22q8 28 41 50t78 33.5t95 11t93.5 -16t73.5 -49t35 -87.5q3 -45 -9.5 -78t-39.5 -57t-66 -40.5t-89 -28.5q26 -15 48 -32.5t36.5 -41.5t18.5 -56.5t-5 -77.5q-17 -74 -59 -117.5
t-96.5 -62t-114 -14.5t-111 25t-87.5 56t-44 79z" />
    <glyph glyph-name="uni0438" unicode="&#x438;" horiz-adv-x="645" 
d="M410 -78q-16 14 -33 28t-30 27t-20.5 25t-5.5 21q8 41 26.5 90.5t42.5 102.5q22 50 50 103q-257 -221 -387 -369l-12 -28q-16 14 -32.5 28t-30 27t-21 25t-5.5 21q8 41 26.5 90.5t42.5 103t53 108.5t58.5 106.5t58.5 97t52.5 80.5t41 56t24.5 25q7 2 19.5 -2t27 -12.5
t29 -20t25.5 -22.5t16.5 -21t1.5 -16q-13 -18 -40 -59.5t-62 -96.5q-21 -34 -44 -72q47 52 91 96q75 74 282 210l3 -3q14 15 20 19q7 2 19.5 -2t27 -12.5t29 -20t25.5 -22.5t16 -21t1 -16q-12 -18 -39 -59.5t-62 -96.5t-74.5 -121t-78 -135t-73.5 -136.5t-59 -125.5z" />
    <glyph glyph-name="uni0439" unicode="&#x439;" horiz-adv-x="653" 
d="M402 -98q-16 15 -33.5 29t-31 27.5t-21 25.5t-5.5 22q9 41 27.5 91.5t43.5 104.5q22 52 50 105q-262 -226 -394 -376q-6 -14 -12 -29q-16 15 -33.5 29t-31 27.5t-21 25.5t-5.5 22q9 41 27.5 91.5t43 105t54 110.5t59.5 109t59.5 99.5t53.5 82t42 57t25 24.5q8 2 20.5 -2
t27 -12.5t29.5 -20t26 -23t16.5 -22t1.5 -15.5q-13 -19 -40.5 -61t-63.5 -98q-21 -35 -45 -74q49 53 93 98q77 76 288 214l3 -3q14 16 20 19q8 2 20.5 -2t27 -12.5t29.5 -20t26 -23t16.5 -22t1.5 -15.5q-13 -19 -40.5 -61t-63 -98.5t-75.5 -123.5t-80 -137.5t-75.5 -139
t-59.5 -128.5zM640 826q-1 -11 -12.5 -25.5t-27.5 -32t-34 -38t-31 -42.5q-16 10 -25.5 23.5t-15 27.5t-6 28t1.5 25q1 10 11 27t22 33.5t24 28.5t18 12q10 0 23.5 -5.5t25.5 -14.5t19.5 -21.5t6.5 -25.5z" />
    <glyph glyph-name="uni043A" unicode="&#x43a;" horiz-adv-x="645" 
d="M59 -72q-15 14 -28.5 24.5t-25 22t-19.5 25.5t-11 34q-1 10 11.5 43t35.5 80t52.5 104t61.5 114.5t63.5 112t59 97t47 69t27.5 28.5q10 2 27.5 -5t33.5 -17.5t29 -23t15 -22.5q4 -12 -9 -37.5t-33.5 -58.5t-45 -71t-46.5 -75q29 21 72 52t91 65l96 68t88 61.5t67 45
t32 18.5q18 2 30.5 -9t20 -27.5t9.5 -36.5t-2 -38q-2 -5 -24.5 -24.5t-60 -47.5t-84.5 -62.5t-96 -69t-96.5 -68t-84.5 -59.5q20 -19 48 -45t52.5 -53t43 -51t21.5 -38q7 -36 -7 -63.5t-38 -54.5q-7 9 -12.5 16.5t-14.5 14.5q-12 11 -37 32t-57 47.5t-69 54.5t-72 51
q-8 -7 -14 -11t-11 -7l-10 -6t-11 -7q-6 -5 -18 -23.5t-27.5 -46t-33.5 -60t-36 -62.5z" />
    <glyph glyph-name="uni043B" unicode="&#x43b;" horiz-adv-x="555" 
d="M-67 62q41 107 69.5 154.5t65 99t75 102.5t77 97.5t72 82.5t59 60t38.5 28q8 4 28.5 -11t48.5 -35.5t59.5 -40.5t60.5 -28q-17 -45 -30.5 -83t-24 -76t-21 -77t-20.5 -85q-11 -44 -17.5 -83t-12 -77t-11 -77.5t-12.5 -84.5q-19 2 -34 10t-27 20t-21.5 28t-18.5 33
q-7 13 -8 25t0.5 24t89.5 446q-44 -53 -86 -104q-18 -21 -36.5 -44.5t-37 -47.5t-35 -46t-93.5 -133.5t-94 -140.5q-21 -35 -41 -75q-14 15 -26.5 31t-21.5 33.5t-13 36t-1 38.5z" />
    <glyph glyph-name="uni043C" unicode="&#x43c;" horiz-adv-x="965" 
d="M-27 14q-7 8 -3.5 26.5t12 44.5t22.5 57.5t30 65t32.5 65t31.5 58.5q16 30 38 65.5t46.5 72.5t50 73t47.5 65.5t38 50t24 28.5q37 -11 69 -25q28 -13 56 -30.5t43 -40.5q-25 -80 -47 -152q-9 -32 -18.5 -64t-17.5 -62t-14 -56t-8 -45l441 480q32 -9 60.5 -24t50 -32.5
t35.5 -35.5t18 -33q1 -6 -7 -25t-22.5 -47t-34 -61t-40.5 -67.5t-41.5 -68.5t-37.5 -62q-23 -39 -42.5 -76t-38.5 -73.5t-37.5 -74t-39.5 -78.5q-16 7 -33.5 18t-31.5 25t-22 30t-4 32q4 23 16 54t30 66.5t38 72.5t39 70.5t34.5 61.5t24.5 45l-403 -475q-13 11 -25 18
t-23 15t-19.5 19t-14.5 29q-5 16 -5 58t4.5 97.5t14.5 117t25 116.5l-269 -470z" />
    <glyph glyph-name="uni043D" unicode="&#x43d;" horiz-adv-x="696" 
d="M-22 43q2 22 14 57t29.5 78t39.5 90t46 92q11 22 25.5 47.5t30 52t31.5 54t32 52.5q35 60 73 120q38 -12 64 -27q11 -6 21.5 -13t17.5 -14.5t9.5 -15.5t-1.5 -16q-11 -18 -23.5 -40.5t-25.5 -46.5t-26.5 -49t-26.5 -47q-30 -54 -62 -110l226 48q13 23 31 56.5t38 70
t40.5 73t39 66t34 47.5t23.5 18q19 1 39 -10t36 -25q19 -16 36 -37q-20 -32 -43 -71t-47.5 -82t-48.5 -88.5t-48 -89.5q-28 -50 -49.5 -93.5t-40.5 -86t-38 -87.5t-40 -98q-36 20 -54.5 46t-27.5 65q-5 22 -1.5 42t10.5 39.5t15.5 39.5t13.5 42l-220 -48l-101 -202l-34 20
t-31 21t-21.5 26t-4.5 34z" />
    <glyph glyph-name="uni043E" unicode="&#x43e;" horiz-adv-x="606" 
d="M7 43q-21 43 -21.5 99t16 116t46.5 122t71 116.5t90 98.5t101 70t106 29.5t105 -22.5q60 -31 86.5 -79t28.5 -105.5t-18 -121t-54 -125t-78 -117t-91 -98t-92 -67.5t-82 -26q-19 0 -35 3t-29 9t-26 13.5t-25 14.5q-13 6 -27 12t-27.5 13.5t-25 18t-19.5 26.5zM151 77
q9 -8 27.5 -3.5t41 17.5t49 33.5t52 45t47.5 51.5t38 53q21 36 43.5 77.5t34.5 81t8.5 72.5t-34.5 52q-24 14 -54.5 2.5t-62.5 -38.5t-61.5 -65t-51.5 -77q-22 -40 -42 -87.5t-32.5 -91t-14.5 -77t12 -46.5z" />
    <glyph glyph-name="uni043F" unicode="&#x43f;" horiz-adv-x="696" 
d="M-22 43q2 22 14 57t29.5 78t39.5 90t46 92q11 22 25.5 47.5t30 52t31.5 54t32 52.5q35 60 73 120q38 -12 204.5 -6t174.5 6q19 1 39 -10t36 -25q19 -16 36 -37q-20 -32 -43 -71t-47.5 -82t-48.5 -88.5t-48 -89.5q-28 -50 -49.5 -93.5t-40.5 -86t-38 -87.5t-40 -98
q-36 20 -54.5 46t-27.5 65q-5 22 -1.5 42t105 233t110 233t13.5 42l-221 -48l-289 -589l-34 20t-31 21t-21.5 26t-4.5 34z" />
    <glyph glyph-name="uni0440" unicode="&#x440;" horiz-adv-x="662" 
d="M81 -77q-13 9 -30.5 21t-34 25t-29 27t-14.5 28q-2 9 11 41t35.5 78.5t52 103.5t61 116t63 115t58 100t45 72t24.5 32q7 4 16 1t19 -9.5t20.5 -15t21.5 -15.5q36 15 74 27t75.5 10.5t75 -19.5t73.5 -61q31 -38 28 -91t-29.5 -108t-71.5 -108t-98 -92t-107.5 -58.5
t-101.5 -8.5q-16 4 -28 12t-20.5 19t-16 24t-16.5 27q-7 -8 -20 -28t-28 -47t-31.5 -58.5t-32 -61.5t-27.5 -56t-17 -42zM266 278q1 -5 2.5 -10.5t6.5 -8.5q11 -7 32.5 -1.5t48.5 19.5t58 35.5t60 45.5t54 49.5t41 48.5t20.5 42t-7.5 30q-15 14 -41 14t-52.5 -6t-49 -15.5
t-29.5 -14.5q-3 -1 -13 -14t-23.5 -32.5t-29.5 -44t-31 -49t-28 -47.5t-19 -41z" />
    <glyph glyph-name="uni0441" unicode="&#x441;" horiz-adv-x="538" 
d="M347 370q21 19 39.5 45.5t30.5 52.5t15.5 46t-5.5 28q-13 10 -35 -2t-49 -39t-56 -66t-56.5 -83t-50.5 -90.5t-38 -88t-19 -75.5t7 -53q4 -6 21 1.5t41.5 24t53 40t54.5 49t46 51.5t28 48q19 -5 36.5 -19.5t30.5 -32t19.5 -33t2.5 -22.5q-23 -42 -58 -83t-75.5 -73.5
t-84 -51.5t-81.5 -18q-21 1 -44 8.5t-45.5 22.5t-43 38t-35.5 55q-11 22 -10 64.5t12.5 93t32 104.5t48.5 101q31 51 66 98t75 84t85 61.5t96 29.5q37 4 65 -1.5t48 -19.5t32.5 -36t20.5 -51q3 -15 0.5 -39.5t-9.5 -53.5t-17.5 -58.5t-22 -55t-22.5 -43.5t-20 -22
q-28 7 -53 16q-21 9 -43 20.5t-33 27.5z" />
    <glyph glyph-name="uni0442" unicode="&#x442;" horiz-adv-x="510" 
d="M133 -86q-17 14 -36 28.5t-35 28t-26 26.5t-9 22q10 49 38.5 114t65.5 134t78 136t75 120q-16 3 -42 -2t-52.5 -10.5t-48 -9t-28.5 1.5t-14.5 21t-13.5 34.5t-8 35t3 20.5q18 18 60 31.5t96 22t113.5 13t112 3.5t92.5 -6t54 -16q7 -4 17 -17.5t19.5 -30t17.5 -33
t10 -28.5q-22 1 -55 0t-65.5 -4t-58 -7t-31.5 -9q-4 -3 -16.5 -23.5t-32.5 -54.5t-45 -78.5t-51.5 -94t-54 -101.5t-52 -101t-44.5 -91.5t-33 -74.5z" />
    <glyph glyph-name="uni0443" unicode="&#x443;" horiz-adv-x="538" 
d="M81 -79q-16 9 -29.5 24.5t-23.5 31.5t-16 30.5t-6 23.5q0 10 11.5 33t30 52t42 59t48.5 53q-42 23 -59.5 65.5t-19.5 100.5q-1 28 4.5 60.5t14.5 64t20.5 59.5t23.5 50.5t23.5 36.5t19.5 17q13 3 31.5 -2.5t38 -17t34.5 -26t21 -26.5q4 -10 -9.5 -33t-30.5 -61.5t-31 -94
t-11 -128.5q85 97 159.5 171t131.5 126q67 61 122 106q13 -14 28.5 -22.5t29 -18t22.5 -21t11 -29.5q1 -9 -13 -24t-45.5 -44.5t-80.5 -76.5t-119.5 -120.5t-163 -176t-209.5 -242.5z" />
    <glyph glyph-name="uni0444" unicode="&#x444;" horiz-adv-x="939" 
d="M357 -77q-13 9 -30.5 21t-34 25t-28.5 27t-15 28q-1 9 11.5 41t35.5 78q21 46 49 101q-57 -14 -113 -12q-60 2 -105.5 23.5t-69 63t-12.5 104.5q12 66 43.5 114t74.5 80.5t95 49.5t105 21t104.5 -4t92.5 -26q8 -4 15 -8q18 28 25 32t15.5 1t18.5 -9.5t20.5 -15
t21.5 -15.5q36 15 74 27t76 10.5t75.5 -19.5t72.5 -61q31 -38 28.5 -91t-29.5 -108t-72 -108t-97.5 -92t-107.5 -58.5t-101 -8.5q-17 4 -28.5 12t-20.5 19t-16.5 24t-16.5 27q-7 -8 -20 -28t-28 -47t-31.5 -58.5t-31.5 -61.5t-27 -56t-18 -42zM542 278q2 -5 3.5 -10.5
t6.5 -8.5q10 -7 31.5 -1.5t49 19.5t58 35.5t60 45.5t54 49.5t40.5 48.5t21 42t-7 30q-15 14 -41 14t-53 -6t-49.5 -15.5t-29.5 -14.5q-2 -1 -12 -14t-24 -32.5t-30 -44t-31 -49t-28 -47.5t-19 -41zM472 478q16 28 31 54q-59 27 -131 25q-43 -2 -82.5 -19t-67 -42t-40.5 -52
t-2 -50q8 -19 30 -25t49.5 -3.5t58.5 9t60 11.5q26 5 46 7q24 43 48 85z" />
    <glyph glyph-name="uni0445" unicode="&#x445;" horiz-adv-x="677" 
d="M-15 -77q-13 15 -22 33t-15 37t-8 36.5t-1 30.5q1 14 28 48t69.5 77t94 87.5t101.5 77.5q-2 31 -3.5 66.5t-1.5 72t1 70.5t3.5 61t6 44.5t8.5 21.5q8 5 28 3.5t40.5 -7t38.5 -13.5t23 -16q4 -7 4 -32.5t-0.5 -58t-1 -67t2.5 -58.5q19 14 46 33t58 39.5t64 41t65 40.5
q73 47 156 95q10 -14 21 -28t19 -28.5t12 -28.5t0 -27q-2 -10 -26 -29t-61.5 -44t-84 -54t-92 -60t-86.5 -61.5t-67 -56.5q2 -42 10 -86.5t20.5 -82.5t29.5 -64.5t38 -33.5q19 -5 31.5 -4.5t23.5 7t22 19t26 29.5q-11 -39 -38.5 -68t-62.5 -44t-73 -13t-70 24
q-25 17 -40 36.5t-25 44.5t-18.5 57t-20.5 76q-12 -8 -35 -24t-50 -37.5t-56 -46t-55 -49t-46.5 -47t-30.5 -39.5z" />
    <glyph glyph-name="uni0446" unicode="&#x446;" horiz-adv-x="781" 
d="M542 35l5 3q6 0 18 -7t24.5 -17t22.5 -21.5t12 -20.5q1 -7 -9 -27.5t-28.5 -42.5t-43 -39.5t-50.5 -20.5q-21 -1 -37 1.5t-31 10.5t-29.5 19t-30.5 26q16 -1 26 1.5t24 9.5q6 4 17 12q-47 9 -192 4q-167 -6 -175 -7q-19 -1 -39 10.5t-36 24.5q-19 16 -36 37q20 33 43 72
t47.5 82t48.5 88t48 89q28 51 49.5 94.5t40.5 86t38 87t40 97.5q36 -20 54.5 -45.5t27.5 -64.5q5 -23 1.5 -43t-105 -232.5t-110 -232.5t-13.5 -43l221 48l289 589q17 -9 34 -19t31 -21.5t21.5 -26t4.5 -34.5q-2 -21 -14 -56.5t-29.5 -78t-39.5 -90t-46 -91.5
q-11 -22 -25.5 -47.5t-30 -52.5t-31.5 -54t-32 -53q-4 -8 -9 -17z" />
    <glyph glyph-name="uni0447" unicode="&#x447;" horiz-adv-x="696" 
d="M39 221q44 94 68 139q11 22 25.5 47.5t30 52t31.5 54t32 52.5q35 60 73 120q38 -12 64 -27q11 -6 21.5 -13t17.5 -14.5t9.5 -15.5t-1.5 -16q-11 -18 -23.5 -40.5t-25.5 -46.5t-26.5 -49t-26.5 -47q-30 -54 -62 -110l226 48q13 23 31 56.5t38 70t40.5 73t39 66t34 47.5
t23.5 18q19 1 39 -10t36 -25q19 -16 36 -37q-20 -32 -43 -71t-47.5 -82t-48.5 -88.5t-48 -89.5q-28 -50 -49.5 -93.5t-40.5 -86t-38 -87.5t-40 -98q-36 20 -54.5 46t-27.5 65q-5 22 -1.5 42t10.5 39.5t15.5 39.5t13.5 42l-220 -48z" />
    <glyph glyph-name="uni0448" unicode="&#x448;" horiz-adv-x="934" 
d="M686 -47q-16 14 -32.5 28t-30.5 27q-5 6 -11 12q-18 -6 -38 -14q-29 -10 -60.5 -21t-59.5 -19t-50.5 -12t-33.5 0q-16 4 -31.5 22t-28.5 42q0 2 -2 4q-22 -7 -46 -16q-29 -10 -60.5 -21t-59.5 -19t-50.5 -12t-33.5 0q-16 4 -31.5 22t-28 42t-20.5 50t-12 47q-3 21 9 58.5
t33.5 84.5t50 99.5t59.5 104.5q71 122 164 263q13 2 32.5 -5t37.5 -19.5t32.5 -28.5t18.5 -30q3 -9 -12 -39t-41 -73.5t-59 -97.5t-65.5 -110t-62 -110t-47.5 -99q30 9 60.5 18t57.5 15q26 5 48 8q1 8 5 20q12 37 33.5 84t50 99.5t59.5 104.5q71 122 164 263q13 2 32.5 -5
t37.5 -19.5t32.5 -28.5t18.5 -30q3 -9 -12 -39t-41 -73.5t-59 -97.5t-65.5 -110t-62 -110t-47.5 -99q30 9 60.5 18t58 15t48.5 8q19 0 31 -3q18 47 40 96q24 54 53 109t58.5 106.5t58.5 97.5t52.5 80.5t41 56t24.5 24.5q8 2 20 -2t26.5 -12.5t29 -20t25.5 -22.5t16.5 -21
t1.5 -16q-13 -18 -40 -59.5t-61.5 -96.5t-74 -121t-78.5 -135t-74 -136.5t-59 -125.5z" />
    <glyph glyph-name="uni0449" unicode="&#x449;" horiz-adv-x="924" 
d="M513 -14q-31 -12 -59 -20t-50.5 -12t-33.5 0q-16 4 -31.5 22t-28.5 42q0 2 -2 4q-22 -7 -46 -16q-29 -10 -60.5 -21t-59.5 -19t-50.5 -12t-33.5 0q-16 4 -31.5 22t-28 42t-20.5 50t-12 47q-3 21 9 58.5t33.5 84.5t50 99.5t59.5 104.5q71 122 164 263q13 2 32.5 -5
t37.5 -19.5t32.5 -28.5t18.5 -30q3 -9 -12 -39t-41 -73.5t-59 -97.5t-65.5 -110t-62 -110t-47.5 -99q30 9 60.5 18t57.5 15q26 5 48 8q1 8 5 20q12 37 33.5 84t50 99.5t59.5 104.5q71 122 164 263q13 2 32.5 -5t37.5 -19.5t32.5 -28.5t18.5 -30q3 -9 -12 -39t-41 -73.5
t-59 -97.5t-65.5 -110t-62 -110t-47.5 -99q30 9 60.5 18t58 15t48.5 8q19 0 31 -3q18 47 40 96q24 54 53 109t58.5 106.5t58.5 97.5t52.5 80.5t41 56t24.5 24.5q8 2 20 -2t26.5 -12.5t29 -20t25.5 -22.5t16.5 -21t1.5 -16q-13 -18 -40 -59.5t-61.5 -96.5t-74 -121
t-78.5 -135t-74 -137l-10 -18l7 2l4 3q6 1 18 -6.5t25 -17.5t23 -21.5t11 -20.5q1 -7 -9 -27.5t-28.5 -42.5t-43 -39.5t-50.5 -19.5q-21 -2 -37 1t-30.5 10.5t-29 18.5t-31.5 26q16 0 26.5 2t23.5 9q7 4 17 13q-47 8 -192 4l100 40z" />
    <glyph glyph-name="uni044A" unicode="&#x44a;" horiz-adv-x="570" 
d="M157 566q-2 1 -8.5 16.5t-12.5 35.5t-9.5 40t3.5 30q3 5 22 8.5t46.5 4.5t60 1t62 -2.5t52.5 -7.5q5 -1 9 -2q7 1 16 -2q13 -4 27.5 -12.5t29 -20t25.5 -22.5t16.5 -21t1.5 -16q-13 -18 -40 -59.5t-62 -96.5q-19 -31 -41 -66q3 -16 11 -31q11 -22 34 -45
q14 -13 32.5 -24.5t37.5 -24t36 -28t28 -37.5t12.5 -51.5t-9.5 -69.5q-12 -43 -43.5 -72.5t-75 -45t-95.5 -16.5t-105 13q-49 12 -84 34q-12 -28 -23 -54q-16 14 -32.5 28t-30 27t-21 25t-5.5 21q6 29 17 63q-5 16 -5 24q0 10 10 23q9 10 21 22q12 30 26 61q24 54 53 109
t58.5 106.5t58.5 97.5q15 25 29 46q-35 -2 -64 -5q-30 -1 -49 -2.5t-20 -1.5zM243 184l-42 -78q26 -19 55.5 -29.5t56.5 -12.5t47.5 5.5t28.5 24.5q9 20 3 35t-21.5 27t-37 24t-43.5 26q-13 8 -24 16z" />
    <glyph glyph-name="uni044B" unicode="&#x44b;" horiz-adv-x="809" 
d="M67 -78q-16 14 -32.5 28t-30 27t-21 25t-5.5 21q6 29 17 63q-5 16 -5 24q0 10 10 23q9 10 21 22q12 30 26 61q24 54 53 109t58.5 106.5t58.5 97t52.5 80.5t41 56t24.5 25q7 2 19.5 -2t27 -12.5t29 -20t25.5 -22.5t16.5 -21t1.5 -16q-13 -18 -40 -59.5t-62 -96.5
q-19 -31 -41 -66q3 -16 11 -31q11 -22 34 -45q14 -13 32.5 -24.5t37.5 -24t36 -28t28 -37.5t12.5 -51.5t-9.5 -69.5q-12 -43 -43.5 -72.5t-75 -45t-95.5 -16.5t-105 13q-49 12 -84 34q-12 -28 -23 -54zM199 184l-42 -78q26 -19 55.5 -29.5t56.5 -12.5t47.5 5.5t28.5 24.5
q9 20 3 35t-21.5 27t-37 24t-43.5 26q-13 8 -24 16q-12 -19 -23 -38zM594 -78q-16 14 -33 28t-30 27t-21 25t-5 21q8 41 26.5 90.5t42.5 103t52.5 108.5t58 106.5t58.5 97t52.5 80.5t41 56t25.5 25q7 2 19.5 -2t26.5 -12.5t28.5 -20t26 -22.5t16.5 -21t1 -16
q-13 -18 -39.5 -59.5t-61.5 -96.5t-74.5 -121t-78.5 -135t-73.5 -136.5t-58.5 -125.5z" />
    <glyph glyph-name="uni044C" unicode="&#x44c;" horiz-adv-x="555" 
d="M67 -78q-16 14 -32.5 28t-30 27t-21 25t-5.5 21q6 29 17 63q-5 16 -5 24q0 10 10 23q9 10 21 22q12 30 26 61q24 54 53 109t58.5 106.5t58.5 97t52.5 80.5t41 56t24.5 25q7 2 19.5 -2t27 -12.5t29 -20t25.5 -22.5t16.5 -21t1.5 -16q-13 -18 -40 -59.5t-62 -96.5
q-19 -31 -41 -66q3 -16 11 -31q11 -22 34 -45q14 -13 32.5 -24.5t37.5 -24t36 -28t28 -37.5t12.5 -51.5t-9.5 -69.5q-12 -43 -43.5 -72.5t-75 -45t-95.5 -16.5t-105 13q-49 12 -84 34q-12 -28 -23 -54zM199 184l-42 -78q26 -19 55.5 -29.5t56.5 -12.5t47.5 5.5t28.5 24.5
q9 20 3 35t-21.5 27t-37 24t-43.5 26q-13 8 -24 16q-12 -19 -23 -38z" />
    <glyph glyph-name="uni044D" unicode="&#x44d;" horiz-adv-x="538" 
d="M250 238q-2 1 -8.5 16.5t-13 35.5t-9.5 40t3 30q4 5 23 8.5t46.5 4.5t59.5 1q18 0 34 -1q17 35 28 68q15 41 19 75t-7 54q-3 5 -20.5 -2.5t-42 -24t-53 -39.5t-54.5 -48.5t-46 -51.5t-28 -49q-19 5 -36.5 20t-30.5 32t-19.5 32.5t-2.5 22.5q23 42 58 83t75.5 73.5t84 52
t81.5 17.5q21 -1 44 -8.5t45.5 -22.5t43 -37.5t35.5 -54.5q11 -23 10 -65t-12 -94q-9 -40 -81 -204q-30 -52 -65.5 -98.5t-75.5 -84t-85 -61.5t-96 -29q-37 -4 -65 1t-47.5 19t-32.5 36t-21 52q-3 14 -0.5 39t9.5 53.5t17.5 58.5t22 55.5t22.5 43t20 22.5q28 -7 53 -17
q21 -9 43 -20t33 -27q-21 -19 -39.5 -46t-30.5 -52.5t-15.5 -46t5.5 -27.5q14 -11 36 1t48.5 39t55.5 66q22 30 44 63q-26 -1 -42 -3z" />
    <glyph glyph-name="uni044E" unicode="&#x44e;" horiz-adv-x="899" 
d="M335 43q-21 43 -21.5 99t15.5 116q1 4 3 10l-25 -2q-34 -2 -63 -4q-22 -39 -45 -78q-38 -69 -73 -136.5t-59 -125.5q-16 14 -32.5 28t-30 27t-21 25t-5.5 21q8 41 26.5 90.5t42.5 103t53 108.5t58.5 106.5t58.5 97t52.5 80.5t41 56t24.5 25q7 2 19.5 -2t27 -12.5t29 -20
t25.5 -22.5t16.5 -21t1.5 -16q-13 -18 -40 -59.5t-62 -96.5q-14 -23 -30 -49q6 -1 12 -1q24 -2 44 -5q30 59 69 111q41 55 90 99t101 70t106 29.5t105 -22.5q60 -31 86.5 -79t28.5 -105.5t-18 -121t-54 -125t-78 -117t-91 -98t-92 -67.5t-82 -26q-19 0 -35 3t-29 9t-26 13
l-25 15q-13 6 -27 12t-27.5 13.5t-25 18t-19.5 26.5zM479 77q9 -8 27.5 -3.5t41 17.5t49 33.5t52 45t47.5 51.5t38 53q21 36 43.5 77.5t34.5 81t8.5 72.5t-34.5 52q-24 14 -54.5 2.5t-62.5 -38.5t-61.5 -65t-51.5 -77q-22 -40 -42 -87.5t-32.5 -91t-14.5 -77t12 -46.5z" />
    <glyph glyph-name="uni044F" unicode="&#x44f;" horiz-adv-x="616" 
d="M618 692q16 -14 32.5 -28t30 -27.5t21 -25t4.5 -21.5q-5 -28 -16 -63q5 -16 5 -24q-1 -9 -10 -22q-9 -11 -21 -23q-12 -29 -26 -60q-24 -54 -53 -109t-58.5 -107t-58.5 -97.5t-52.5 -80t-41 -56t-24.5 -24.5q-8 -2 -20 2t-26.5 12t-29 20t-25.5 23t-16.5 21t-1.5 16
q13 18 39 59q22 33 48 75q-5 -5 -13 -10q-23 -16 -49.5 -37.5t-56 -46t-71.5 -40.5t-62.5 -38.5t-31.5 -39.5q-12 14 -21.5 32.5t-15 37.5t-7.5 36.5t-1 30.5t28 47.5t86 69t110 78.5q43 38 85 67q-1 1 -2 1q-18 12 -37 24.5t-36 28t-28 37t-12.5 51t9.5 69.5q12 44 43 73.5
t75 44.5t96 16.5t104 -12.5q50 -13 84 -34q13 28 24 54zM486 430q21 39 42 77q-26 19 -56 30t-56.5 12.5t-47 -5.5t-28.5 -25q-10 -20 -4 -34.5t22 -26.5t37.5 -24t43.5 -26q13 -8 24 -17z" />
    <glyph glyph-name="uni0401" unicode="&#x401;" horiz-adv-x="504" 
d="M460 838q1 -10 -8.5 -26t-23 -34.5t-28 -38.5t-21.5 -38q-25 14 -37 30.5t-19 40.5q-3 12 3.5 30.5t17.5 36.5t22.5 31t19.5 14q9 1 21 -3t23.5 -11t20 -15.5t9.5 -16.5zM621 831q1 -10 -9 -26t-23.5 -34.5t-28 -38.5t-21.5 -38q-25 14 -36.5 30.5t-18.5 40.5
q-3 12 3.5 30.5t17 36.5t22.5 31t20 14t20.5 -3t24 -11t20 -15.5t9.5 -16.5zM596 523q-20 5 -29 7t-20 4q-32 4 -60 1.5t-53 -8t-47.5 -12t-43.5 -10.5l-71 -108q38 11 73.5 16t56.5 -6q30 -17 49.5 -51.5t16.5 -91.5q-19 13 -27.5 13.5t-15.5 -0.5q-23 -2 -58.5 -9
t-70.5 -16t-65 -18.5t-42 -15.5q-30 -14 -44.5 -41t-29.5 -60q44 17 85 30t67 9q13 -2 28 -14t28 -32t22.5 -47t11.5 -60q-11 8 -18 12.5t-11.5 7t-9 3t-10.5 0.5t-24.5 -6.5t-43 -16t-52.5 -20t-54 -19t-47.5 -13t-33.5 -2.5q-39 8 -63 26.5t-41 52.5q-13 26 -16.5 52
t4.5 52q12 38 38 90.5t59 110.5t69.5 117.5t69.5 111t58.5 90t37.5 55.5q8 2 16 -1t15.5 -8t15.5 -10t16 -5q23 1 47 4.5t46.5 6t41 3t31.5 -3.5q52 -17 75 -61t23 -109z" />
    <glyph glyph-name="uni0451" unicode="&#x451;" horiz-adv-x="504" 
d="M333 671q22 1 45.5 4.5t45 6.5t40 3.5t30.5 -3.5q48 -17 69 -55.5t21 -87.5q-10 2 -17 3.5t-18 3.5q-33 4 -62.5 1t-55.5 -8.5t-50 -12t-45 -10.5l-92 -139q21 6 43 12.5t42.5 10t37.5 3t29 -6.5q28 -15 45.5 -44t15.5 -67q-7 5 -15.5 5t-17.5 -1q-24 -2 -59.5 -9.5
t-71.5 -16.5t-66.5 -18.5t-42.5 -15.5q-19 -9 -31.5 -22.5t-22 -31t-18.5 -38t-20 -42.5q24 9 48.5 18.5t47 17t42.5 11.5t35 2q12 -2 25 -12.5t24.5 -26.5t19.5 -36t9 -41q-8 6 -13.5 7.5t-20.5 2.5q-6 0 -24 -6.5t-42 -15.5l-52 -19.5t-54.5 -19.5t-48 -13.5t-33.5 -2.5
q-35 8 -57 24.5t-38 47.5q-12 24 -16 47.5t4 47.5q12 38 38 90.5t58.5 110t69 116.5t69 109.5t57.5 88t36 53.5q6 2 13 -1.5t14.5 -9t14.5 -10t15 -4.5zM379 701q-25 14 -37 30.5t-19 40.5q-3 12 3.5 30.5t17.5 36.5t22.5 31t19.5 14q9 1 21 -3t23.5 -11t20 -15.5t9.5 -16.5
q1 -10 -8.5 -26t-23 -34.5t-28 -38.5t-21.5 -38zM539 694q-25 14 -36.5 30.5t-18.5 40.5q-3 12 3.5 30.5t17 36.5t22.5 31t20 14t20.5 -3t24 -11t20 -15.5t9.5 -16.5q1 -10 -9 -26t-23.5 -34.5t-28 -38.5t-21.5 -38z" />
    <glyph glyph-name="uni0419" unicode="&#x419;" horiz-adv-x="793" 
d="M487 -98q-16 15 -33.5 29t-31 27.5t-21 25.5t-5.5 22q9 41 27.5 91.5t43.5 104.5q22 52 50 105q-262 -226 -394 -376q-6 -14 -12 -29q-16 15 -33.5 29t-31 27.5t-21 25.5t-5.5 22q9 41 27.5 91.5t43 105t54 110.5t59.5 109t59.5 99.5t53.5 82t42 57t25 24.5q8 2 20.5 -2
t27 -12.5t29.5 -20t26 -23t16.5 -22t1.5 -15.5q-13 -19 -40.5 -61t-63.5 -98q-21 -35 -45 -74q49 53 93 98q77 76 288 214l3 -3q14 16 20 19q8 2 20.5 -2t27 -12.5t29.5 -20t26 -23t16.5 -22t1.5 -15.5q-13 -19 -40.5 -61t-63 -98.5t-75.5 -123.5t-80 -137.5t-75.5 -139
t-59.5 -128.5zM725 826q-1 -11 -12.5 -25.5t-27.5 -32t-34 -38t-31 -42.5q-16 10 -25.5 23.5t-15 27.5t-6 28t1.5 25q1 10 11 27t22 33.5t24 28.5t18 12q10 0 23.5 -5.5t25.5 -14.5t19.5 -21.5t6.5 -25.5z" />
    </font>
</defs>
</svg>
